{"glyphs":{"0":{"ha":653,"x_min":0,"x_max":0,"o":"m 208 556 b 167 597 186 556 167 575 b 178 626 167 608 171 618 b 375 694 185 633 250 694 b 639 444 519 694 639 594 b 264 69 639 247 461 69 b 28 292 138 69 28 158 b 124 529 28 401 75 481 b 153 542 132 538 142 542 b 194 500 175 542 194 522 b 182 471 194 489 190 479 b 111 292 147 436 111 376 b 264 153 111 211 176 153 b 556 444 414 153 556 294 b 375 611 556 544 481 611 b 236 567 285 611 242 572 b 208 556 229 561 219 556 "},"1":{"ha":653,"x_min":0,"x_max":0,"o":"m 97 56 b 56 97 75 56 56 74 b 69 128 56 108 60 119 b 458 726 299 331 447 615 b 500 764 460 747 479 764 b 542 722 524 764 542 743 b 514 250 542 644 514 443 b 528 49 514 178 517 108 l 528 42 b 486 0 528 21 511 0 b 444 35 467 0 449 15 b 431 250 433 103 431 175 b 439 451 431 319 435 385 b 125 67 368 326 258 185 b 97 56 117 60 107 56 "},"2":{"ha":653,"x_min":0,"x_max":0,"o":"m 208 153 b 472 83 208 88 386 83 b 514 42 494 83 514 64 b 472 0 514 19 494 0 b 125 153 342 0 125 8 b 172 299 125 204 144 247 b 326 524 210 367 286 463 b 375 625 360 574 375 604 b 319 681 375 658 353 681 b 250 625 281 681 250 651 b 257 583 250 597 257 603 b 215 542 257 563 240 542 b 167 625 179 542 167 571 b 319 764 167 710 247 764 b 458 625 397 764 458 703 b 396 476 458 571 429 526 b 244 257 353 413 276 314 b 208 153 217 208 208 185 "},"3":{"ha":653,"x_min":0,"x_max":0,"o":"m 125 694 b 333 764 125 764 307 764 b 514 625 407 764 514 732 b 419 486 514 558 463 515 b 361 417 379 460 361 433 b 431 356 361 400 376 386 b 542 222 476 331 542 297 b 153 0 542 60 260 0 b 111 42 131 0 111 19 b 153 83 111 64 131 83 b 458 222 268 83 458 163 b 389 283 458 239 443 253 b 278 417 343 308 278 342 b 372 556 278 483 329 526 b 431 625 413 582 431 608 b 333 681 431 657 399 681 b 182 656 296 681 236 678 b 167 653 176 654 172 653 b 125 694 146 653 125 669 "},"4":{"ha":653,"x_min":0,"x_max":0,"o":"m 542 42 b 500 0 542 19 522 0 b 471 11 489 0 479 4 b 431 139 463 19 431 58 b 440 250 431 178 436 221 b 319 222 404 235 365 222 b 111 444 196 222 111 328 b 203 747 111 625 200 744 b 236 764 211 758 224 764 b 278 722 260 764 278 744 b 194 444 278 681 194 625 b 319 306 194 367 249 306 b 474 365 396 306 471 363 b 500 375 482 372 492 375 b 542 333 522 375 542 357 b 514 139 542 317 514 240 b 542 42 514 60 542 85 "},"5":{"ha":653,"x_min":0,"x_max":0,"o":"m 56 99 b 97 139 56 122 76 139 b 250 83 136 139 158 83 b 403 181 342 83 403 121 b 282 360 403 225 351 288 b 139 597 218 426 139 503 b 156 697 139 654 154 692 b 194 722 163 714 179 722 b 236 681 219 722 236 701 b 222 597 236 658 222 651 b 343 418 222 553 274 490 b 486 181 407 351 486 275 b 250 0 486 46 353 0 b 71 65 150 0 76 61 b 56 99 61 74 56 86 m 322 611 b 281 651 301 611 281 626 b 303 689 281 667 290 682 b 549 764 308 692 392 735 l 556 764 b 597 722 576 764 597 747 b 563 681 597 703 582 685 b 322 611 397 650 354 611 "},"6":{"ha":653,"x_min":0,"x_max":0,"o":"m 278 292 b 236 333 256 292 236 311 b 247 363 236 344 240 354 b 389 417 253 368 303 417 b 556 250 485 417 556 346 b 264 0 556 106 392 0 b 69 194 146 0 69 76 b 522 758 69 521 522 758 b 542 764 528 761 535 764 b 583 722 563 764 583 747 b 563 686 583 708 576 694 b 153 194 549 679 153 449 b 264 83 153 118 188 83 b 472 250 358 83 472 172 b 389 333 472 301 440 333 b 278 292 313 333 321 292 "},"7":{"ha":653,"x_min":0,"x_max":0,"o":"m 167 556 b 125 514 167 533 147 514 b 96 525 114 514 104 518 b 56 625 90 531 56 565 b 278 764 56 706 132 764 b 472 528 421 764 472 647 b 453 354 472 479 465 418 b 569 361 493 358 533 361 b 611 319 592 361 611 342 b 569 278 611 297 592 278 b 435 268 529 278 482 274 b 374 31 407 144 375 33 b 333 0 368 13 351 0 b 292 42 308 0 292 21 b 344 254 292 60 317 133 b 190 224 258 239 190 224 b 181 222 188 222 183 222 b 139 264 160 222 139 239 b 171 304 139 283 151 300 b 364 342 172 304 260 325 b 389 528 378 413 389 481 b 278 681 389 631 357 681 b 139 625 146 681 139 639 b 167 556 139 586 167 589 "},"8":{"ha":653,"x_min":0,"x_max":0,"o":"m 194 167 b 333 83 194 106 239 83 b 389 139 367 83 389 106 b 276 283 389 163 344 219 b 194 167 224 236 194 196 m 236 611 b 194 514 236 563 194 592 b 279 396 194 494 225 449 b 444 583 372 471 444 538 b 333 681 444 640 399 681 b 250 653 271 681 288 653 b 208 694 228 653 208 672 b 219 724 208 704 211 715 b 333 764 225 729 263 764 b 528 583 435 764 528 693 b 340 338 528 479 421 403 b 472 139 400 281 472 217 b 333 0 472 61 411 0 b 111 167 233 0 111 33 b 215 342 111 239 163 294 b 111 514 165 392 111 446 b 172 646 111 601 164 640 b 194 653 179 650 186 653 b 236 611 215 653 236 635 "},"9":{"ha":653,"x_min":0,"x_max":0,"o":"m 431 694 b 390 653 431 672 413 653 b 306 681 351 653 368 681 b 181 542 235 681 181 619 b 278 444 181 481 217 444 b 444 542 354 444 444 501 b 431 611 444 565 431 586 b 471 653 431 632 446 653 b 511 626 489 653 506 640 b 542 417 529 583 542 504 b 376 11 542 175 381 15 b 347 0 368 3 357 0 b 306 42 325 0 306 19 b 317 71 306 51 310 63 b 458 417 319 74 458 215 l 458 421 b 278 361 406 382 336 361 b 97 542 172 361 97 436 b 306 764 97 658 182 764 b 419 724 375 764 413 731 b 431 694 426 715 431 706 "},"\u0000":{"ha":0,"x_min":0,"x_max":0,"o":""},"\b":{"ha":0,"x_min":0,"x_max":0,"o":""},"\t":{"ha":653,"x_min":0,"x_max":0,"o":""},"\r":{"ha":653,"x_min":0,"x_max":0,"o":""},"\u001d":{"ha":0,"x_min":0,"x_max":0,"o":""}," ":{"ha":653,"x_min":0,"x_max":0,"o":""},"!":{"ha":306,"x_min":0,"x_max":0,"o":"m 139 42 b 181 83 139 65 157 83 b 250 42 208 83 250 69 b 208 0 250 18 232 0 b 139 42 181 0 139 14 m 222 764 b 264 722 247 764 264 743 b 263 714 264 719 263 717 b 236 222 247 635 236 513 b 194 181 236 200 217 181 b 153 222 172 181 153 200 b 182 731 153 515 164 643 b 222 764 186 750 203 764 "},"\"":{"ha":403,"x_min":0,"x_max":0,"o":"m 333 667 b 292 625 333 646 317 625 b 240 740 243 625 242 688 b 136 633 206 693 172 660 b 111 625 129 628 119 625 b 69 668 89 625 69 644 b 83 875 69 696 83 833 b 125 917 83 897 103 917 b 167 875 147 917 167 897 b 161 774 167 851 164 817 b 235 893 185 803 208 842 b 272 917 240 906 254 917 b 324 803 319 917 324 860 l 324 764 b 333 667 324 700 333 693 "},"#":{"ha":667,"x_min":0,"x_max":0,"o":"m 542 500 b 583 458 567 500 583 479 b 551 389 583 433 563 410 l 569 389 b 611 347 592 389 611 369 b 569 306 611 325 592 306 l 510 306 b 468 218 496 276 481 247 b 550 207 518 214 549 207 b 583 167 569 203 583 186 b 542 125 583 142 563 125 b 432 138 528 125 504 133 b 400 57 418 106 407 78 b 361 28 394 40 379 28 b 319 69 336 28 319 49 b 342 139 319 93 332 115 b 208 129 292 138 246 133 b 164 26 190 92 175 57 b 125 0 158 10 142 0 b 83 42 100 0 83 21 b 110 113 83 67 100 90 b 97 111 106 111 101 111 b 56 153 76 111 56 128 b 89 193 56 172 69 189 b 154 206 90 193 114 200 b 214 311 172 240 192 275 b 90 319 125 315 94 319 b 56 361 69 324 56 342 b 97 403 56 386 74 403 b 265 393 107 403 139 397 b 328 483 285 422 306 453 b 361 500 336 494 349 500 b 403 458 385 500 403 481 b 364 390 403 432 376 407 b 458 389 392 390 424 389 b 506 479 474 419 490 451 b 542 500 513 493 526 500 m 378 222 b 417 307 390 250 403 278 b 310 308 376 307 342 307 b 256 217 290 278 272 246 b 375 222 292 219 332 222 "},"$":{"ha":653,"x_min":0,"x_max":0,"o":"m 56 83 b 99 125 56 110 78 125 b 250 94 114 125 160 108 b 269 307 256 158 263 232 b 69 514 175 346 69 400 b 303 718 69 642 194 703 b 306 806 304 753 306 782 b 347 847 306 828 325 847 b 389 806 369 847 389 828 b 386 721 389 782 388 753 b 551 643 506 714 544 657 b 556 625 554 638 556 631 b 514 583 556 604 539 583 b 478 604 500 583 486 590 b 382 639 478 606 460 635 b 358 361 376 556 367 457 b 597 139 461 321 597 268 b 389 0 597 13 467 0 b 326 3 368 0 347 1 b 319 -97 322 -44 319 -81 b 278 -139 319 -119 300 -139 b 236 -97 256 -139 236 -119 b 243 11 236 -78 239 -39 b 86 43 156 24 88 43 b 56 83 68 49 56 65 m 389 83 b 514 139 478 83 514 99 b 350 275 514 193 450 233 b 333 86 344 207 339 143 b 389 83 351 85 371 83 m 153 514 b 278 396 153 467 200 432 b 297 632 285 479 292 560 b 153 514 217 615 153 569 "},"%":{"ha":1139,"x_min":0,"x_max":0,"o":"m 750 917 b 792 875 775 917 792 896 b 788 858 792 869 790 864 b 472 -56 636 513 472 78 b 431 -97 472 -78 453 -97 b 389 -56 408 -97 389 -78 b 713 892 389 117 558 543 b 750 917 719 907 733 917 m 153 722 b 194 682 174 722 194 706 b 139 583 194 635 139 646 b 194 528 139 550 161 528 b 306 625 260 528 306 568 b 250 681 306 658 283 681 b 208 722 228 681 208 700 b 250 764 208 744 228 764 b 389 625 328 764 389 703 b 194 444 389 515 296 444 b 56 583 117 444 56 506 b 132 717 56 671 126 714 b 153 722 139 721 146 722 m 903 222 b 861 139 903 182 861 194 b 917 83 861 106 883 83 b 1000 153 969 83 1000 111 b 944 208 1000 186 978 208 b 903 250 922 208 903 228 b 944 292 903 272 922 292 b 1083 153 1022 292 1083 231 b 917 0 1083 56 1003 0 b 778 139 839 0 778 61 b 839 257 778 217 835 254 b 861 264 846 261 854 264 b 903 222 882 264 903 246 "},"&":{"ha":653,"x_min":0,"x_max":0,"o":"m 181 125 b 247 79 181 111 197 79 b 329 99 276 79 304 86 b 233 213 293 132 261 171 b 181 125 197 181 181 154 m 389 542 b 319 681 389 626 360 681 b 222 500 265 681 222 597 b 260 340 222 451 236 396 b 389 542 332 397 389 451 m 556 375 b 597 333 581 375 597 354 b 594 318 597 328 596 324 b 468 104 565 246 525 167 b 556 83 497 90 526 83 b 597 42 578 83 597 64 b 556 0 597 19 578 0 b 401 46 501 0 449 18 b 247 -4 357 15 306 -4 b 97 125 158 -4 97 58 b 192 288 97 197 144 249 b 139 500 158 357 139 431 b 319 764 139 597 179 764 b 472 542 446 764 472 624 b 299 265 472 403 374 324 b 397 150 326 222 361 181 b 517 349 447 201 489 278 b 556 375 524 365 539 375 "},"'":{"ha":236,"x_min":0,"x_max":0,"o":"m 125 917 b 167 875 150 917 167 896 b 165 867 167 872 165 869 b 153 667 158 831 153 763 b 111 625 153 644 133 625 b 69 667 89 625 69 644 b 85 883 69 765 75 836 b 125 917 89 903 106 917 "},"(":{"ha":403,"x_min":0,"x_max":0,"o":"m 293 917 b 333 875 318 917 333 896 b 139 167 333 843 139 504 b 340 -407 139 -81 300 -347 b 347 -431 344 -414 347 -422 b 306 -472 347 -451 329 -472 b 271 -454 292 -472 279 -467 b 56 167 228 -389 56 -114 b 256 894 56 514 251 888 b 293 917 263 907 278 917 "},")":{"ha":458,"x_min":0,"x_max":0,"o":"m 250 -472 b 208 -431 225 -472 208 -451 b 211 -417 208 -426 210 -421 b 319 208 279 -228 319 6 b 75 840 319 696 79 838 b 56 875 63 849 56 861 b 97 917 56 899 76 917 b 117 911 104 917 110 914 b 403 208 129 904 403 738 b 289 -444 403 -6 360 -244 b 250 -472 283 -461 267 -472 "},"*":{"ha":653,"x_min":0,"x_max":0,"o":"m 597 250 b 556 208 597 228 578 208 b 403 207 510 208 457 208 b 540 82 495 109 534 84 b 569 42 556 78 569 61 b 526 0 569 15 547 0 b 355 133 501 0 466 14 b 354 -21 355 87 354 37 b 313 -62 354 -43 335 -62 b 271 -21 290 -62 271 -43 b 272 115 271 29 271 74 b 200 18 250 86 226 54 b 167 0 192 7 179 0 b 125 42 143 0 125 21 b 133 65 125 50 128 58 b 235 203 170 118 204 164 b 104 194 175 201 127 198 l 97 194 b 56 236 76 194 56 211 b 90 278 56 256 69 275 b 222 287 118 282 165 285 b 149 376 199 314 175 344 b 139 403 143 383 139 393 b 181 444 139 425 157 444 b 213 429 193 444 204 439 b 281 346 237 398 260 371 b 300 488 286 407 292 451 b 340 521 304 507 321 521 b 382 479 365 521 382 500 b 381 471 382 476 381 474 b 366 358 375 441 370 406 b 485 456 438 434 475 451 b 500 458 489 457 494 458 b 542 417 521 458 542 442 b 517 378 542 400 532 385 b 419 291 516 377 484 359 b 556 292 467 292 514 292 b 597 250 578 292 597 272 "},"+":{"ha":528,"x_min":0,"x_max":0,"o":"m 333 83 b 292 42 333 63 317 42 b 251 75 272 42 256 56 b 235 188 247 96 240 136 b 97 181 185 183 138 181 b 56 222 75 181 56 200 b 97 264 56 244 75 264 b 228 271 135 264 181 267 b 222 417 225 317 222 368 b 264 458 222 439 242 458 b 306 417 286 458 306 439 b 311 282 306 372 308 326 b 418 304 353 289 390 296 b 431 306 422 306 426 306 b 472 264 451 306 472 289 b 443 224 472 246 461 229 b 318 199 408 214 364 206 b 333 83 324 142 333 108 "},",":{"ha":319,"x_min":0,"x_max":0,"o":"m 222 42 b 264 0 246 42 264 22 b 129 -276 264 -99 183 -208 b 97 -292 121 -286 110 -292 b 56 -250 74 -292 56 -272 b 65 -224 56 -240 60 -231 b 181 4 119 -157 174 -64 b 222 42 183 25 201 42 "},"-":{"ha":444,"x_min":0,"x_max":0,"o":"m 97 181 b 56 222 76 181 56 197 b 89 263 56 242 69 258 b 347 278 151 275 249 278 b 389 236 369 278 389 258 b 347 194 389 214 369 194 b 106 182 251 194 154 192 b 97 181 103 182 100 181 "},".":{"ha":319,"x_min":0,"x_max":0,"o":"m 139 42 b 181 83 139 65 157 83 b 250 42 208 83 250 69 b 208 0 250 18 232 0 b 139 42 181 0 139 14 "},"/":{"ha":514,"x_min":0,"x_max":0,"o":"m 417 694 b 458 653 442 694 458 674 b 454 636 458 647 457 642 b 139 -278 303 290 139 -144 b 97 -319 139 -300 119 -319 b 56 -278 75 -319 56 -300 b 379 669 56 -106 225 321 b 417 694 386 685 400 694 "},":":{"ha":319,"x_min":0,"x_max":0,"o":"m 153 361 b 194 403 153 385 171 403 b 264 361 222 403 264 389 b 222 319 264 338 246 319 b 153 361 194 319 153 333 m 194 111 b 236 42 222 111 236 69 b 194 0 236 18 218 0 b 153 69 171 0 153 46 b 194 111 153 93 171 111 "},";":{"ha":333,"x_min":0,"x_max":0,"o":"m 167 361 b 208 403 167 385 185 403 b 278 361 236 403 278 389 b 236 319 278 338 260 319 b 167 361 208 319 167 333 m 222 97 b 264 56 246 97 264 78 b 129 -221 264 -43 183 -153 b 97 -236 121 -231 110 -236 b 56 -194 74 -236 56 -217 b 65 -168 56 -185 60 -175 b 181 60 119 -101 174 -8 b 222 97 183 81 201 97 "},"<":{"ha":639,"x_min":0,"x_max":0,"o":"m 542 42 b 500 0 542 19 522 0 b 471 13 489 0 479 4 b 143 168 385 99 225 147 b 56 278 103 178 56 213 b 110 376 56 326 89 356 b 513 710 207 474 364 561 b 542 722 521 718 531 722 b 583 681 564 722 583 703 b 571 651 583 669 579 660 b 168 318 414 494 251 401 b 139 278 144 294 139 285 b 163 249 139 260 147 253 b 529 71 247 228 421 179 b 542 42 538 63 542 53 "},"=":{"ha":667,"x_min":0,"x_max":0,"o":"m 97 292 b 56 333 76 292 56 308 b 89 374 56 353 69 369 b 333 389 136 383 207 389 b 549 375 406 389 503 383 b 583 333 569 372 583 353 b 542 292 583 308 563 292 l 535 292 b 333 306 497 297 400 306 b 106 293 210 306 142 300 b 97 292 103 293 100 292 m 611 111 b 569 69 611 89 592 69 b 118 56 418 69 179 65 l 111 56 b 69 97 90 56 69 72 b 104 139 69 117 83 136 b 569 153 182 151 415 153 b 611 111 592 153 611 133 "},">":{"ha":667,"x_min":0,"x_max":0,"o":"m 125 0 b 83 42 104 0 83 17 b 104 78 83 56 92 69 b 468 288 244 161 410 258 b 500 319 493 300 500 311 b 471 360 500 326 494 336 b 68 693 388 443 225 536 b 56 722 60 701 56 711 b 97 764 56 744 75 764 b 126 751 108 764 118 760 b 529 418 275 603 432 515 b 583 319 550 397 583 368 b 504 213 583 258 535 228 b 146 6 451 186 283 89 b 125 0 139 1 132 0 "},"?":{"ha":486,"x_min":0,"x_max":0,"o":"m 153 42 b 194 83 153 65 171 83 b 264 42 222 83 264 69 b 222 0 264 18 246 0 b 153 42 194 0 153 14 m 153 681 b 111 639 153 660 136 639 b 56 736 69 639 56 699 b 236 917 56 838 135 917 b 431 722 349 917 431 835 b 274 329 431 554 326 433 b 250 246 263 307 253 269 b 208 208 249 225 229 208 b 167 250 185 208 167 228 b 199 365 167 288 182 332 b 335 636 243 453 310 549 b 347 722 342 663 347 692 b 236 833 347 790 304 833 b 139 736 179 833 139 793 b 153 681 139 714 153 699 "},"@":{"ha":847,"x_min":0,"x_max":0,"o":"m 431 199 b 361 292 404 247 379 292 b 292 167 333 292 292 232 b 333 125 292 140 307 125 b 431 199 357 125 394 150 m 681 42 b 722 0 701 42 722 24 b 704 -35 722 -14 717 -26 b 292 -181 596 -107 444 -181 b 56 97 136 -181 56 -40 b 569 639 56 408 253 639 b 792 417 701 639 792 549 b 556 97 792 297 707 97 b 481 126 525 97 499 110 b 333 42 443 82 393 42 b 208 167 263 42 208 96 b 361 375 208 240 250 375 b 479 285 426 375 458 322 b 511 408 499 331 511 379 b 553 450 511 431 531 450 b 594 408 575 450 594 431 b 529 197 594 346 568 267 b 556 181 540 183 547 181 b 708 417 626 181 708 314 b 569 556 708 507 660 556 b 139 97 303 556 139 369 b 292 -97 139 -15 197 -97 b 657 35 417 -97 557 -32 b 681 42 664 39 672 42 "},"A":{"ha":694,"x_min":0,"x_max":0,"o":"m 333 222 b 431 83 333 167 399 83 b 458 139 442 83 458 96 b 446 311 458 192 454 251 b 333 222 371 289 333 254 m 97 0 b 56 42 72 0 56 21 l 56 49 b 169 554 83 201 119 404 b 333 764 208 672 244 764 b 485 551 431 764 460 653 b 515 411 494 510 507 463 b 597 417 544 415 572 417 b 639 375 619 417 639 397 b 597 333 639 353 619 333 b 528 328 576 333 553 331 b 542 139 536 264 542 199 b 431 0 542 85 517 0 b 250 222 324 0 250 139 b 433 394 250 324 351 372 b 404 532 425 444 414 492 b 333 681 374 653 347 681 b 247 529 319 681 292 661 b 139 35 200 388 167 188 b 97 0 135 15 117 0 "},"B":{"ha":667,"x_min":0,"x_max":0,"o":"m 167 208 b 125 167 167 188 150 167 b 85 199 107 167 89 181 b 56 417 71 254 56 315 b 250 764 56 519 88 764 b 375 639 321 764 375 710 b 333 431 375 539 333 497 b 372 388 333 397 346 390 b 611 236 506 374 611 346 b 292 0 611 85 411 0 b 165 54 246 0 200 19 b 153 83 157 63 153 72 b 194 125 153 106 172 125 b 224 113 206 125 215 121 b 292 83 244 92 268 83 b 528 236 394 83 528 165 b 364 304 528 265 508 290 b 250 431 307 310 250 353 b 292 639 250 531 292 572 b 250 681 292 665 276 681 b 139 417 190 681 139 536 b 165 218 139 324 151 274 b 167 208 167 215 167 211 "},"C":{"ha":625,"x_min":0,"x_max":0,"o":"m 528 153 b 569 111 550 153 569 135 b 553 78 569 99 564 86 b 319 0 493 33 425 0 b 56 306 150 0 56 153 b 403 764 56 508 171 764 b 542 694 442 764 542 751 b 500 653 542 671 522 653 b 475 661 492 653 482 656 b 403 681 457 675 432 681 b 139 306 246 681 139 492 b 319 83 139 181 211 83 b 503 144 408 83 451 106 b 528 153 510 150 519 153 "},"D":{"ha":667,"x_min":0,"x_max":0,"o":"m 153 167 b 111 125 153 146 136 125 b 71 158 92 125 75 139 b 56 403 61 207 56 304 b 306 764 56 607 96 764 b 611 514 443 764 611 674 b 360 135 611 338 476 228 b 168 -29 290 79 221 24 b 139 -42 160 -37 150 -42 b 97 0 117 -42 97 -22 b 110 29 97 11 101 21 b 307 199 168 88 238 143 b 528 514 426 294 528 385 b 306 681 528 604 418 681 b 175 618 221 681 199 657 b 139 403 154 583 139 497 b 151 175 139 307 144 210 b 153 167 151 172 153 169 "},"E":{"ha":653,"x_min":0,"x_max":0,"o":"m 556 153 b 597 111 576 153 597 135 b 579 76 597 97 592 85 b 236 0 526 40 396 0 b 56 208 110 0 56 100 b 111 686 56 425 107 661 b 140 719 113 701 125 714 b 556 764 208 742 317 764 b 597 722 578 764 597 744 b 556 681 597 700 578 681 b 189 649 350 681 247 665 b 156 442 182 608 167 531 b 347 458 197 450 263 458 l 361 458 b 514 403 414 458 514 456 b 472 361 514 378 493 361 b 464 363 469 361 467 363 b 347 375 417 372 386 375 b 146 356 247 375 179 364 b 139 208 142 307 139 257 b 236 83 139 122 168 83 b 532 146 382 83 501 126 b 556 153 539 150 547 153 "},"F":{"ha":653,"x_min":0,"x_max":0,"o":"m 597 667 b 486 681 565 667 576 681 b 161 610 333 681 214 663 b 139 542 150 599 139 575 b 215 181 139 389 169 269 b 208 514 213 261 208 375 b 250 556 208 536 228 556 b 292 514 272 556 292 536 l 292 424 b 365 418 311 421 339 418 b 514 431 436 418 472 431 b 556 389 535 431 556 414 b 521 347 556 369 542 350 b 365 335 485 342 438 335 b 293 340 339 335 314 338 b 306 42 297 156 306 50 b 264 0 306 19 286 0 b 235 13 253 0 239 8 b 56 542 128 119 56 297 b 486 764 56 746 293 764 b 617 746 575 764 607 750 b 639 708 632 738 639 722 b 597 667 639 683 618 667 "},"G":{"ha":667,"x_min":0,"x_max":0,"o":"m 403 194 b 389 292 403 225 389 253 b 569 417 389 378 469 417 b 611 375 592 417 611 397 b 569 333 611 353 592 333 b 472 292 481 333 472 308 b 486 194 472 261 486 233 b 292 0 486 88 399 0 b 56 292 132 0 56 157 b 417 764 56 483 197 764 b 569 625 489 764 569 710 b 514 528 569 583 556 528 b 472 569 489 528 472 549 b 486 625 472 589 486 606 b 417 681 486 651 456 681 b 139 292 275 681 139 461 b 292 83 139 176 201 83 b 403 194 351 83 403 135 "},"H":{"ha":722,"x_min":0,"x_max":0,"o":"m 139 181 b 222 83 139 139 190 83 b 264 125 249 83 264 99 b 242 282 264 151 254 211 b 139 181 161 240 139 217 m 667 42 b 625 0 667 21 650 0 b 585 32 607 0 589 14 b 532 476 563 121 542 271 b 318 321 471 401 385 354 b 347 125 333 239 347 171 b 222 0 347 54 293 0 b 56 181 129 0 56 97 b 225 368 56 278 135 322 b 181 722 203 485 181 615 b 222 764 181 744 200 764 b 264 722 244 764 264 744 b 303 406 264 633 283 515 b 528 696 411 461 524 540 b 569 736 528 718 547 736 b 611 694 593 736 611 715 b 665 51 611 385 639 157 b 667 42 667 49 667 44 "},"I":{"ha":764,"x_min":0,"x_max":0,"o":"m 56 125 b 97 167 56 147 75 167 b 126 154 108 167 118 163 b 319 83 174 107 231 83 b 649 176 422 83 513 108 b 667 181 654 179 661 181 b 708 139 688 181 708 164 b 685 101 708 124 699 108 b 319 0 543 31 439 0 b 68 96 214 0 132 32 b 56 125 60 104 56 114 m 194 389 b 153 347 194 367 175 347 b 124 360 142 347 132 351 b 56 528 89 394 56 453 b 431 764 56 713 294 764 b 629 732 503 764 575 758 b 653 694 643 725 653 710 b 611 653 653 669 632 653 b 593 657 606 653 599 654 b 431 681 564 672 497 681 b 139 528 289 681 139 621 b 182 418 139 478 161 439 b 194 389 190 410 194 400 m 361 111 b 319 153 336 111 319 132 b 333 306 319 168 333 206 b 306 569 333 474 306 551 b 347 611 306 592 322 611 b 388 581 365 611 382 599 b 417 306 389 578 417 472 b 401 142 417 208 403 147 b 361 111 396 125 381 111 "},"J":{"ha":667,"x_min":0,"x_max":0,"o":"m 556 764 b 597 722 581 764 597 743 b 593 704 597 717 596 710 b 569 528 585 688 569 621 b 597 222 569 438 597 326 b 264 0 597 54 389 0 b 56 139 192 0 56 18 b 132 272 56 228 129 271 b 153 278 139 276 146 278 b 194 236 174 278 194 260 b 139 139 194 190 139 201 b 264 83 139 107 183 83 b 514 222 389 83 514 140 b 486 528 514 313 486 424 b 518 740 486 629 499 701 b 556 764 525 754 540 764 "},"K":{"ha":708,"x_min":0,"x_max":0,"o":"m 611 764 b 653 722 633 764 653 744 b 640 693 653 711 649 701 b 461 411 572 625 515 518 b 640 71 490 285 567 144 b 653 42 649 63 653 53 b 611 0 653 19 633 0 b 582 13 600 0 590 4 b 407 300 514 81 447 188 b 329 135 381 242 357 190 b 183 0 297 69 263 0 b 56 194 68 0 56 131 b 69 640 56 349 64 468 b 111 681 71 663 89 681 b 153 639 135 681 153 661 b 139 194 153 464 139 346 b 183 83 139 119 160 83 b 254 171 201 83 217 97 b 582 751 344 351 439 608 b 611 764 590 760 600 764 "},"L":{"ha":556,"x_min":0,"x_max":0,"o":"m 118 764 b 167 653 163 764 167 724 b 139 167 167 510 139 258 b 458 83 139 119 208 83 b 500 42 481 83 500 64 b 458 0 500 19 481 0 b 56 167 236 0 56 19 b 83 653 56 269 83 518 b 76 722 83 700 76 707 b 118 764 76 743 93 764 "},"M":{"ha":819,"x_min":0,"x_max":0,"o":"m 764 42 b 724 0 764 19 746 0 b 693 11 713 0 701 4 b 600 564 676 28 613 107 b 319 361 535 469 433 361 b 157 508 232 361 185 442 b 139 278 147 447 139 369 b 161 63 139 117 160 67 b 167 42 165 56 167 49 b 125 0 167 21 149 0 b 90 18 113 0 99 6 b 56 278 82 32 56 79 b 114 681 56 521 113 678 b 153 708 119 696 133 708 b 193 676 171 708 189 694 b 319 444 224 553 268 444 b 600 735 421 444 574 656 b 639 764 606 751 621 764 b 681 722 661 764 681 744 b 753 69 681 196 747 76 b 764 42 760 61 764 51 "},"N":{"ha":778,"x_min":0,"x_max":0,"o":"m 97 -42 b 56 0 72 -42 56 -21 b 58 13 56 4 57 8 b 168 731 83 88 135 561 b 208 764 172 750 189 764 b 247 738 228 764 242 750 b 360 288 300 608 326 429 b 458 83 393 143 429 83 b 543 204 493 83 522 119 b 640 732 563 282 611 617 b 681 764 644 750 663 764 b 722 722 706 764 722 743 b 721 713 722 719 722 715 b 624 185 694 606 646 274 b 458 0 603 103 563 0 b 279 268 340 0 307 146 b 221 536 260 353 242 446 b 136 -12 192 332 161 64 b 97 -42 131 -29 115 -42 "},"O":{"ha":764,"x_min":0,"x_max":0,"o":"m 264 639 b 222 679 243 639 222 656 b 238 714 222 692 228 706 b 417 764 244 719 308 764 b 708 417 601 764 708 583 b 347 0 708 207 572 0 b 56 292 174 0 56 118 b 190 551 56 415 117 515 b 208 556 196 554 203 556 b 250 514 229 556 250 539 b 226 476 250 499 240 483 b 139 292 189 457 139 390 b 347 83 139 160 215 83 b 625 417 511 83 625 238 b 417 681 625 556 538 681 b 264 639 310 681 304 639 "},"P":{"ha":667,"x_min":0,"x_max":0,"o":"m 139 444 b 222 0 139 315 222 133 b 181 -42 222 -22 203 -42 b 139 0 158 -42 139 -22 b 56 444 139 117 56 314 b 389 764 56 624 215 764 b 611 556 506 764 611 679 b 292 281 611 388 382 311 b 278 278 288 279 282 278 b 236 319 257 278 236 294 b 264 358 236 338 247 353 b 528 556 333 382 528 442 b 389 681 528 626 467 681 b 139 444 257 681 139 571 "},"Q":{"ha":833,"x_min":0,"x_max":0,"o":"m 472 528 b 431 486 472 506 453 486 b 401 499 419 486 410 490 b 347 514 393 507 369 514 b 293 507 328 514 310 511 b 292 486 292 500 292 493 b 607 214 292 322 432 346 b 694 444 661 279 694 361 b 472 681 694 576 600 681 b 325 596 411 681 360 649 b 347 597 332 596 340 597 b 472 528 379 597 472 583 m 778 -42 b 736 -83 778 -62 761 -83 b 697 -54 718 -83 703 -71 b 610 99 675 14 643 61 b 347 0 538 39 446 0 b 56 278 189 0 56 114 b 221 569 56 403 115 518 b 472 764 254 679 350 764 b 778 444 650 764 778 618 b 669 158 778 339 736 238 b 775 -29 713 111 749 50 b 778 -42 776 -33 778 -37 m 139 278 b 347 83 139 164 228 83 b 547 156 419 83 489 111 b 210 460 428 242 226 258 b 139 278 167 418 139 353 "},"R":{"ha":778,"x_min":0,"x_max":0,"o":"m 167 42 b 125 0 167 21 150 0 b 86 29 107 0 92 13 b 56 250 71 76 56 149 b 100 474 56 354 82 431 b 528 764 168 642 338 764 b 722 597 622 764 722 711 b 619 425 722 524 679 469 b 417 236 524 353 417 297 b 681 83 417 169 574 83 b 722 42 703 83 722 64 b 681 0 722 19 703 0 b 333 236 565 0 333 81 b 569 492 333 369 499 439 b 639 597 621 531 639 560 b 528 681 639 650 600 681 b 178 443 374 681 232 581 b 139 250 163 403 139 340 b 164 54 139 157 151 90 b 167 42 165 50 167 46 "},"S":{"ha":653,"x_min":0,"x_max":0,"o":"m 451 465 b 410 506 431 465 410 481 b 472 611 410 557 472 540 b 389 681 472 653 442 681 b 153 514 290 681 153 586 b 346 372 153 467 218 415 b 597 181 460 335 597 297 b 504 60 597 121 550 83 b 97 0 408 11 253 0 b 56 42 75 0 56 19 b 97 83 56 64 75 83 b 468 135 247 83 397 100 b 514 181 506 153 514 171 b 321 294 514 217 457 249 b 69 514 199 335 69 394 b 389 764 69 664 265 764 b 556 611 475 764 556 708 b 471 469 556 515 476 472 b 451 465 465 467 458 465 "},"T":{"ha":639,"x_min":0,"x_max":0,"o":"m 292 681 b 97 667 190 681 106 667 b 56 708 75 667 56 683 b 92 750 56 729 71 747 b 292 764 93 750 190 764 b 629 665 538 764 621 675 b 639 639 636 657 639 649 b 597 597 639 617 621 597 b 333 292 431 597 333 471 b 375 42 333 146 375 64 b 333 0 375 21 358 0 b 294 26 317 0 301 10 b 250 292 293 31 250 144 b 471 658 250 457 325 603 b 292 681 432 669 371 681 "},"U":{"ha":667,"x_min":0,"x_max":0,"o":"m 500 722 b 542 764 500 743 517 764 b 582 732 561 764 578 751 b 597 542 593 683 597 600 b 292 0 597 340 549 0 b 56 361 96 0 56 211 b 85 621 56 463 69 561 b 125 653 89 639 107 653 b 167 611 150 653 167 632 b 165 601 167 608 167 604 b 139 361 153 550 139 454 b 292 83 139 206 182 83 b 514 542 451 83 514 326 b 501 713 514 594 510 678 b 500 722 500 715 500 719 "},"V":{"ha":722,"x_min":0,"x_max":0,"o":"m 681 722 b 639 681 681 700 661 681 b 539 554 589 681 553 589 b 436 140 493 439 475 274 b 299 0 417 75 379 0 b 156 138 229 0 186 58 b 56 722 113 249 56 519 b 97 764 56 744 75 764 b 139 722 119 764 139 744 b 233 168 139 536 196 263 b 299 83 264 92 285 83 b 404 385 363 83 386 308 b 522 699 433 511 453 606 b 639 764 547 732 586 764 b 681 722 661 764 681 744 "},"W":{"ha":1125,"x_min":0,"x_max":0,"o":"m 1028 764 b 1069 722 1053 764 1069 743 b 1064 701 1069 715 1068 708 b 860 168 969 542 901 307 b 743 42 844 118 821 42 b 635 172 664 42 644 122 b 594 440 618 257 603 356 b 563 514 588 508 568 514 b 504 429 549 514 526 489 b 400 126 483 375 469 335 b 278 0 382 71 353 0 b 143 121 204 0 169 68 b 56 610 83 242 56 411 b 97 651 56 632 75 651 b 139 610 119 651 139 632 b 218 157 139 419 167 258 b 278 83 247 99 268 83 b 322 151 286 83 301 90 b 426 460 392 360 406 403 b 563 597 446 508 476 597 b 678 449 640 597 671 519 b 715 189 686 367 699 271 b 743 125 728 128 739 125 b 779 193 749 125 761 132 b 992 743 821 332 889 569 b 1028 764 1000 756 1014 764 "},"X":{"ha":736,"x_min":0,"x_max":0,"o":"m 56 722 b 97 764 56 746 76 764 b 121 757 106 764 114 761 b 347 438 222 689 282 561 b 478 585 396 497 440 547 b 583 664 517 624 547 651 b 597 667 588 665 593 667 b 639 625 618 667 639 650 b 611 586 639 608 628 592 b 536 526 600 582 572 563 b 390 357 496 486 447 428 b 465 232 415 311 440 269 b 639 83 529 136 589 83 b 681 42 661 83 681 64 b 639 0 681 19 661 0 b 335 286 500 0 400 171 b 131 17 274 207 204 117 b 97 0 122 6 110 0 b 56 42 74 0 56 19 b 64 67 56 50 58 60 b 290 367 147 179 222 281 b 200 535 257 428 226 488 b 74 688 150 622 129 650 b 56 722 61 696 56 708 "},"Y":{"ha":667,"x_min":0,"x_max":0,"o":"m 56 722 b 97 764 56 743 72 764 b 138 731 117 764 133 750 b 319 542 156 639 211 542 b 532 685 393 542 504 628 b 569 708 539 699 554 708 b 611 667 594 708 611 683 b 551 440 611 617 596 531 b 374 33 468 274 390 119 b 333 0 369 14 353 0 b 292 42 308 0 292 21 b 293 50 292 44 293 47 b 476 476 315 158 393 310 b 499 528 485 493 492 510 b 319 458 447 490 385 458 b 57 714 150 458 78 611 b 56 722 57 717 56 719 "},"Z":{"ha":694,"x_min":0,"x_max":0,"o":"m 597 375 b 556 333 597 353 578 333 b 350 331 495 333 422 333 b 343 326 348 330 346 328 b 181 153 238 256 181 193 b 389 83 181 114 278 83 b 583 101 479 83 561 94 b 597 104 588 103 593 104 b 639 63 618 104 639 88 b 611 24 639 46 628 29 b 389 0 569 8 485 0 b 97 153 306 0 97 8 b 201 327 97 220 141 276 b 104 319 158 325 123 322 l 97 319 b 56 361 76 319 56 336 b 90 403 56 381 69 400 b 324 415 134 410 225 413 b 542 625 443 497 542 581 b 458 681 542 663 519 681 b 110 614 368 681 231 654 b 97 611 106 613 101 611 b 56 653 76 611 56 628 b 85 692 56 671 68 686 b 458 764 214 735 354 764 b 625 625 536 764 625 726 b 475 417 625 547 556 477 b 556 417 503 417 530 417 b 597 375 578 417 597 397 "},"[":{"ha":556,"x_min":0,"x_max":0,"o":"m 457 -250 b 500 -292 478 -250 500 -265 b 475 -331 500 -308 490 -324 b 250 -375 472 -332 371 -375 b 56 -194 201 -375 56 -342 b 83 458 56 -93 83 267 b 56 764 83 651 56 707 b 292 917 56 914 275 917 b 410 856 369 917 407 860 b 417 833 414 849 417 840 b 375 792 417 813 399 792 b 292 833 335 792 347 833 b 139 764 253 833 139 808 b 167 458 139 738 167 654 b 139 -194 167 261 139 -101 b 250 -292 139 -269 215 -292 b 457 -250 367 -292 432 -250 "},"\\":{"ha":528,"x_min":0,"x_max":0,"o":"m 56 639 b 97 681 56 660 72 681 b 138 649 117 681 133 668 b 468 -260 192 418 358 -26 b 472 -278 471 -265 472 -272 b 431 -319 472 -299 456 -319 b 393 -296 415 -319 400 -311 b 57 629 281 -57 114 388 b 56 639 56 632 56 636 "},"]":{"ha":556,"x_min":0,"x_max":0,"o":"m 56 -292 b 97 -250 56 -267 76 -250 b 113 -253 103 -250 107 -251 b 333 -292 176 -278 254 -292 b 417 -208 397 -292 417 -272 b 333 111 417 -103 333 -36 b 375 736 333 304 375 564 b 236 833 375 800 325 833 b 139 813 174 833 167 813 b 97 854 118 813 97 829 b 119 892 97 868 106 883 b 236 917 124 894 169 917 b 458 736 342 917 458 867 b 417 111 458 553 417 293 b 500 -208 417 8 500 -61 b 333 -375 500 -311 436 -375 b 82 -331 246 -375 157 -361 b 56 -292 65 -324 56 -308 "},"^":{"ha":514,"x_min":0,"x_max":0,"o":"m 458 583 b 417 542 458 561 439 542 b 388 554 406 542 396 546 b 303 690 340 601 328 639 b 278 722 288 721 279 722 b 243 694 278 722 267 721 b 147 563 208 656 167 594 b 111 542 139 550 125 542 b 69 583 86 542 69 563 b 75 604 69 590 71 597 b 182 750 97 642 142 706 b 278 806 208 779 236 806 b 378 726 335 806 363 757 b 446 613 408 667 410 649 b 458 583 454 604 458 594 "},"_":{"ha":653,"x_min":0,"x_max":0,"o":"m 0 42 b 42 83 0 64 19 83 b 292 97 63 83 192 97 b 694 83 392 97 600 83 b 736 42 717 83 736 64 b 694 0 736 19 717 0 b 292 14 594 0 386 14 b 42 0 197 14 76 0 b 0 42 19 0 0 19 "},"`":{"ha":361,"x_min":0,"x_max":0,"o":"m 306 583 b 264 542 306 560 286 542 b 238 551 254 542 246 544 b 58 776 153 622 94 685 b 56 792 57 782 56 786 b 97 833 56 813 72 833 b 136 807 114 833 129 824 b 290 615 167 732 208 683 b 306 583 300 607 306 596 "},"a":{"ha":611,"x_min":0,"x_max":0,"o":"m 486 347 b 444 306 486 326 469 306 b 406 335 426 306 411 318 b 347 375 397 358 371 375 b 139 153 250 375 139 256 b 194 83 139 106 160 83 b 440 235 274 83 361 136 b 472 250 449 244 460 250 b 514 208 496 250 514 228 b 549 65 514 144 526 97 b 556 42 553 58 556 50 b 514 0 556 21 538 0 b 440 113 468 0 449 75 b 194 0 368 44 283 0 b 56 153 104 0 56 75 b 347 458 56 300 194 458 b 483 360 407 458 464 419 b 486 347 485 356 486 351 "},"b":{"ha":569,"x_min":0,"x_max":0,"o":"m 208 917 b 250 875 233 917 250 896 b 247 861 250 871 249 865 b 143 332 203 739 157 547 b 361 458 206 400 285 458 b 514 306 451 458 514 396 b 236 0 514 161 390 0 b 125 56 182 0 125 11 b 167 97 125 81 146 97 b 236 83 193 97 193 83 b 431 306 332 83 431 200 b 361 375 431 354 410 375 b 135 176 307 375 186 281 b 97 153 128 163 113 153 b 56 194 75 153 56 172 b 169 889 56 478 113 731 b 208 917 175 906 192 917 "},"c":{"ha":556,"x_min":0,"x_max":0,"o":"m 417 403 b 375 361 417 378 396 361 b 357 365 369 361 363 363 b 306 375 342 374 331 375 b 139 194 222 375 139 285 b 250 83 139 126 182 83 b 435 146 313 83 356 93 b 458 153 442 150 450 153 b 500 111 479 153 500 135 b 482 76 500 97 494 85 b 250 0 394 18 326 0 b 56 194 138 0 56 82 b 306 458 56 326 167 458 b 417 403 346 458 417 450 "},"d":{"ha":681,"x_min":0,"x_max":0,"o":"m 400 336 b 347 375 400 363 379 375 b 139 153 250 375 139 256 b 194 83 139 106 160 83 l 207 83 b 393 303 243 83 315 96 b 400 336 392 308 400 331 m 625 42 b 583 0 625 17 604 0 b 565 4 578 0 571 1 b 458 236 554 10 458 65 l 458 240 b 194 0 364 14 246 0 b 56 153 104 0 56 75 b 347 458 56 300 194 458 b 435 433 382 458 408 456 b 514 879 472 575 493 697 b 556 917 517 900 535 917 b 597 874 582 917 597 893 b 588 769 597 860 590 796 b 546 319 575 632 557 464 b 542 236 543 285 542 254 b 603 78 542 111 600 79 b 625 42 617 69 625 56 "},"e":{"ha":542,"x_min":0,"x_max":0,"o":"m 278 0 b 56 236 144 0 56 104 b 264 458 56 353 140 458 b 403 319 342 458 403 397 b 219 94 403 215 313 125 b 278 83 236 88 256 83 b 426 121 329 83 361 88 b 444 125 432 124 439 125 b 486 83 465 125 486 108 b 463 46 486 68 476 53 b 278 0 389 10 338 0 m 319 319 b 264 375 319 353 297 375 b 139 236 193 375 139 314 b 151 167 139 210 143 186 b 319 319 228 167 319 250 "},"f":{"ha":556,"x_min":0,"x_max":0,"o":"m 306 292 b 264 333 283 292 264 311 b 276 363 264 344 268 354 b 417 681 381 467 417 581 b 361 792 417 757 378 792 b 286 707 333 792 314 775 b 236 319 257 633 236 483 b 244 65 236 235 239 149 b 431 97 310 86 379 97 b 472 56 453 97 472 78 b 431 14 472 33 453 14 b 251 -24 385 14 314 -3 b 315 -412 268 -212 294 -371 b 319 -431 318 -418 319 -425 b 278 -472 319 -451 303 -472 b 240 -449 263 -472 247 -462 b 169 -57 210 -387 185 -237 b 126 -85 151 -67 135 -76 b 97 -97 118 -93 108 -97 b 56 -56 75 -97 56 -78 b 68 -26 56 -44 60 -35 b 163 33 90 -4 124 15 b 153 319 157 126 153 224 b 208 738 153 489 171 644 b 361 875 236 808 278 875 b 500 681 456 875 500 771 b 335 304 500 558 453 422 b 306 292 326 296 317 292 "},"g":{"ha":514,"x_min":0,"x_max":0,"o":"m 208 -347 b 250 -389 208 -374 224 -389 b 333 -278 294 -389 333 -340 b 299 -131 333 -222 319 -174 b 208 -347 244 -210 208 -294 m 403 375 b 361 333 403 353 385 333 b 331 347 350 333 339 339 b 264 375 314 365 293 375 b 139 250 189 375 139 325 b 258 57 139 189 188 128 b 301 11 272 43 288 28 b 389 101 331 44 360 76 b 417 111 397 108 407 111 b 458 69 439 111 458 93 b 444 38 458 58 454 46 b 353 -58 415 13 383 -21 b 417 -278 389 -118 417 -190 b 250 -472 417 -368 358 -472 b 125 -347 179 -472 125 -418 b 249 -56 125 -254 182 -149 b 56 250 178 33 56 115 b 264 458 56 369 144 458 b 392 403 313 458 358 440 b 403 375 399 394 403 385 "},"h":{"ha":639,"x_min":0,"x_max":0,"o":"m 583 42 b 542 0 583 21 567 0 b 504 24 526 0 511 10 b 472 250 478 76 472 138 b 444 375 472 371 454 375 b 335 250 419 375 393 351 b 167 83 283 161 249 83 b 56 236 76 83 56 181 b 111 875 56 478 111 731 b 153 917 111 897 131 917 b 194 875 175 917 194 897 b 139 236 194 714 139 467 b 167 167 139 181 160 167 b 263 292 182 167 203 186 b 444 458 315 385 358 458 b 556 250 546 458 556 351 b 579 60 556 140 564 90 b 583 42 582 54 583 47 "},"i":{"ha":403,"x_min":0,"x_max":0,"o":"m 194 722 b 236 653 222 722 236 681 b 194 611 236 629 218 611 b 153 681 171 611 153 657 b 194 722 153 704 171 722 m 306 97 b 347 56 326 97 347 81 b 222 0 347 6 265 0 b 56 194 108 0 56 100 b 85 426 56 239 61 325 b 125 458 89 446 106 458 b 167 417 150 458 167 438 b 165 407 167 414 165 410 b 139 194 144 314 139 233 b 222 83 139 122 169 83 b 293 94 246 83 268 86 b 306 97 297 96 301 97 "},"j":{"ha":583,"x_min":0,"x_max":0,"o":"m 236 694 b 278 653 260 694 278 676 b 236 583 278 625 264 583 b 194 625 213 583 194 601 b 236 694 194 653 208 694 m 139 -347 b 167 -389 139 -375 157 -389 b 264 -194 196 -389 264 -326 b 258 -94 264 -162 261 -129 b 139 -347 188 -185 139 -279 m 244 17 b 194 417 224 147 194 286 b 236 458 194 439 214 458 b 278 417 258 458 278 439 b 317 92 278 317 299 204 b 463 215 368 142 419 186 b 486 222 469 221 478 222 b 528 181 507 222 528 204 b 510 146 528 167 521 154 b 332 -10 461 113 392 54 b 347 -194 340 -69 347 -135 b 167 -472 347 -340 276 -472 b 56 -347 93 -472 56 -403 b 244 17 56 -224 150 -89 "},"k":{"ha":653,"x_min":0,"x_max":0,"o":"m 556 111 b 597 69 578 111 597 93 b 472 0 597 18 507 0 b 267 224 351 0 293 143 b 264 236 265 228 264 232 b 306 278 264 257 281 278 b 344 249 324 278 339 265 b 472 83 374 163 426 83 b 531 103 493 83 510 88 b 556 111 538 108 547 111 m 139 917 b 181 875 164 917 181 896 b 179 867 181 872 179 869 b 139 417 153 732 139 567 b 150 275 139 374 143 325 b 439 458 204 381 289 438 l 444 458 b 486 417 467 458 486 442 b 450 375 486 396 471 378 b 269 301 358 363 303 335 b 179 114 232 264 207 210 b 139 83 174 96 157 83 b 99 113 118 83 103 97 b 56 417 76 188 56 314 b 99 883 56 572 69 740 b 139 917 103 903 119 917 "},"l":{"ha":569,"x_min":0,"x_max":0,"o":"m 208 292 b 167 333 186 292 167 311 b 179 363 167 344 171 354 b 319 681 283 467 319 581 b 264 792 319 757 281 792 b 189 707 236 792 217 775 b 139 319 160 633 139 483 b 278 83 139 181 179 83 b 443 168 333 83 378 103 b 472 181 451 176 461 181 b 514 139 494 181 514 161 b 501 110 514 128 510 118 b 278 0 428 36 361 0 b 56 319 99 0 56 181 b 111 738 56 489 74 644 b 264 875 139 808 181 875 b 403 681 358 875 403 771 b 238 304 403 558 356 422 b 208 292 229 296 219 292 "},"m":{"ha":1528,"x_min":0,"x_max":0,"o":"m 1431 125 b 1472 83 1453 125 1472 106 b 1460 54 1472 72 1468 63 b 1347 0 1428 22 1390 0 b 1222 167 1260 0 1222 76 b 1194 292 1222 288 1204 292 b 1076 164 1171 292 1136 253 b 889 0 1025 86 976 0 b 778 208 788 0 778 107 b 750 333 778 329 760 333 b 632 206 726 333 692 294 b 444 42 581 128 532 42 b 333 250 343 42 333 149 b 292 375 333 365 315 375 b 190 253 267 375 240 354 b 126 165 175 222 156 194 b 97 153 118 157 108 153 b 56 194 75 153 56 172 b 68 224 56 206 60 215 b 115 289 92 247 103 264 b 292 458 163 382 206 458 b 417 250 396 458 417 357 b 444 125 417 129 435 125 b 563 253 468 125 503 164 b 750 417 614 331 663 417 b 861 208 851 417 861 310 b 889 83 861 88 879 83 b 1007 211 913 83 947 122 b 1194 375 1058 289 1107 375 b 1306 167 1296 375 1306 268 b 1347 83 1306 90 1324 83 b 1401 113 1360 83 1378 89 b 1431 125 1410 121 1419 125 "},"n":{"ha":819,"x_min":0,"x_max":0,"o":"m 764 42 b 722 0 764 19 744 0 b 693 13 711 0 701 4 b 625 264 640 65 625 125 b 597 333 625 321 611 333 b 357 22 572 333 511 317 b 319 0 350 8 335 0 b 278 42 294 0 278 21 b 181 375 278 289 228 375 b 126 346 168 375 150 369 b 97 333 118 338 108 333 b 56 375 75 333 56 353 b 68 404 56 386 60 396 b 181 458 100 436 138 458 b 354 190 297 458 340 329 b 597 417 460 367 526 417 b 708 264 694 417 708 318 b 751 71 708 125 721 101 b 764 42 760 63 764 53 "},"o":{"ha":597,"x_min":0,"x_max":0,"o":"m 139 389 b 181 347 163 389 181 368 b 174 324 181 339 178 331 b 139 208 150 289 139 249 b 264 83 139 133 189 83 b 458 264 368 83 458 165 b 347 375 458 332 415 375 b 274 354 319 375 293 368 b 250 347 267 349 258 347 b 208 389 229 347 208 365 b 347 458 208 443 307 458 b 542 264 460 458 542 376 b 264 0 542 113 410 0 b 56 208 144 0 56 89 b 104 371 56 265 72 322 b 139 389 113 383 125 389 "},"p":{"ha":736,"x_min":0,"x_max":0,"o":"m 375 56 b 417 97 375 81 396 97 b 486 83 443 97 443 83 b 597 236 550 83 597 150 b 486 375 597 319 554 375 b 194 -433 381 375 236 200 b 153 -472 193 -456 174 -472 b 111 -431 128 -472 111 -449 b 60 260 111 -14 93 193 b 56 278 57 265 56 272 b 97 319 56 299 72 319 b 135 296 113 319 128 310 b 181 68 160 246 171 178 b 486 458 246 326 350 458 b 681 236 613 458 681 347 b 486 0 681 128 617 0 b 375 56 432 0 375 11 "},"q":{"ha":569,"x_min":0,"x_max":0,"o":"m 514 -431 b 472 -472 514 -451 497 -472 b 432 -439 453 -472 436 -458 b 403 -153 421 -381 403 -254 b 414 100 403 -61 407 28 b 194 0 347 40 275 0 b 56 153 104 0 56 75 b 347 458 56 300 194 458 b 483 360 407 458 464 419 b 486 347 485 356 486 351 b 444 306 486 326 469 306 b 406 335 426 306 411 318 b 347 375 397 358 371 375 b 139 153 250 375 139 256 b 194 83 139 106 160 83 b 440 249 269 83 357 147 b 472 264 449 258 460 264 b 514 222 497 264 514 243 b 513 214 514 219 513 217 b 486 -153 497 135 486 -3 b 513 -422 486 -246 501 -369 b 514 -431 513 -425 514 -428 "},"r":{"ha":722,"x_min":0,"x_max":0,"o":"m 153 264 b 111 222 153 243 136 222 b 56 319 71 222 56 274 b 292 458 56 419 190 458 b 472 283 382 458 456 397 b 569 83 494 131 528 83 b 625 97 607 83 599 97 b 667 56 647 97 667 78 b 569 0 667 19 633 0 b 389 272 444 0 408 133 b 292 375 378 353 340 375 b 139 319 249 375 139 358 b 153 264 139 310 153 285 "},"s":{"ha":764,"x_min":0,"x_max":0,"o":"m 97 0 b 56 42 74 0 56 21 b 63 64 56 50 58 57 b 514 458 188 257 357 458 b 708 236 629 458 708 336 b 472 0 708 106 596 0 b 361 39 406 0 365 35 b 347 69 351 47 347 58 b 389 111 347 93 367 111 b 472 83 424 111 418 83 b 625 236 551 83 625 153 b 514 375 625 303 565 375 b 132 19 421 375 257 215 b 97 0 124 7 111 0 "},"t":{"ha":542,"x_min":0,"x_max":0,"o":"m 139 833 b 181 792 164 833 181 813 b 179 783 181 789 179 786 b 139 333 153 649 139 483 b 150 192 139 290 143 242 b 439 375 204 297 289 354 l 444 375 b 486 333 467 375 486 358 b 450 292 486 313 471 294 b 269 218 358 279 303 251 b 179 31 232 181 207 126 b 139 0 174 13 157 0 b 99 29 118 0 103 14 b 56 333 76 104 56 231 b 99 800 56 489 69 657 b 139 833 103 819 119 833 "},"u":{"ha":778,"x_min":0,"x_max":0,"o":"m 682 125 b 722 83 704 125 722 104 b 713 57 722 74 718 64 b 597 0 708 53 668 0 b 453 147 510 0 471 82 b 250 0 417 74 354 0 b 56 208 128 0 56 94 b 72 347 56 297 71 342 b 111 375 79 365 94 375 b 153 333 136 375 153 354 b 139 208 153 311 139 299 b 250 83 139 128 178 83 b 431 381 392 83 429 358 b 472 417 433 399 450 417 b 514 375 494 417 514 397 b 597 83 514 243 539 83 b 682 125 643 83 644 125 "},"v":{"ha":722,"x_min":0,"x_max":0,"o":"m 667 361 b 625 319 667 340 650 319 b 588 343 610 319 594 329 b 556 375 575 368 564 375 b 469 263 535 375 499 335 b 236 0 431 167 372 0 b 56 333 97 0 56 208 b 97 375 56 356 74 375 b 139 338 118 375 136 358 b 236 83 154 183 189 83 b 392 293 294 83 347 181 b 556 458 418 360 465 458 b 663 379 617 458 647 410 b 667 361 665 374 667 367 "},"w":{"ha":1056,"x_min":0,"x_max":0,"o":"m 1000 250 b 958 208 1000 229 982 208 b 899 274 924 208 908 249 b 611 69 829 168 717 69 b 475 228 525 69 485 151 b 208 0 407 117 318 0 b 56 208 92 0 56 129 b 71 383 56 251 58 322 b 111 417 75 403 92 417 b 153 375 136 417 153 396 b 151 367 153 372 151 369 b 139 208 142 317 139 249 b 208 83 139 135 172 83 b 476 406 281 83 406 249 b 514 431 483 419 497 431 b 556 389 536 431 556 411 l 556 278 b 611 153 556 182 589 153 b 876 425 692 153 851 303 b 917 458 881 443 897 458 b 958 417 939 458 958 439 b 993 274 958 353 971 306 b 1000 250 997 267 1000 258 "},"x":{"ha":694,"x_min":0,"x_max":0,"o":"m 458 125 b 556 208 522 125 556 154 b 458 333 556 278 510 333 b 314 194 421 333 365 286 b 458 125 365 144 418 125 m 153 -154 b 111 -112 128 -154 111 -133 b 113 -103 111 -110 111 -106 b 214 182 135 -17 169 89 b 69 372 156 258 78 363 b 56 403 61 381 56 392 b 97 444 56 428 76 444 b 115 440 103 444 110 443 b 258 264 144 425 192 357 b 458 417 308 344 372 417 b 639 208 574 417 639 306 b 458 42 639 101 556 42 b 275 117 399 42 333 67 b 193 -122 240 38 211 -50 b 153 -154 189 -140 171 -154 "},"y":{"ha":847,"x_min":0,"x_max":0,"o":"m 417 -347 b 444 -389 417 -375 435 -389 b 528 -236 476 -389 528 -340 b 519 -103 528 -197 525 -151 b 417 -347 457 -187 417 -275 m 333 -347 b 506 11 333 -221 418 -92 b 468 226 494 83 481 161 b 250 42 426 133 354 42 b 56 250 128 42 56 136 l 56 263 b 111 417 56 313 58 417 b 153 375 136 417 153 396 b 151 367 153 372 151 369 b 139 250 140 313 139 290 b 250 125 139 169 178 125 b 431 418 332 125 425 283 b 472 458 432 439 449 458 b 513 425 492 458 508 444 b 578 89 528 351 556 222 b 726 215 631 140 682 185 b 750 222 733 221 742 222 b 792 181 771 222 792 204 b 774 146 792 167 785 154 b 593 -15 722 110 653 50 b 611 -236 603 -89 611 -171 b 444 -472 611 -354 551 -472 b 333 -347 371 -472 333 -403 "},"z":{"ha":681,"x_min":0,"x_max":0,"o":"m 333 -347 b 361 -389 333 -375 351 -389 b 458 -236 397 -389 458 -335 b 442 -151 458 -204 451 -176 b 333 -347 372 -226 333 -292 m 583 83 b 625 42 606 83 625 65 b 611 11 625 31 619 19 b 504 -87 574 -22 538 -56 b 542 -236 525 -128 542 -178 b 361 -472 542 -360 464 -472 b 250 -347 288 -472 250 -403 b 400 -74 250 -247 318 -158 b 333 83 371 -29 333 18 b 375 292 333 154 375 251 b 292 375 375 339 339 375 b 139 319 249 375 139 358 b 153 264 139 310 153 285 b 111 222 153 243 136 222 b 56 319 71 222 56 274 b 292 458 56 419 190 458 b 458 292 383 458 458 383 b 417 83 458 221 417 124 b 461 -15 417 57 433 26 b 556 72 492 14 524 43 b 583 83 564 79 574 83 "},"{":{"ha":472,"x_min":0,"x_max":0,"o":"m 417 -278 b 375 -319 417 -300 397 -319 b 153 97 193 -319 153 -132 b 97 153 153 131 131 153 b 56 194 75 153 56 172 b 222 764 56 336 222 397 b 264 806 222 786 242 806 b 306 764 286 806 306 786 b 147 228 306 442 181 304 b 236 97 200 208 236 157 b 375 -236 236 -146 279 -236 b 417 -278 397 -236 417 -256 "},"|":{"ha":236,"x_min":0,"x_max":0,"o":"m 139 875 b 181 833 164 875 181 854 b 179 825 181 831 179 828 b 153 415 165 757 160 610 b 139 -111 149 299 139 82 b 97 -153 139 -133 119 -153 b 56 -111 75 -153 56 -133 b 69 418 56 85 65 301 b 99 842 76 613 82 760 b 139 875 103 861 119 875 "},"}":{"ha":472,"x_min":0,"x_max":0,"o":"m 347 -222 b 307 -264 347 -243 332 -264 b 269 -244 292 -264 278 -257 b 208 0 265 -239 208 -136 b 283 269 208 79 224 192 b 167 458 210 304 167 374 b 208 778 167 567 208 692 b 153 833 208 811 186 833 b 96 819 114 833 122 819 b 56 861 75 819 56 838 b 74 896 56 874 61 888 b 153 917 79 900 107 917 b 292 778 231 917 292 856 b 250 458 292 669 250 544 b 375 333 250 383 300 333 b 417 292 396 333 417 317 b 392 253 417 275 407 260 b 292 0 325 224 292 96 b 347 -222 292 -133 347 -190 "},"~":{"ha":556,"x_min":0,"x_max":0,"o":"m 97 250 b 56 292 72 250 56 271 b 58 304 56 296 57 300 b 181 403 75 356 117 403 b 289 346 226 403 263 379 b 347 319 304 326 317 319 b 429 363 371 319 406 339 b 458 375 438 371 447 375 b 500 333 481 375 500 356 b 488 304 500 322 496 313 b 347 236 456 272 407 236 b 225 293 294 236 254 257 b 181 319 207 315 196 319 b 136 279 161 319 147 311 b 97 250 131 263 115 250 "}," ":{"ha":556,"x_min":0,"x_max":0,"o":""},"¡":{"ha":347,"x_min":0,"x_max":0,"o":"m 181 722 b 222 764 181 746 199 764 b 292 722 250 764 292 750 b 250 681 292 699 274 681 b 181 722 222 681 181 694 m 222 583 b 264 542 247 583 264 563 b 263 533 264 539 263 536 b 236 42 247 454 236 332 b 194 0 236 19 217 0 b 153 42 172 0 153 19 b 182 550 153 335 164 463 b 222 583 186 569 203 583 "},"¢":{"ha":556,"x_min":0,"x_max":0,"o":"m 292 764 b 333 722 314 764 333 744 b 322 583 333 706 329 656 b 417 528 363 581 417 569 b 375 486 417 503 396 486 b 357 490 369 486 363 488 b 315 500 344 497 334 499 b 297 211 309 418 302 318 b 435 271 338 217 377 232 b 458 278 442 275 450 278 b 500 236 479 278 500 260 b 482 201 500 222 494 210 b 294 127 411 154 354 134 b 292 -21 292 79 292 29 l 292 -69 b 250 -111 292 -92 272 -111 b 208 -69 228 -111 208 -92 l 208 -21 b 211 129 208 29 209 79 b 56 319 119 145 56 221 b 237 572 56 429 132 538 b 250 722 244 655 250 710 b 292 764 250 744 269 764 m 214 213 b 229 476 218 309 223 399 b 139 319 178 443 139 381 b 214 213 139 265 167 226 "},"£":{"ha":792,"x_min":0,"x_max":0,"o":"m 194 139 b 139 83 161 139 139 117 b 181 42 139 57 154 42 b 263 118 199 42 224 54 b 194 139 233 132 210 139 m 351 310 b 238 292 283 300 249 292 b 194 333 217 292 194 307 b 228 374 194 353 210 369 b 388 399 232 375 300 388 b 568 751 474 611 521 704 b 597 764 576 760 586 764 b 639 722 619 764 639 744 b 626 693 639 711 635 701 b 482 410 601 668 558 590 b 611 417 526 414 571 417 b 653 375 633 417 653 397 b 611 333 653 353 633 333 b 446 322 561 333 501 329 b 374 151 424 267 396 197 b 556 83 436 115 497 83 b 694 125 632 83 665 125 b 736 85 715 125 736 108 b 717 49 736 71 728 57 b 556 0 711 46 640 0 b 335 76 471 0 397 40 b 181 -42 293 6 246 -42 b 56 83 110 -42 56 13 b 194 222 56 161 117 222 b 300 192 232 222 267 208 b 351 310 315 225 333 265 "},"¤":{"ha":833,"x_min":0,"x_max":0,"o":"m 639 764 b 681 722 663 764 681 744 b 577 487 681 641 627 553 b 639 361 608 464 639 425 b 602 248 639 316 625 278 b 607 240 604 246 606 243 b 746 151 619 214 671 169 b 778 111 764 147 778 129 b 736 69 778 86 757 69 b 726 71 733 69 729 69 b 538 194 640 93 570 141 b 375 153 489 166 429 153 b 280 173 342 153 309 160 b 164 -44 243 118 198 36 b 125 -69 157 -60 142 -69 b 83 -28 100 -69 83 -49 b 86 -11 83 -22 83 -17 b 211 219 123 75 170 159 b 153 361 175 255 153 304 b 214 513 153 419 176 473 b 71 690 152 603 95 671 b 56 722 61 699 56 710 b 97 764 56 746 75 764 b 124 754 107 764 117 760 b 282 562 163 722 218 656 b 375 583 310 576 342 583 b 464 565 426 583 458 568 b 486 528 479 557 486 542 b 444 486 486 503 465 486 b 375 500 419 486 419 500 b 236 361 301 500 236 435 b 375 236 236 290 297 236 b 556 361 478 236 556 285 b 499 433 556 410 510 429 b 494 436 497 434 495 435 b 472 472 481 443 472 457 l 472 473 l 472 474 b 485 502 472 486 477 496 b 597 726 538 569 590 660 b 639 764 600 747 618 764 "},"¥":{"ha":681,"x_min":0,"x_max":0,"o":"m 111 181 b 150 222 111 201 128 221 b 281 231 196 226 239 229 b 286 316 283 262 284 291 b 104 306 204 314 134 310 l 97 306 b 56 347 76 306 56 322 b 90 389 56 367 69 386 b 271 400 126 395 194 398 b 114 707 216 499 144 631 b 111 722 113 713 111 717 b 153 764 111 743 128 764 b 192 738 169 764 185 754 b 333 460 217 675 281 554 b 547 742 400 560 521 692 b 583 764 554 756 568 764 b 625 722 608 764 625 743 b 619 703 625 715 622 708 b 397 402 583 635 455 487 b 556 403 453 403 508 403 b 597 361 578 403 597 383 b 556 319 597 339 578 319 b 369 318 501 319 434 319 b 365 234 367 295 366 266 b 514 236 419 236 469 236 b 556 194 536 236 556 217 b 514 153 556 172 536 153 b 362 150 469 153 418 152 b 361 42 362 115 361 77 b 319 0 361 19 342 0 b 278 42 297 0 278 19 b 279 147 278 77 278 112 b 156 139 239 145 198 142 l 153 139 b 111 181 131 139 111 157 "},"¦":{"ha":306,"x_min":0,"x_max":0,"o":"m 167 764 b 208 722 192 764 208 743 b 207 714 208 719 207 717 b 181 222 192 635 181 513 b 139 181 181 200 161 181 b 97 222 117 181 97 200 b 126 731 97 515 108 643 b 167 764 131 750 147 764 m 153 97 b 194 56 178 97 194 76 b 193 47 194 53 193 50 b 181 -278 186 15 181 -142 b 139 -319 181 -300 161 -319 b 97 -278 117 -319 97 -300 b 113 64 97 -136 103 13 b 153 97 117 83 133 97 "},"§":{"ha":556,"x_min":0,"x_max":0,"o":"m 417 208 b 268 333 417 247 364 281 b 167 222 213 328 167 279 b 258 99 167 189 193 135 b 417 208 303 106 417 160 m 97 -319 b 56 -278 76 -319 56 -303 b 85 -237 56 -260 67 -243 b 347 -83 274 -179 347 -126 b 232 18 347 -58 317 -25 b 83 222 138 65 83 147 b 183 392 83 294 124 358 b 111 556 139 433 111 486 b 333 764 111 679 217 764 b 486 639 404 764 486 708 b 444 597 486 618 469 597 b 404 631 425 597 408 611 b 333 681 400 650 369 681 b 194 556 256 681 194 626 b 299 411 194 492 226 451 b 500 208 382 365 500 318 b 357 40 500 122 426 69 b 431 -83 400 8 431 -31 b 110 -318 431 -207 282 -265 b 97 -319 106 -319 101 -319 "},"¨":{"ha":583,"x_min":0,"x_max":0,"o":"m 444 764 b 486 722 468 764 486 746 b 444 653 486 694 472 653 b 403 694 421 653 403 671 b 444 764 403 722 417 764 m 97 667 b 139 708 97 690 115 708 b 208 667 167 708 208 694 b 167 625 208 643 190 625 b 97 667 139 625 97 639 "},"©":{"ha":875,"x_min":0,"x_max":0,"o":"m 528 354 b 486 313 528 331 507 313 b 463 319 478 313 469 315 b 417 333 447 329 438 333 b 333 250 369 333 333 297 b 417 181 333 208 364 181 b 515 213 481 181 508 206 b 542 222 522 218 532 222 b 583 181 564 222 583 203 b 572 151 583 171 581 160 b 417 97 567 146 515 97 b 250 250 331 97 250 153 b 417 417 250 342 325 417 b 528 354 458 417 528 400 m 319 556 b 278 596 299 556 278 572 b 293 631 278 608 283 622 b 472 681 300 636 364 681 b 819 333 675 681 819 536 b 389 -83 819 113 606 -83 b 56 208 208 -83 56 14 b 190 468 56 332 117 432 b 208 472 196 471 203 472 b 250 431 229 472 250 456 b 226 393 250 415 240 400 b 139 208 189 374 139 307 b 389 0 139 69 236 0 b 736 333 561 0 736 165 b 472 597 736 492 631 597 b 319 556 365 597 360 556 "},"ª":{"ha":528,"x_min":0,"x_max":0,"o":"m 139 361 b 97 403 118 361 97 378 b 131 443 97 422 111 439 b 389 458 193 456 290 458 b 431 417 411 458 431 439 b 389 375 431 394 411 375 b 147 363 293 375 196 372 b 139 361 144 363 142 361 m 279 764 b 222 778 254 764 260 778 b 139 681 182 778 139 732 b 194 625 139 647 161 625 b 292 699 251 625 289 667 b 333 736 293 718 311 736 b 375 699 354 736 372 719 b 431 625 379 653 407 625 b 472 583 453 625 472 606 b 431 542 472 561 453 542 b 328 596 385 542 350 567 b 194 542 294 563 249 542 b 56 681 117 542 56 603 b 222 861 56 768 124 861 b 301 840 268 861 296 844 b 319 806 314 832 319 818 b 279 764 319 782 300 764 "},"«":{"ha":889,"x_min":0,"x_max":0,"o":"m 486 0 b 444 -42 486 -24 465 -42 b 421 -33 436 -42 428 -39 b 154 114 326 35 231 89 b 56 229 117 126 56 158 b 114 332 56 274 81 307 b 368 494 172 375 269 438 b 389 500 375 499 382 500 b 431 458 410 500 431 483 b 410 422 431 444 424 429 b 164 265 314 368 217 306 b 139 229 142 249 139 240 b 179 192 139 217 150 201 b 468 33 269 161 368 104 b 486 0 479 25 486 13 m 833 42 b 792 0 833 17 813 0 b 776 3 786 0 782 1 b 572 94 706 31 615 72 b 472 215 533 114 472 144 b 532 319 472 258 494 294 b 708 449 581 353 663 410 b 736 458 717 456 726 458 b 778 417 758 458 778 440 b 764 385 778 404 774 393 b 579 250 713 340 631 283 b 556 215 558 236 556 228 b 608 169 556 203 564 192 b 807 81 649 150 739 108 b 833 42 824 74 833 58 "},"¬":{"ha":569,"x_min":0,"x_max":0,"o":"m 97 340 b 56 382 76 340 56 357 b 89 422 56 401 71 418 b 375 458 94 424 283 458 b 500 333 446 458 500 404 b 488 63 500 281 488 108 b 514 0 488 24 514 31 b 472 -42 514 -22 494 -42 b 447 -33 464 -42 456 -39 b 404 63 442 -29 404 1 b 417 333 404 114 417 289 b 375 375 417 360 401 375 b 97 340 292 375 104 340 "},"­":{"ha":444,"x_min":0,"x_max":0,"o":"m 97 181 b 56 222 76 181 56 197 b 89 263 56 242 69 258 b 347 278 151 275 249 278 b 389 236 369 278 389 258 b 347 194 389 214 369 194 b 106 182 251 194 154 192 b 97 181 103 182 100 181 "},"®":{"ha":889,"x_min":0,"x_max":0,"o":"m 833 292 b 389 -194 833 -26 611 -194 b 56 181 167 -194 56 -28 b 486 653 56 408 249 653 b 833 292 692 653 833 492 m 583 139 b 750 292 647 139 750 208 b 486 569 750 453 642 569 b 139 181 307 569 139 369 b 389 -111 139 0 222 -111 b 711 96 518 -111 649 -42 b 583 56 672 72 628 56 b 374 165 493 56 417 122 b 361 194 367 172 361 182 b 394 235 361 214 375 231 b 542 319 497 257 542 290 b 486 375 542 353 519 375 b 333 42 382 375 333 203 b 292 0 333 19 314 0 b 250 42 269 0 250 19 b 486 458 250 186 285 458 b 625 319 564 458 625 397 b 490 175 625 239 554 197 b 583 139 524 153 556 139 "},"¯":{"ha":556,"x_min":0,"x_max":0,"o":"m 56 708 b 94 750 56 729 72 749 b 458 764 235 761 360 764 b 500 722 481 764 500 744 b 458 681 500 700 481 681 b 100 667 363 681 238 678 l 97 667 b 56 708 75 667 56 685 "},"°":{"ha":417,"x_min":0,"x_max":0,"o":"m 181 847 b 139 764 181 807 139 819 b 194 708 139 731 161 708 b 278 778 247 708 278 736 b 222 833 278 811 256 833 b 181 875 200 833 181 853 b 222 917 181 897 200 917 b 361 778 300 917 361 856 b 194 625 361 681 281 625 b 56 764 117 625 56 686 b 117 882 56 842 113 879 b 139 889 124 886 132 889 b 181 847 160 889 181 871 "},"±":{"ha":556,"x_min":0,"x_max":0,"o":"m 56 -14 b 94 28 56 7 72 26 b 458 42 235 39 360 42 b 500 0 481 42 500 22 b 458 -42 500 -22 481 -42 b 100 -56 363 -42 238 -44 l 97 -56 b 56 -14 75 -56 56 -37 m 347 153 b 306 111 347 132 331 111 b 265 144 286 111 269 125 b 249 257 261 165 254 206 b 111 250 199 253 151 250 b 69 292 89 250 69 269 b 111 333 69 314 89 333 b 242 340 149 333 194 336 b 236 486 239 386 236 438 b 278 528 236 508 256 528 b 319 486 300 528 319 508 b 325 351 319 442 322 396 b 432 374 367 358 404 365 b 444 375 436 375 440 375 b 486 333 465 375 486 358 b 457 293 486 315 475 299 b 332 268 422 283 378 275 b 347 153 338 211 347 178 "},"²":{"ha":361,"x_min":0,"x_max":0,"o":"m 97 722 b 56 764 75 722 56 742 b 68 793 56 775 60 785 b 167 833 72 797 107 833 b 292 708 238 833 292 779 b 208 572 292 643 242 601 b 153 500 172 540 153 518 b 208 458 153 471 169 458 l 292 458 b 333 417 314 458 333 439 b 292 375 333 394 314 375 l 208 375 b 69 500 147 375 69 410 b 153 636 69 565 119 607 b 208 708 189 668 208 690 b 167 750 208 735 193 750 b 97 722 125 750 129 722 "},"³":{"ha":333,"x_min":0,"x_max":0,"o":"m 56 444 b 96 486 56 467 74 486 b 174 458 129 486 126 458 b 222 493 208 458 222 475 b 197 525 222 507 218 515 b 132 625 164 542 132 578 b 185 722 132 668 154 703 b 208 757 201 733 208 742 b 174 792 208 779 196 792 b 111 764 136 792 142 764 b 69 806 88 764 69 785 b 78 831 69 814 72 822 b 174 875 82 836 113 875 b 292 757 240 875 292 824 b 232 653 292 703 257 669 b 215 625 221 644 215 638 b 233 600 215 617 222 606 b 306 493 268 582 306 549 b 174 375 306 414 236 375 b 68 415 117 375 81 403 b 56 444 60 424 56 433 "},"´":{"ha":319,"x_min":0,"x_max":0,"o":"m 222 875 b 264 833 246 875 264 856 b 129 557 264 735 183 625 b 97 542 121 547 110 542 b 56 583 74 542 56 561 b 65 610 56 593 60 603 b 181 838 119 676 174 769 b 222 875 183 858 201 875 "},"µ":{"ha":889,"x_min":0,"x_max":0,"o":"m 97 -472 b 56 -431 74 -472 56 -451 b 64 -407 56 -422 58 -414 b 153 375 118 -331 153 0 b 194 417 153 397 172 417 b 235 385 215 417 232 399 b 389 83 292 142 346 83 b 556 421 464 83 540 274 b 597 458 558 442 576 458 b 639 418 622 458 638 435 b 722 125 647 261 696 125 b 792 153 761 125 760 153 b 833 111 814 153 833 133 b 822 82 833 101 831 90 b 722 42 818 78 783 42 b 588 197 642 42 607 128 b 389 0 553 106 493 0 b 232 125 319 0 269 49 b 131 -454 221 -142 197 -361 b 97 -472 122 -465 110 -472 "},"¶":{"ha":597,"x_min":0,"x_max":0,"o":"m 542 693 b 514 0 542 647 514 151 b 472 -42 514 -22 494 -42 b 431 0 450 -42 431 -22 b 444 379 431 75 438 233 b 354 346 414 364 383 353 b 347 42 350 257 347 153 b 306 0 347 19 328 0 b 264 42 283 0 264 19 b 271 333 264 147 267 246 l 250 333 b 56 528 138 333 56 415 b 347 764 56 631 153 764 b 513 735 399 764 456 751 b 542 693 531 729 542 713 m 360 433 b 449 479 388 443 417 457 b 457 663 453 558 456 625 b 375 679 428 671 400 676 b 360 433 375 651 367 561 m 275 417 b 292 675 282 551 290 647 b 139 528 181 654 139 574 b 250 417 139 460 182 417 "},"·":{"ha":222,"x_min":0,"x_max":0,"o":"m 56 278 b 97 319 56 301 74 319 b 167 278 125 319 167 306 b 125 236 167 254 149 236 b 56 278 97 236 56 250 "},"¸":{"ha":333,"x_min":0,"x_max":0,"o":"m 97 -278 b 56 -236 76 -278 56 -261 b 85 -197 56 -218 68 -203 b 194 -111 167 -169 194 -135 b 185 -81 194 -106 193 -97 b 167 0 171 -54 167 -26 b 208 42 167 22 186 42 b 250 0 231 42 250 22 b 278 -111 250 -42 278 -74 b 110 -275 278 -199 194 -247 b 97 -278 106 -276 101 -278 "},"¹":{"ha":208,"x_min":0,"x_max":0,"o":"m 111 792 b 153 750 136 792 153 771 b 151 742 153 747 151 744 b 139 417 144 710 139 553 b 97 375 139 394 119 375 b 56 417 75 375 56 394 b 71 758 56 558 61 707 b 111 792 75 778 92 792 "},"º":{"ha":444,"x_min":0,"x_max":0,"o":"m 194 847 b 153 764 194 807 153 819 b 208 708 153 731 175 708 b 292 778 261 708 292 736 b 236 833 292 811 269 833 b 194 875 214 833 194 853 b 236 917 194 897 214 917 b 375 778 314 917 375 856 b 208 625 375 681 294 625 b 69 764 131 625 69 686 b 131 882 69 842 126 879 b 153 889 138 886 146 889 b 194 847 174 889 194 871 m 97 444 b 56 486 76 444 56 461 b 89 526 56 506 69 522 b 347 542 151 539 249 542 b 389 500 369 542 389 522 b 347 458 389 478 369 458 b 106 446 251 458 154 456 b 97 444 103 446 100 444 "},"»":{"ha":944,"x_min":0,"x_max":0,"o":"m 153 0 b 111 42 131 0 111 18 b 128 75 111 54 117 67 b 344 199 199 128 279 171 b 375 229 371 210 375 217 b 351 264 375 240 372 249 b 89 376 288 308 179 357 b 56 417 69 381 56 397 b 97 458 56 442 76 458 b 106 457 100 458 103 457 b 399 333 210 435 324 386 b 458 229 433 310 458 274 b 378 121 458 172 418 138 b 178 8 318 96 240 56 b 153 0 171 3 161 0 m 472 -42 b 431 0 451 -42 431 -25 b 451 36 431 14 438 29 b 790 208 550 93 717 179 b 806 229 803 213 806 221 b 782 264 806 238 801 250 b 461 418 718 308 550 393 b 431 458 443 424 431 440 b 472 500 431 483 451 500 b 483 499 476 500 479 500 b 829 333 589 468 754 386 b 889 229 865 308 889 271 b 821 131 889 188 864 149 b 493 -36 756 104 589 18 b 472 -42 486 -40 479 -42 "},"¼":{"ha":778,"x_min":0,"x_max":0,"o":"m 444 500 b 486 458 469 500 486 479 b 481 438 486 451 485 444 b 235 -137 344 206 276 0 b 194 -167 229 -156 213 -167 b 153 -125 169 -167 153 -146 b 154 -112 153 -121 153 -117 b 408 479 196 28 267 239 b 444 500 417 492 431 500 m 599 139 b 639 97 621 139 639 118 b 556 -97 639 56 556 6 b 597 -139 556 -124 571 -139 b 669 -69 643 -139 667 -81 b 708 -42 676 -51 692 -42 b 750 -85 735 -42 750 -64 b 736 -181 750 -118 736 -139 b 749 -265 736 -201 740 -239 b 750 -278 750 -269 750 -274 b 708 -319 750 -299 733 -319 b 654 -210 661 -319 657 -250 b 597 -222 639 -217 618 -222 b 472 -97 526 -222 472 -168 b 567 125 472 21 564 121 b 599 139 575 133 586 139 m 111 792 b 153 750 136 792 153 771 b 151 742 153 747 151 744 b 139 417 144 710 139 553 b 97 375 139 394 119 375 b 56 417 75 375 56 394 b 71 758 56 558 61 707 b 111 792 75 778 92 792 "},"½":{"ha":792,"x_min":0,"x_max":0,"o":"m 444 500 b 486 458 469 500 486 479 b 481 438 486 451 485 444 b 235 -137 344 206 276 0 b 194 -167 229 -156 213 -167 b 153 -125 169 -167 153 -146 b 154 -112 153 -121 153 -117 b 408 479 196 28 267 239 b 444 500 417 492 431 500 m 528 31 b 486 72 506 31 486 50 b 499 101 486 83 490 93 b 597 142 503 106 538 142 b 722 17 668 142 722 88 b 639 -119 722 -49 672 -90 b 583 -192 603 -151 583 -174 b 639 -233 583 -221 600 -233 l 722 -233 b 764 -275 744 -233 764 -253 b 722 -317 764 -297 744 -317 l 639 -317 b 500 -192 578 -317 500 -282 b 583 -56 500 -126 550 -85 b 639 17 619 -24 639 -1 b 597 58 639 43 624 58 b 528 31 556 58 560 31 m 111 792 b 153 750 136 792 153 771 b 151 742 153 747 151 744 b 139 417 144 710 139 553 b 97 375 139 394 119 375 b 56 417 75 375 56 394 b 71 758 56 558 61 707 b 111 792 75 778 92 792 "},"¾":{"ha":875,"x_min":0,"x_max":0,"o":"m 542 500 b 583 458 567 500 583 479 b 578 438 583 451 582 444 b 332 -137 442 206 374 0 b 292 -167 326 -156 310 -167 b 250 -125 267 -167 250 -146 b 251 -112 250 -121 250 -117 b 506 479 293 28 364 239 b 542 500 514 492 528 500 m 696 139 b 736 97 718 139 736 118 b 653 -97 736 56 653 6 b 694 -139 653 -124 668 -139 b 767 -69 740 -139 764 -81 b 806 -42 774 -51 789 -42 b 847 -85 832 -42 847 -64 b 833 -181 847 -118 833 -139 b 846 -265 833 -201 838 -239 b 847 -278 847 -269 847 -274 b 806 -319 847 -299 831 -319 b 751 -210 758 -319 754 -250 b 694 -222 736 -217 715 -222 b 569 -97 624 -222 569 -168 b 664 125 569 21 661 121 b 696 139 672 133 683 139 m 56 444 b 96 486 56 467 74 486 b 174 458 129 486 126 458 b 222 493 208 458 222 475 b 197 525 222 507 218 515 b 132 625 164 542 132 578 b 185 722 132 668 154 703 b 208 757 201 733 208 742 b 174 792 208 779 196 792 b 111 764 136 792 142 764 b 69 806 88 764 69 785 b 78 831 69 814 72 822 b 174 875 82 836 113 875 b 292 757 240 875 292 824 b 232 653 292 703 257 669 b 215 625 221 644 215 638 b 233 600 215 617 222 606 b 306 493 268 582 306 549 b 174 375 306 414 236 375 b 68 415 117 375 81 403 b 56 444 60 424 56 433 "},"¿":{"ha":514,"x_min":0,"x_max":0,"o":"m 250 458 b 292 417 274 458 292 440 b 250 347 292 389 278 347 b 208 389 226 347 208 365 b 250 458 208 417 222 458 m 208 182 b 250 222 208 204 228 222 b 279 211 261 222 271 218 b 319 97 286 204 319 167 b 226 -101 319 18 269 -46 b 139 -264 178 -165 139 -219 b 264 -389 139 -339 189 -389 b 417 -347 371 -389 378 -347 b 458 -389 439 -347 458 -365 b 443 -422 458 -401 454 -414 b 264 -472 438 -426 374 -472 b 56 -264 144 -472 56 -383 b 160 -51 56 -178 114 -110 b 236 97 203 7 236 57 b 208 182 236 160 208 143 "},"À":{"ha":694,"x_min":0,"x_max":0,"o":"m 167 875 b 208 917 167 896 183 917 b 246 893 224 917 239 907 b 385 804 258 867 310 822 b 417 764 403 800 417 782 b 375 722 417 739 396 722 b 365 724 372 722 368 722 b 171 857 274 747 200 800 b 167 875 168 863 167 869 m 97 0 b 56 42 72 0 56 21 b 57 50 56 44 57 47 b 169 504 85 188 119 368 b 333 694 210 611 247 694 b 485 501 428 694 458 594 b 514 378 494 465 506 422 b 597 383 543 382 572 383 b 639 342 619 383 639 364 b 597 300 639 319 619 300 b 528 296 578 300 553 299 b 542 129 536 239 542 182 b 431 0 542 78 513 0 b 250 204 326 0 250 124 b 432 363 250 301 353 343 b 404 479 424 404 414 444 b 333 611 375 586 350 611 b 247 476 317 611 290 594 b 138 33 200 351 165 171 b 97 0 133 14 117 0 m 333 204 b 431 83 333 160 396 83 b 458 129 446 83 458 94 b 446 281 458 175 453 228 b 333 204 368 260 333 226 "},"Á":{"ha":694,"x_min":0,"x_max":0,"o":"m 236 722 b 194 764 215 722 194 739 b 228 804 194 783 208 800 b 429 904 317 822 394 869 b 458 917 438 913 447 917 b 500 875 481 917 500 897 b 488 846 500 864 496 854 b 244 724 439 797 350 744 b 236 722 242 724 239 722 m 97 0 b 56 42 72 0 56 21 b 57 50 56 44 57 47 b 169 504 85 188 119 368 b 333 694 210 611 247 694 b 485 501 428 694 458 594 b 514 378 494 465 506 422 b 597 383 543 382 572 383 b 639 342 619 383 639 364 b 597 300 639 319 619 300 b 528 296 578 300 553 299 b 542 129 536 239 542 182 b 431 0 542 78 513 0 b 250 204 326 0 250 124 b 432 363 250 301 353 343 b 404 479 424 404 414 444 b 333 611 375 586 350 611 b 247 476 317 611 290 594 b 138 33 200 351 165 171 b 97 0 133 14 117 0 m 333 204 b 431 83 333 160 396 83 b 458 129 446 83 458 94 b 446 281 458 175 453 228 b 333 204 368 260 333 226 "},"Â":{"ha":694,"x_min":0,"x_max":0,"o":"m 97 0 b 56 42 72 0 56 21 b 57 50 56 44 57 47 b 169 504 85 188 119 368 b 333 694 210 611 247 694 b 485 501 428 694 458 594 b 514 378 494 465 506 422 b 597 383 543 382 572 383 b 639 342 619 383 639 364 b 597 300 639 319 619 300 b 528 296 578 300 553 299 b 542 129 536 239 542 182 b 431 0 542 78 513 0 b 250 204 326 0 250 124 b 432 363 250 301 353 343 b 404 479 424 404 414 444 b 333 611 375 586 350 611 b 247 476 317 611 290 594 b 138 33 200 351 165 171 b 97 0 133 14 117 0 m 333 204 b 431 83 333 160 396 83 b 458 129 446 83 458 94 b 446 281 458 175 453 228 b 333 204 368 260 333 226 m 250 750 b 208 792 225 750 208 771 b 215 814 208 799 211 807 b 347 917 250 869 286 917 b 469 792 424 917 451 843 b 472 778 471 788 472 782 b 431 736 472 757 456 736 b 392 764 414 736 397 747 b 347 833 371 824 354 833 b 285 769 339 833 319 825 b 250 750 276 757 264 750 "},"Ã":{"ha":694,"x_min":0,"x_max":0,"o":"m 139 764 b 97 806 114 764 97 785 b 100 818 97 810 99 814 b 222 917 117 869 158 917 b 331 860 268 917 304 893 b 389 833 346 840 358 833 b 471 876 413 833 447 853 b 500 889 479 885 489 889 b 542 847 522 889 542 869 b 529 818 542 836 538 826 b 389 750 497 786 449 750 b 267 807 336 750 296 771 b 222 833 249 829 238 833 b 178 793 203 833 189 825 b 139 764 172 776 157 764 m 97 0 b 56 42 72 0 56 21 b 57 50 56 44 57 47 b 169 504 85 188 119 368 b 333 694 210 611 247 694 b 485 501 428 694 458 594 b 514 378 494 465 506 422 b 597 383 543 382 572 383 b 639 342 619 383 639 364 b 597 300 639 319 619 300 b 528 296 578 300 553 299 b 542 129 536 239 542 182 b 431 0 542 78 513 0 b 250 204 326 0 250 124 b 432 363 250 301 353 343 b 404 479 424 404 414 444 b 333 611 375 586 350 611 b 247 476 317 611 290 594 b 138 33 200 351 165 171 b 97 0 133 14 117 0 m 333 204 b 431 83 333 160 396 83 b 458 129 446 83 458 94 b 446 281 458 175 453 228 b 333 204 368 260 333 226 "},"Ä":{"ha":694,"x_min":0,"x_max":0,"o":"m 458 917 b 500 847 486 917 500 875 b 458 806 500 824 482 806 b 417 875 435 806 417 851 b 458 917 417 899 435 917 m 167 875 b 208 917 167 899 185 917 b 278 875 236 917 278 903 b 236 833 278 851 260 833 b 167 875 208 833 167 847 m 97 0 b 56 42 72 0 56 21 b 57 50 56 44 57 47 b 169 504 85 188 119 368 b 333 694 210 611 247 694 b 485 501 428 694 458 594 b 514 378 494 465 506 422 b 597 383 543 382 572 383 b 639 342 619 383 639 364 b 597 300 639 319 619 300 b 528 296 578 300 553 299 b 542 129 536 239 542 182 b 431 0 542 78 513 0 b 250 204 326 0 250 124 b 432 363 250 301 353 343 b 404 479 424 404 414 444 b 333 611 375 586 350 611 b 247 476 317 611 290 594 b 138 33 200 351 165 171 b 97 0 133 14 117 0 m 333 204 b 431 83 333 160 396 83 b 458 129 446 83 458 94 b 446 281 458 175 453 228 b 333 204 368 260 333 226 "},"Å":{"ha":694,"x_min":0,"x_max":0,"o":"m 97 0 b 56 42 72 0 56 21 b 57 50 56 44 57 47 b 169 504 85 188 119 368 b 262 670 196 576 222 637 b 194 778 224 689 194 726 b 333 917 194 853 258 917 b 472 792 400 917 472 874 b 401 671 472 741 443 696 b 485 501 445 636 466 567 b 514 378 494 465 506 422 b 597 383 543 382 572 383 b 639 342 619 383 639 364 b 597 300 639 319 619 300 b 528 296 578 300 553 299 b 542 129 536 239 542 182 b 431 0 542 78 513 0 b 250 204 326 0 250 124 b 432 363 250 301 353 343 b 404 479 424 404 414 444 b 333 611 375 586 350 611 b 247 476 317 611 290 594 b 138 33 200 351 165 171 b 97 0 133 14 117 0 m 333 204 b 431 83 333 160 396 83 b 458 129 446 83 458 94 b 446 281 458 175 453 228 b 333 204 368 260 333 226 m 278 778 b 333 736 278 757 297 736 b 389 792 361 736 389 764 b 333 833 389 813 369 833 b 278 778 306 833 278 806 "},"Æ":{"ha":1069,"x_min":0,"x_max":0,"o":"m 972 121 b 1014 79 993 121 1014 104 b 988 40 1014 63 1004 47 b 792 0 921 14 853 0 b 542 108 685 0 601 43 b 431 0 538 50 494 0 b 264 167 336 0 264 82 b 431 363 264 256 347 318 b 404 479 422 406 414 446 b 333 611 375 586 350 611 b 247 476 313 611 292 594 b 138 33 200 351 165 171 b 97 0 133 14 117 0 b 56 42 72 0 56 21 b 57 50 56 44 57 47 b 169 504 85 188 119 368 b 333 694 208 610 243 694 b 468 558 408 694 444 631 b 681 694 510 635 582 694 b 819 565 754 694 819 642 b 778 524 819 543 800 524 b 736 565 756 524 736 543 b 681 611 736 589 718 611 b 514 415 586 611 514 513 l 514 400 b 778 457 606 435 706 457 b 819 415 800 457 819 438 b 778 374 819 393 800 374 b 525 315 717 374 614 351 b 792 83 556 185 650 83 b 957 118 842 83 899 94 b 972 121 963 119 967 121 m 347 167 b 431 83 347 126 386 83 b 458 117 447 83 458 92 b 446 276 458 164 454 221 b 347 167 379 236 347 194 "},"Ç":{"ha":625,"x_min":0,"x_max":0,"o":"m 236 -278 b 194 -236 215 -278 194 -261 b 224 -197 194 -218 207 -203 b 333 -111 306 -169 333 -135 b 324 -81 333 -106 332 -97 b 306 0 310 -54 306 -26 l 306 0 b 56 306 145 8 56 157 b 403 764 56 508 171 764 b 542 694 442 764 542 751 b 500 653 542 671 522 653 b 475 661 492 653 482 656 b 403 681 457 675 432 681 b 139 306 246 681 139 492 b 319 83 139 181 211 83 b 503 144 408 83 451 106 b 528 153 510 150 519 153 b 569 111 550 153 569 135 b 553 78 569 99 564 86 b 389 5 507 44 457 16 b 389 0 389 4 389 2 b 417 -111 389 -42 417 -74 b 249 -275 417 -199 333 -247 b 236 -278 244 -276 240 -278 "},"È":{"ha":653,"x_min":0,"x_max":0,"o":"m 181 875 b 222 917 181 896 197 917 b 260 893 238 917 253 907 b 399 804 272 867 324 822 b 431 764 417 800 431 782 b 389 722 431 739 410 722 b 379 724 386 722 382 722 b 185 857 288 747 214 800 b 181 875 182 863 181 869 m 556 146 b 597 104 576 146 597 129 b 576 68 597 90 589 76 b 236 0 524 36 396 0 b 56 192 113 0 56 89 b 111 621 56 386 108 599 b 142 656 113 635 125 651 b 556 694 210 675 318 694 b 597 653 578 694 597 675 b 556 611 597 631 578 611 b 189 582 351 611 249 596 b 157 406 182 546 168 482 b 347 419 199 413 263 419 l 361 419 b 514 365 415 419 514 417 b 472 324 514 340 493 324 l 465 324 b 347 336 418 332 386 336 b 146 318 247 336 179 325 b 139 192 142 276 139 233 b 236 83 139 119 165 83 b 535 140 382 83 504 122 b 556 146 542 144 549 146 "},"É":{"ha":653,"x_min":0,"x_max":0,"o":"m 250 722 b 208 764 229 722 208 739 b 242 804 208 783 222 800 b 443 904 331 822 408 869 b 472 917 451 913 461 917 b 514 875 494 917 514 897 b 501 846 514 864 510 854 b 258 724 453 797 364 744 b 250 722 256 724 253 722 m 556 146 b 597 104 576 146 597 129 b 576 68 597 90 589 76 b 236 0 524 36 396 0 b 56 192 113 0 56 89 b 111 621 56 386 108 599 b 142 656 113 635 125 651 b 556 694 210 675 318 694 b 597 653 578 694 597 675 b 556 611 597 631 578 611 b 189 582 351 611 249 596 b 157 406 182 546 168 482 b 347 419 199 413 263 419 l 361 419 b 514 365 415 419 514 417 b 472 324 514 340 493 324 l 465 324 b 347 336 418 332 386 336 b 146 318 247 336 179 325 b 139 192 142 276 139 233 b 236 83 139 119 165 83 b 535 140 382 83 504 122 b 556 146 542 144 549 146 "},"Ê":{"ha":653,"x_min":0,"x_max":0,"o":"m 556 146 b 597 104 576 146 597 129 b 576 68 597 90 589 76 b 236 0 524 36 396 0 b 56 192 113 0 56 89 b 111 621 56 386 108 599 b 142 656 113 635 125 651 b 556 694 210 675 318 694 b 597 653 578 694 597 675 b 556 611 597 631 578 611 b 189 582 351 611 249 596 b 157 406 182 546 168 482 b 347 419 199 413 263 419 l 361 419 b 514 365 415 419 514 417 b 472 324 514 340 493 324 l 465 324 b 347 336 418 332 386 336 b 146 318 247 336 179 325 b 139 192 142 276 139 233 b 236 83 139 119 165 83 b 535 140 382 83 504 122 b 556 146 542 144 549 146 m 264 750 b 222 792 239 750 222 771 b 229 814 222 799 225 807 b 361 917 264 869 300 917 b 483 792 438 917 465 843 b 486 778 485 788 486 782 b 444 736 486 757 469 736 b 406 764 428 736 411 747 b 361 833 385 824 368 833 b 299 769 353 833 333 825 b 264 750 290 757 278 750 "},"Ë":{"ha":653,"x_min":0,"x_max":0,"o":"m 500 917 b 542 875 524 917 542 899 b 500 806 542 847 528 806 b 458 847 476 806 458 824 b 500 917 458 875 472 917 m 153 819 b 194 861 153 843 171 861 b 264 819 222 861 264 847 b 222 778 264 796 246 778 b 153 819 194 778 153 792 m 556 146 b 597 104 576 146 597 129 b 576 68 597 90 589 76 b 236 0 524 36 396 0 b 56 192 113 0 56 89 b 111 621 56 386 108 599 b 142 656 113 635 125 651 b 556 694 210 675 318 694 b 597 653 578 694 597 675 b 556 611 597 631 578 611 b 189 582 351 611 249 596 b 157 406 182 546 168 482 b 347 419 199 413 263 419 l 361 419 b 514 365 415 419 514 417 b 472 324 514 340 493 324 l 465 324 b 347 336 418 332 386 336 b 146 318 247 336 179 325 b 139 192 142 276 139 233 b 236 83 139 119 165 83 b 535 140 382 83 504 122 b 556 146 542 144 549 146 "},"Ì":{"ha":333,"x_min":0,"x_max":0,"o":"m 0 875 b 42 917 0 896 17 917 b 79 893 57 917 72 907 b 218 804 92 867 143 822 b 250 764 236 800 250 782 b 208 722 250 739 229 722 b 199 724 206 722 201 722 b 4 857 107 747 33 800 b 0 875 1 863 0 869 m 208 42 b 167 0 208 21 192 0 b 126 33 147 0 131 14 b 111 250 114 93 111 153 b 125 653 111 350 125 586 b 167 694 125 675 144 694 b 208 653 189 694 208 675 b 194 250 208 581 194 344 b 207 50 194 153 197 101 b 208 42 207 47 208 44 "},"Í":{"ha":333,"x_min":0,"x_max":0,"o":"m 125 694 b 83 736 103 694 83 713 b 100 769 83 749 89 761 b 229 899 151 808 211 872 b 264 917 238 911 250 917 b 306 875 288 917 306 896 b 299 851 306 867 303 858 b 150 703 272 811 210 747 b 125 694 143 697 133 694 m 208 42 b 167 0 208 21 192 0 b 126 33 147 0 131 14 b 111 250 114 93 111 153 b 125 653 111 350 125 586 b 167 694 125 675 144 694 b 208 653 189 694 208 675 b 194 250 208 581 194 344 b 207 50 194 153 197 101 b 208 42 207 47 208 44 "},"Î":{"ha":333,"x_min":0,"x_max":0,"o":"m 208 42 b 167 0 208 21 192 0 b 126 33 147 0 131 14 b 111 250 114 93 111 153 b 125 653 111 350 125 586 b 167 694 125 675 144 694 b 208 653 189 694 208 675 b 194 250 208 581 194 344 b 207 50 194 153 197 101 b 208 42 207 47 208 44 m 83 750 b 42 792 58 750 42 771 b 49 814 42 799 44 807 b 181 917 83 869 119 917 b 303 792 257 917 285 843 b 306 778 304 788 306 782 b 264 736 306 757 289 736 b 225 764 247 736 231 747 b 181 833 204 824 188 833 b 118 769 172 833 153 825 b 83 750 110 757 97 750 "},"Ï":{"ha":333,"x_min":0,"x_max":0,"o":"m 208 42 b 167 0 208 21 192 0 b 126 33 147 0 131 14 b 111 250 114 93 111 153 b 125 653 111 350 125 586 b 167 694 125 675 144 694 b 208 653 189 694 208 675 b 194 250 208 581 194 344 b 207 50 194 153 197 101 b 208 42 207 47 208 44 m 292 917 b 333 847 319 917 333 875 b 292 806 333 824 315 806 b 250 875 268 806 250 851 b 292 917 250 899 268 917 m 0 875 b 42 917 0 899 18 917 b 111 875 69 917 111 903 b 69 833 111 851 93 833 b 0 875 42 833 0 847 "},"Ð":{"ha":750,"x_min":0,"x_max":0,"o":"m 486 403 b 528 361 507 403 528 386 b 499 321 528 343 517 326 b 319 292 433 300 372 292 b 296 293 311 292 304 293 b 292 153 293 249 292 200 b 319 83 292 96 306 83 b 611 458 465 83 611 292 b 389 681 611 574 504 681 b 344 678 375 681 360 679 b 301 375 338 647 315 529 l 319 375 b 474 401 364 375 414 383 b 486 403 478 403 482 403 m 139 514 b 219 396 139 472 163 424 b 256 656 231 511 246 603 b 139 514 183 626 139 579 m 56 514 b 389 764 56 679 221 764 b 694 458 551 764 694 621 b 319 0 694 264 535 0 b 208 153 222 0 208 99 b 214 308 208 207 211 258 b 56 514 110 344 56 432 "},"Ñ":{"ha":778,"x_min":0,"x_max":0,"o":"m 264 764 b 222 806 239 764 222 785 b 225 818 222 810 224 814 b 347 917 242 869 283 917 b 456 860 393 917 429 893 b 514 833 471 840 483 833 b 596 876 538 833 572 853 b 625 889 604 885 614 889 b 667 847 647 889 667 869 b 654 818 667 836 663 826 b 514 750 622 786 574 750 b 392 807 461 750 421 771 b 347 833 374 829 363 833 b 303 793 328 833 314 825 b 264 764 297 776 282 764 m 97 -42 b 56 0 72 -42 56 -21 b 58 14 56 4 57 10 b 168 663 82 79 135 510 b 208 694 172 682 189 694 b 246 669 226 694 240 682 b 360 265 300 551 326 390 b 458 83 393 136 426 83 b 543 190 496 83 522 117 b 640 664 563 260 611 560 b 681 694 646 682 663 694 b 722 653 706 694 722 674 b 721 642 722 649 722 646 b 624 168 694 546 646 249 b 458 0 603 92 560 0 b 279 243 343 0 307 133 b 221 485 260 319 242 403 b 136 -14 192 299 163 57 b 97 -42 131 -31 114 -42 "},"Ò":{"ha":764,"x_min":0,"x_max":0,"o":"m 250 875 b 292 917 250 896 267 917 b 329 893 307 917 322 907 b 468 804 342 867 393 822 b 500 764 486 800 500 782 b 458 722 500 739 479 722 b 449 724 456 722 451 722 b 254 857 357 747 283 800 b 250 875 251 863 250 869 m 264 574 b 222 614 243 574 222 590 b 240 649 222 628 229 640 b 417 694 247 654 308 694 b 708 378 599 694 708 532 b 347 0 708 183 568 0 b 56 267 176 0 56 104 b 192 503 56 382 119 469 b 208 507 197 506 203 507 b 250 465 229 507 250 490 b 225 428 250 450 240 435 b 139 267 186 411 139 351 b 347 83 139 154 213 83 b 625 378 515 83 625 222 b 417 611 625 499 540 611 b 264 574 310 611 301 574 "},"Ó":{"ha":764,"x_min":0,"x_max":0,"o":"m 375 694 b 333 736 353 694 333 713 b 350 769 333 749 339 761 b 479 899 401 808 461 872 b 514 917 488 911 500 917 b 556 875 538 917 556 896 b 549 851 556 867 553 858 b 400 703 522 811 460 747 b 375 694 393 697 383 694 m 264 574 b 222 614 243 574 222 590 b 240 649 222 628 229 640 b 417 694 247 654 308 694 b 708 378 599 694 708 532 b 347 0 708 183 568 0 b 56 267 176 0 56 104 b 192 503 56 382 119 469 b 208 507 197 506 203 507 b 250 465 229 507 250 490 b 225 428 250 450 240 435 b 139 267 186 411 139 351 b 347 83 139 154 213 83 b 625 378 515 83 625 222 b 417 611 625 499 540 611 b 264 574 310 611 301 574 "},"Ô":{"ha":764,"x_min":0,"x_max":0,"o":"m 333 750 b 292 792 308 750 292 771 b 299 814 292 799 294 807 b 431 917 333 869 369 917 b 553 792 507 917 535 843 b 556 778 554 788 556 782 b 514 736 556 757 539 736 b 475 764 497 736 481 747 b 431 833 454 824 438 833 b 368 769 422 833 403 825 b 333 750 360 757 347 750 m 264 574 b 222 614 243 574 222 590 b 240 649 222 628 229 640 b 417 694 247 654 308 694 b 708 378 599 694 708 532 b 347 0 708 183 568 0 b 56 267 176 0 56 104 b 192 503 56 382 119 469 b 208 507 197 506 203 507 b 250 465 229 507 250 490 b 225 428 250 450 240 435 b 139 267 186 411 139 351 b 347 83 139 154 213 83 b 625 378 515 83 625 222 b 417 611 625 499 540 611 b 264 574 310 611 301 574 "},"Õ":{"ha":764,"x_min":0,"x_max":0,"o":"m 167 778 b 125 819 144 778 125 797 b 138 849 125 831 129 840 b 278 917 167 878 213 917 b 400 846 340 917 378 874 b 444 819 417 824 429 819 b 540 863 485 819 517 839 b 569 875 549 871 558 875 b 611 833 592 875 611 856 b 599 804 611 822 607 813 b 444 736 567 772 515 736 b 336 793 399 736 364 760 b 278 833 314 821 299 833 b 196 790 246 833 222 817 b 167 778 188 782 178 778 m 264 574 b 222 614 243 574 222 590 b 240 649 222 628 229 640 b 417 694 247 654 308 694 b 708 378 599 694 708 532 b 347 0 708 183 568 0 b 56 267 176 0 56 104 b 192 503 56 382 119 469 b 208 507 197 506 203 507 b 250 465 229 507 250 490 b 225 428 250 450 240 435 b 139 267 186 411 139 351 b 347 83 139 154 213 83 b 625 378 515 83 625 222 b 417 611 625 499 540 611 b 264 574 310 611 301 574 "},"Ö":{"ha":764,"x_min":0,"x_max":0,"o":"m 264 889 b 306 847 288 889 306 871 b 264 778 306 819 292 778 b 222 819 240 778 222 796 b 264 889 222 847 236 889 m 500 833 b 542 875 500 857 518 875 b 611 833 569 875 611 861 b 569 792 611 810 593 792 b 500 833 542 792 500 806 m 264 574 b 222 614 243 574 222 590 b 240 649 222 628 229 640 b 417 694 247 654 308 694 b 708 378 599 694 708 532 b 347 0 708 183 568 0 b 56 267 176 0 56 104 b 192 503 56 382 119 469 b 208 507 197 506 203 507 b 250 465 229 507 250 490 b 225 428 250 450 240 435 b 139 267 186 411 139 351 b 347 83 139 154 213 83 b 625 378 515 83 625 222 b 417 611 625 499 540 611 b 264 574 310 611 301 574 "},"×":{"ha":556,"x_min":0,"x_max":0,"o":"m 431 458 b 472 417 451 458 472 442 b 447 378 472 400 463 385 b 303 240 446 376 400 351 b 471 82 417 114 464 85 b 500 42 486 78 500 61 b 457 0 500 15 478 0 b 249 174 429 0 389 17 b 131 18 214 131 175 81 b 97 0 122 7 110 0 b 56 42 74 0 56 21 b 64 65 56 50 58 58 b 193 239 113 135 156 192 b 79 376 160 278 122 324 b 69 403 74 383 69 393 b 111 444 69 425 88 444 b 143 429 124 444 135 439 b 247 304 182 381 217 340 b 415 456 353 426 404 450 b 431 458 419 457 425 458 "},"Ø":{"ha":764,"x_min":0,"x_max":0,"o":"m 264 574 b 222 614 243 574 222 590 b 240 649 222 628 229 640 b 417 694 247 654 308 694 b 478 688 438 694 458 692 b 518 781 491 719 505 750 b 556 806 525 796 539 806 b 597 764 581 806 597 785 b 593 747 597 758 596 753 b 555 658 580 718 567 688 b 708 378 653 602 708 488 b 347 0 708 183 568 0 b 311 2 335 0 323 1 b 278 -167 290 -72 278 -130 b 236 -208 278 -189 258 -208 b 194 -167 214 -208 194 -189 b 227 20 194 -121 207 -56 b 56 267 123 57 56 146 b 192 503 56 382 119 469 b 208 507 197 506 203 507 b 250 465 229 507 250 490 b 225 428 250 450 240 435 b 139 267 186 411 139 351 b 250 99 139 185 178 125 b 444 609 298 250 369 432 b 417 611 435 610 426 611 b 264 574 310 611 301 574 m 336 84 b 347 83 339 83 343 83 b 625 378 515 83 625 222 b 522 580 625 460 586 538 b 336 84 450 407 382 227 "},"Ù":{"ha":667,"x_min":0,"x_max":0,"o":"m 181 875 b 222 917 181 896 197 917 b 260 893 238 917 253 907 b 399 804 272 867 324 822 b 431 764 417 800 431 782 b 389 722 431 739 410 722 b 379 724 386 722 382 722 b 185 857 288 747 214 800 b 181 875 182 863 181 869 m 500 653 b 542 694 500 674 517 694 b 582 664 560 694 578 682 b 597 490 594 618 597 543 b 292 0 597 307 546 0 b 56 329 100 0 56 192 b 85 564 56 421 69 510 b 125 594 90 582 107 594 b 167 553 150 594 167 574 b 165 542 167 549 167 546 b 139 329 153 496 139 413 b 292 83 139 192 178 83 b 514 490 454 83 514 299 b 501 642 514 538 508 613 b 500 653 500 644 500 650 "},"Ú":{"ha":667,"x_min":0,"x_max":0,"o":"m 306 694 b 264 736 283 694 264 713 b 281 769 264 749 269 761 b 410 899 332 808 392 872 b 444 917 418 911 431 917 b 486 875 468 917 486 896 b 479 851 486 867 483 858 b 331 703 453 811 390 747 b 306 694 324 697 314 694 m 500 653 b 542 694 500 674 517 694 b 582 664 560 694 578 682 b 597 490 594 618 597 543 b 292 0 597 307 546 0 b 56 329 100 0 56 192 b 85 564 56 421 69 510 b 125 594 90 582 107 594 b 167 553 150 594 167 574 b 165 542 167 549 167 546 b 139 329 153 496 139 413 b 292 83 139 192 178 83 b 514 490 454 83 514 299 b 501 642 514 538 508 613 b 500 653 500 644 500 650 "},"Û":{"ha":667,"x_min":0,"x_max":0,"o":"m 264 750 b 222 792 239 750 222 771 b 229 814 222 799 225 807 b 361 917 264 869 300 917 b 483 792 438 917 465 843 b 486 778 485 788 486 782 b 444 736 486 757 469 736 b 406 764 428 736 411 747 b 361 833 385 824 368 833 b 299 769 353 833 333 825 b 264 750 290 757 278 750 m 500 653 b 542 694 500 674 517 694 b 582 664 560 694 578 682 b 597 490 594 618 597 543 b 292 0 597 307 546 0 b 56 329 100 0 56 192 b 85 564 56 421 69 510 b 125 594 90 582 107 594 b 167 553 150 594 167 574 b 165 542 167 549 167 546 b 139 329 153 496 139 413 b 292 83 139 192 178 83 b 514 490 454 83 514 299 b 501 642 514 538 508 613 b 500 653 500 644 500 650 "},"Ü":{"ha":667,"x_min":0,"x_max":0,"o":"m 500 917 b 542 875 524 917 542 899 b 500 806 542 847 528 806 b 458 847 476 806 458 824 b 500 917 458 875 472 917 m 153 819 b 194 861 153 843 171 861 b 264 819 222 861 264 847 b 222 778 264 796 246 778 b 153 819 194 778 153 792 m 500 653 b 542 694 500 674 517 694 b 582 664 560 694 578 682 b 597 490 594 618 597 543 b 292 0 597 307 546 0 b 56 329 100 0 56 192 b 85 564 56 421 69 510 b 125 594 90 582 107 594 b 167 553 150 594 167 574 b 165 542 167 549 167 546 b 139 329 153 496 139 413 b 292 83 139 192 178 83 b 514 490 454 83 514 299 b 501 642 514 538 508 613 b 500 653 500 644 500 650 "},"Ý":{"ha":667,"x_min":0,"x_max":0,"o":"m 306 694 b 264 736 283 694 264 713 b 281 769 264 749 269 761 b 410 899 332 808 392 872 b 444 917 418 911 431 917 b 486 875 468 917 486 896 b 479 851 486 867 483 858 b 331 703 453 811 390 747 b 306 694 324 697 314 694 m 56 653 b 97 694 56 674 72 694 b 138 663 117 694 133 682 b 319 494 156 583 208 494 b 533 624 396 494 507 575 b 569 644 540 638 554 644 b 611 603 594 644 611 622 b 550 394 611 557 596 476 b 374 32 467 244 390 107 b 333 0 369 13 353 0 b 292 42 308 0 292 21 b 293 51 292 44 293 49 b 478 436 315 151 394 286 b 496 472 485 449 490 460 b 319 411 446 439 382 411 b 57 643 153 411 78 547 b 56 653 57 646 56 650 "},"Þ":{"ha":611,"x_min":0,"x_max":0,"o":"m 208 42 b 167 0 208 21 192 0 b 126 33 147 0 131 14 b 97 319 106 147 97 261 b 111 639 97 421 111 546 b 64 850 111 747 97 806 b 56 875 58 857 56 867 b 97 917 56 897 74 917 b 131 900 110 917 122 911 b 190 728 167 853 183 797 b 347 764 240 751 294 764 b 556 556 467 764 556 675 b 188 194 556 356 379 204 b 207 50 192 150 197 100 b 208 42 207 47 208 44 m 472 556 b 347 681 472 631 422 681 b 194 635 297 681 243 664 b 181 319 194 535 181 413 b 182 278 181 308 181 294 b 472 556 338 285 472 407 "},"ß":{"ha":639,"x_min":0,"x_max":0,"o":"m 194 -431 b 153 -472 194 -451 178 -472 b 113 -439 133 -472 117 -458 b 56 97 83 -289 56 -101 b 333 764 56 269 81 764 b 472 583 440 764 472 657 b 413 415 472 524 444 465 b 583 222 506 406 583 333 b 361 0 583 101 482 0 b 236 69 326 0 236 18 b 278 111 236 93 256 111 b 303 103 286 111 296 108 b 361 83 324 88 340 83 b 500 222 435 83 500 149 b 389 333 500 296 453 333 b 318 301 374 333 346 325 b 292 292 311 296 301 292 b 250 333 269 292 250 311 b 263 363 250 344 254 354 b 389 583 329 429 389 521 b 333 681 389 649 365 681 b 139 97 197 681 139 306 b 193 -422 139 -93 164 -275 b 194 -431 193 -425 194 -428 "},"à":{"ha":611,"x_min":0,"x_max":0,"o":"m 431 583 b 389 542 431 560 411 542 b 363 551 379 542 371 544 b 183 776 278 622 219 685 b 181 792 182 782 181 786 b 222 833 181 813 197 833 b 261 807 239 833 254 824 b 415 615 292 732 333 683 b 431 583 425 607 431 596 m 486 347 b 444 306 486 326 469 306 b 406 335 426 306 411 318 b 347 375 397 358 371 375 b 139 153 250 375 139 256 b 194 83 139 106 160 83 b 440 235 274 83 361 136 b 472 250 449 244 460 250 b 514 208 496 250 514 228 b 549 65 514 144 526 97 b 556 42 553 58 556 50 b 514 0 556 21 538 0 b 440 113 468 0 449 75 b 194 0 368 44 283 0 b 56 153 104 0 56 75 b 347 458 56 300 194 458 b 483 360 407 458 464 419 b 486 347 485 356 486 351 "},"á":{"ha":611,"x_min":0,"x_max":0,"o":"m 472 875 b 514 833 496 875 514 856 b 379 557 514 735 433 625 b 347 542 371 547 360 542 b 306 583 324 542 306 561 b 315 610 306 593 310 603 b 431 838 369 676 424 769 b 472 875 433 858 451 875 m 486 347 b 444 306 486 326 469 306 b 406 335 426 306 411 318 b 347 375 397 358 371 375 b 139 153 250 375 139 256 b 194 83 139 106 160 83 b 440 235 274 83 361 136 b 472 250 449 244 460 250 b 514 208 496 250 514 228 b 549 65 514 144 526 97 b 556 42 553 58 556 50 b 514 0 556 21 538 0 b 440 113 468 0 449 75 b 194 0 368 44 283 0 b 56 153 104 0 56 75 b 347 458 56 300 194 458 b 483 360 407 458 464 419 b 486 347 485 356 486 351 "},"â":{"ha":611,"x_min":0,"x_max":0,"o":"m 542 583 b 500 542 542 561 522 542 b 471 554 489 542 479 546 b 386 690 424 601 411 639 b 361 722 371 721 363 722 b 326 694 361 722 350 721 b 231 563 292 656 250 594 b 194 542 222 550 208 542 b 153 583 169 542 153 563 b 158 604 153 590 154 597 b 265 750 181 642 225 706 b 361 806 292 779 319 806 b 461 726 418 806 446 757 b 529 613 492 667 493 649 b 542 583 538 604 542 594 m 486 347 b 444 306 486 326 469 306 b 406 335 426 306 411 318 b 347 375 397 358 371 375 b 139 153 250 375 139 256 b 194 83 139 106 160 83 b 440 235 274 83 361 136 b 472 250 449 244 460 250 b 514 208 496 250 514 228 b 549 65 514 144 526 97 b 556 42 553 58 556 50 b 514 0 556 21 538 0 b 440 113 468 0 449 75 b 194 0 368 44 283 0 b 56 153 104 0 56 75 b 347 458 56 300 194 458 b 483 360 407 458 464 419 b 486 347 485 356 486 351 "},"ã":{"ha":611,"x_min":0,"x_max":0,"o":"m 153 611 b 111 653 128 611 111 632 b 114 665 111 657 113 661 b 236 764 131 717 172 764 b 344 707 282 764 318 740 b 403 681 360 688 372 681 b 485 724 426 681 461 700 b 514 736 493 732 503 736 b 556 694 536 736 556 717 b 543 665 556 683 551 674 b 403 597 511 633 463 597 b 281 654 350 597 310 618 b 236 681 263 676 251 681 b 192 640 217 681 203 672 b 153 611 186 624 171 611 m 486 347 b 444 306 486 326 469 306 b 406 335 426 306 411 318 b 347 375 397 358 371 375 b 139 153 250 375 139 256 b 194 83 139 106 160 83 b 440 235 274 83 361 136 b 472 250 449 244 460 250 b 514 208 496 250 514 228 b 549 65 514 144 526 97 b 556 42 553 58 556 50 b 514 0 556 21 538 0 b 440 113 468 0 449 75 b 194 0 368 44 283 0 b 56 153 104 0 56 75 b 347 458 56 300 194 458 b 483 360 407 458 464 419 b 486 347 485 356 486 351 "},"ä":{"ha":611,"x_min":0,"x_max":0,"o":"m 486 347 b 444 306 486 326 469 306 b 406 335 426 306 411 318 b 347 375 397 358 371 375 b 139 153 250 375 139 256 b 194 83 139 106 160 83 b 440 235 274 83 361 136 b 472 250 449 244 460 250 b 514 208 496 250 514 228 b 549 65 514 144 526 97 b 556 42 553 58 556 50 b 514 0 556 21 538 0 b 440 113 468 0 449 75 b 194 0 368 44 283 0 b 56 153 104 0 56 75 b 347 458 56 300 194 458 b 483 360 407 458 464 419 b 486 347 485 356 486 351 m 194 736 b 236 694 218 736 236 718 b 194 625 236 667 222 625 b 153 667 171 625 153 643 b 194 736 153 694 167 736 m 431 681 b 472 722 431 704 449 722 b 542 681 500 722 542 708 b 500 639 542 657 524 639 b 431 681 472 639 431 653 "},"å":{"ha":611,"x_min":0,"x_max":0,"o":"m 319 764 b 278 681 319 724 278 736 b 333 625 278 647 300 625 b 417 694 386 625 417 653 b 361 750 417 728 394 750 b 319 792 339 750 319 769 b 361 833 319 814 339 833 b 500 694 439 833 500 772 b 333 542 500 597 419 542 b 194 681 256 542 194 603 b 256 799 194 758 251 796 b 278 806 263 803 271 806 b 319 764 299 806 319 788 m 486 347 b 444 306 486 326 469 306 b 406 335 426 306 411 318 b 347 375 397 358 371 375 b 139 153 250 375 139 256 b 194 83 139 106 160 83 b 440 235 274 83 361 136 b 472 250 449 244 460 250 b 514 208 496 250 514 228 b 549 65 514 144 526 97 b 556 42 553 58 556 50 b 514 0 556 21 538 0 b 440 113 468 0 449 75 b 194 0 368 44 283 0 b 56 153 104 0 56 75 b 347 458 56 300 194 458 b 483 360 407 458 464 419 b 486 347 485 356 486 351 "},"æ":{"ha":1028,"x_min":0,"x_max":0,"o":"m 656 126 b 806 306 731 142 806 243 b 750 361 806 339 783 361 b 625 222 679 361 625 300 b 656 126 625 181 638 149 m 472 264 b 514 222 496 264 514 242 b 553 143 514 179 529 157 b 542 222 546 168 542 194 b 750 444 542 339 626 444 b 889 306 828 444 889 383 b 757 83 889 221 828 133 l 764 83 b 913 121 815 83 847 88 b 931 125 918 124 925 125 b 972 83 951 125 972 108 b 949 46 972 68 963 53 b 764 0 875 10 824 0 b 625 42 708 0 660 17 b 450 135 546 44 485 71 b 194 0 376 60 290 0 b 56 153 104 0 56 75 b 347 458 56 300 194 458 b 483 360 407 458 464 419 b 486 347 485 356 486 351 b 444 306 486 326 469 306 b 406 335 426 306 411 318 b 347 375 397 358 371 375 b 139 153 250 375 139 256 b 194 83 139 106 160 83 b 440 249 269 83 360 147 b 472 264 449 258 460 264 "},"ç":{"ha":472,"x_min":0,"x_max":0,"o":"m 417 403 b 375 361 417 378 396 361 b 357 365 369 361 363 363 b 306 375 342 374 331 375 b 139 194 222 375 139 285 b 417 -181 139 7 417 19 b 250 -319 417 -267 328 -319 b 208 -278 228 -319 208 -301 b 246 -236 208 -257 225 -239 b 333 -181 308 -229 333 -203 b 199 -35 333 -126 279 -89 b 56 194 133 8 56 76 b 306 458 56 326 167 458 b 417 403 346 458 417 450 "},"è":{"ha":542,"x_min":0,"x_max":0,"o":"m 111 792 b 153 833 111 815 131 833 b 179 824 163 833 172 829 b 354 607 222 789 283 714 b 361 583 358 600 361 592 b 319 542 361 563 343 542 b 285 560 306 542 293 547 b 126 760 217 661 153 739 b 111 792 117 768 111 779 m 278 0 b 56 236 144 0 56 104 b 264 458 56 353 140 458 b 403 319 342 458 403 397 b 219 94 403 215 313 125 b 278 83 236 88 256 83 b 426 121 329 83 361 88 b 444 125 432 124 439 125 b 486 83 465 125 486 108 b 463 46 486 68 476 53 b 278 0 389 10 338 0 m 319 319 b 264 375 319 353 297 375 b 139 236 193 375 139 314 b 151 167 139 210 143 186 b 319 319 228 167 319 250 "},"é":{"ha":542,"x_min":0,"x_max":0,"o":"m 403 875 b 444 833 426 875 444 856 b 436 808 444 825 442 815 b 303 567 397 757 343 661 b 264 542 296 551 281 542 b 222 583 239 542 222 563 b 225 600 222 589 222 594 b 369 858 268 700 325 799 b 403 875 378 869 390 875 m 278 0 b 56 236 144 0 56 104 b 264 458 56 353 140 458 b 403 319 342 458 403 397 b 219 94 403 215 313 125 b 278 83 236 88 256 83 b 426 121 329 83 361 88 b 444 125 432 124 439 125 b 486 83 465 125 486 108 b 463 46 486 68 476 53 b 278 0 389 10 338 0 m 319 319 b 264 375 319 353 297 375 b 139 236 193 375 139 314 b 151 167 139 210 143 186 b 319 319 228 167 319 250 "},"ê":{"ha":542,"x_min":0,"x_max":0,"o":"m 458 583 b 417 542 458 561 439 542 b 388 554 406 542 396 546 b 303 690 340 601 328 639 b 278 722 288 721 279 722 b 243 694 278 722 267 721 b 147 563 208 656 167 594 b 111 542 139 550 125 542 b 69 583 86 542 69 563 b 75 604 69 590 71 597 b 182 750 97 642 142 706 b 278 806 208 779 236 806 b 378 726 335 806 363 757 b 446 613 408 667 410 649 b 458 583 454 604 458 594 m 278 0 b 56 236 144 0 56 104 b 264 458 56 353 140 458 b 403 319 342 458 403 397 b 219 94 403 215 313 125 b 278 83 236 88 256 83 b 426 121 329 83 361 88 b 444 125 432 124 439 125 b 486 83 465 125 486 108 b 463 46 486 68 476 53 b 278 0 389 10 338 0 m 319 319 b 264 375 319 353 297 375 b 139 236 193 375 139 314 b 151 167 139 210 143 186 b 319 319 228 167 319 250 "},"ë":{"ha":542,"x_min":0,"x_max":0,"o":"m 417 764 b 458 722 440 764 458 746 b 417 653 458 694 444 653 b 375 694 393 653 375 671 b 417 764 375 722 389 764 m 69 667 b 111 708 69 690 88 708 b 181 667 139 708 181 694 b 139 625 181 643 163 625 b 69 667 111 625 69 639 m 278 0 b 56 236 144 0 56 104 b 264 458 56 353 140 458 b 403 319 342 458 403 397 b 219 94 403 215 313 125 b 278 83 236 88 256 83 b 426 121 329 83 361 88 b 444 125 432 124 439 125 b 486 83 465 125 486 108 b 463 46 486 68 476 53 b 278 0 389 10 338 0 m 319 319 b 264 375 319 353 297 375 b 139 236 193 375 139 314 b 151 167 139 210 143 186 b 319 319 228 167 319 250 "},"ì":{"ha":403,"x_min":0,"x_max":0,"o":"m 278 583 b 236 542 278 560 258 542 b 210 551 226 542 218 544 b 31 776 125 622 67 685 b 28 792 29 782 28 786 b 69 833 28 813 44 833 b 108 807 86 833 101 824 b 263 615 139 732 181 683 b 278 583 272 607 278 596 m 306 97 b 347 56 326 97 347 81 b 222 0 347 6 265 0 b 56 194 108 0 56 100 b 85 426 56 239 61 325 b 125 458 89 446 106 458 b 167 417 150 458 167 438 b 165 407 167 414 165 410 b 139 194 144 314 139 233 b 222 83 139 122 169 83 b 293 94 246 83 268 86 b 306 97 297 96 301 97 "},"í":{"ha":403,"x_min":0,"x_max":0,"o":"m 319 875 b 361 833 343 875 361 856 b 226 557 361 735 281 625 b 194 542 218 547 207 542 b 153 583 171 542 153 561 b 163 610 153 593 157 603 b 278 838 217 676 271 769 b 319 875 281 858 299 875 m 306 97 b 347 56 326 97 347 81 b 222 0 347 6 265 0 b 56 194 108 0 56 100 b 85 426 56 239 61 325 b 125 458 89 446 106 458 b 167 417 150 458 167 438 b 165 407 167 414 165 410 b 139 194 144 314 139 233 b 222 83 139 122 169 83 b 293 94 246 83 268 86 b 306 97 297 96 301 97 "},"î":{"ha":403,"x_min":0,"x_max":0,"o":"m 56 569 b 14 611 33 569 14 589 b 26 640 14 622 18 632 b 135 742 51 665 92 711 b 222 778 163 761 188 778 b 385 615 303 778 339 707 b 389 597 388 610 389 603 b 347 556 389 576 372 556 b 310 579 332 556 317 565 b 222 694 258 682 239 694 b 185 675 221 694 206 690 b 85 582 150 650 113 610 b 56 569 76 574 67 569 m 306 97 b 347 56 326 97 347 81 b 222 0 347 6 265 0 b 56 194 108 0 56 100 b 85 426 56 239 61 325 b 125 458 89 446 106 458 b 167 417 150 458 167 438 b 165 407 167 414 165 410 b 139 194 144 314 139 233 b 222 83 139 122 169 83 b 293 94 246 83 268 86 b 306 97 297 96 301 97 "},"ï":{"ha":389,"x_min":0,"x_max":0,"o":"m 319 764 b 361 694 347 764 361 722 b 319 653 361 671 343 653 b 278 722 296 653 278 699 b 319 764 278 746 296 764 m 28 722 b 69 764 28 746 46 764 b 139 722 97 764 139 750 b 97 681 139 699 121 681 b 28 722 69 681 28 694 m 333 97 b 375 56 354 97 375 81 b 250 0 375 6 293 0 b 83 194 136 0 83 100 b 113 426 83 239 89 325 b 153 458 117 446 133 458 b 194 417 178 458 194 438 b 193 407 194 414 193 410 b 167 194 172 314 167 233 b 250 83 167 122 197 83 b 321 94 274 83 296 86 b 333 97 325 96 329 97 "},"ð":{"ha":750,"x_min":0,"x_max":0,"o":"m 194 833 b 139 764 160 833 139 811 b 375 569 139 678 207 569 b 429 572 392 569 410 569 b 194 833 378 719 272 833 m 653 639 b 694 597 674 639 694 622 b 671 560 694 582 686 567 b 532 508 622 536 575 519 b 542 417 538 478 542 446 b 222 0 542 240 426 0 b 56 167 131 0 56 75 b 333 431 56 306 200 431 b 375 389 356 431 375 411 b 333 347 375 367 356 347 b 139 167 244 347 139 250 b 222 83 139 119 175 83 b 458 417 351 83 458 260 b 451 492 458 440 456 465 b 375 486 425 488 399 486 b 56 764 165 486 56 631 b 194 917 56 842 104 917 b 511 589 342 917 458 747 b 635 635 549 599 590 614 b 653 639 640 638 647 639 "},"ñ":{"ha":819,"x_min":0,"x_max":0,"o":"m 264 625 b 222 667 242 625 222 644 b 235 696 222 678 226 688 b 375 764 264 725 310 764 b 497 693 438 764 475 721 b 542 667 514 671 526 667 b 638 710 582 667 614 686 b 667 722 646 718 656 722 b 708 681 689 722 708 703 b 696 651 708 669 704 660 b 542 583 664 619 613 583 b 433 640 496 583 461 607 b 375 681 411 668 396 681 b 293 638 343 681 319 664 b 264 625 285 629 275 625 m 764 42 b 722 0 764 19 744 0 b 693 13 711 0 701 4 b 625 264 640 65 625 125 b 597 333 625 321 611 333 b 357 22 572 333 511 317 b 319 0 350 8 335 0 b 278 42 294 0 278 21 b 181 375 278 289 228 375 b 126 346 168 375 150 369 b 97 333 118 338 108 333 b 56 375 75 333 56 353 b 68 404 56 386 60 396 b 181 458 100 436 138 458 b 354 190 297 458 340 329 b 597 417 460 367 526 417 b 708 264 694 417 708 318 b 751 71 708 125 721 101 b 764 42 760 63 764 53 "},"ò":{"ha":597,"x_min":0,"x_max":0,"o":"m 431 583 b 389 542 431 560 411 542 b 363 551 379 542 371 544 b 183 776 278 622 219 685 b 181 792 182 782 181 786 b 222 833 181 813 197 833 b 261 807 239 833 254 824 b 415 615 292 732 333 683 b 431 583 425 607 431 596 m 139 389 b 181 347 163 389 181 368 b 174 324 181 339 178 331 b 139 208 150 289 139 249 b 264 83 139 133 189 83 b 458 264 368 83 458 165 b 347 375 458 332 415 375 b 274 354 319 375 293 368 b 250 347 267 349 258 347 b 208 389 229 347 208 365 b 347 458 208 443 307 458 b 542 264 460 458 542 376 b 264 0 542 113 410 0 b 56 208 144 0 56 89 b 104 371 56 265 72 322 b 139 389 113 383 125 389 "},"ó":{"ha":597,"x_min":0,"x_max":0,"o":"m 472 875 b 514 833 496 875 514 856 b 379 557 514 735 433 625 b 347 542 371 547 360 542 b 306 583 324 542 306 561 b 315 610 306 593 310 603 b 431 838 369 676 424 769 b 472 875 433 858 451 875 m 139 389 b 181 347 163 389 181 368 b 174 324 181 339 178 331 b 139 208 150 289 139 249 b 264 83 139 133 189 83 b 458 264 368 83 458 165 b 347 375 458 332 415 375 b 274 354 319 375 293 368 b 250 347 267 349 258 347 b 208 389 229 347 208 365 b 347 458 208 443 307 458 b 542 264 460 458 542 376 b 264 0 542 113 410 0 b 56 208 144 0 56 89 b 104 371 56 265 72 322 b 139 389 113 383 125 389 "},"ô":{"ha":597,"x_min":0,"x_max":0,"o":"m 208 569 b 167 611 186 569 167 589 b 179 640 167 622 171 632 b 288 742 204 665 244 711 b 375 778 315 761 340 778 b 538 615 456 778 492 707 b 542 597 540 610 542 603 b 500 556 542 576 525 556 b 463 579 485 556 469 565 b 375 694 411 682 392 694 b 338 675 374 694 358 690 b 238 582 303 650 265 610 b 208 569 229 574 219 569 m 139 389 b 181 347 163 389 181 368 b 174 324 181 339 178 331 b 139 208 150 289 139 249 b 264 83 139 133 189 83 b 458 264 368 83 458 165 b 347 375 458 332 415 375 b 274 354 319 375 293 368 b 250 347 267 349 258 347 b 208 389 229 347 208 365 b 347 458 208 443 307 458 b 542 264 460 458 542 376 b 264 0 542 113 410 0 b 56 208 144 0 56 89 b 104 371 56 265 72 322 b 139 389 113 383 125 389 "},"õ":{"ha":597,"x_min":0,"x_max":0,"o":"m 97 625 b 56 667 75 625 56 644 b 68 696 56 678 60 688 b 208 764 97 725 143 764 b 331 693 271 764 308 721 b 375 667 347 671 360 667 b 471 710 415 667 447 686 b 500 722 479 718 489 722 b 542 681 522 722 542 703 b 529 651 542 669 538 660 b 375 583 497 619 446 583 b 267 640 329 583 294 607 b 208 681 244 668 229 681 b 126 638 176 681 153 664 b 97 625 118 629 108 625 m 139 389 b 181 347 163 389 181 368 b 174 324 181 339 178 331 b 139 208 150 289 139 249 b 264 83 139 133 189 83 b 458 264 368 83 458 165 b 347 375 458 332 415 375 b 274 354 319 375 293 368 b 250 347 267 349 258 347 b 208 389 229 347 208 365 b 347 458 208 443 307 458 b 542 264 460 458 542 376 b 264 0 542 113 410 0 b 56 208 144 0 56 89 b 104 371 56 265 72 322 b 139 389 113 383 125 389 "},"ö":{"ha":597,"x_min":0,"x_max":0,"o":"m 500 764 b 542 722 524 764 542 746 b 500 653 542 694 528 653 b 458 694 476 653 458 671 b 500 764 458 722 472 764 m 153 667 b 194 708 153 690 171 708 b 264 667 222 708 264 694 b 222 625 264 643 246 625 b 153 667 194 625 153 639 m 139 389 b 181 347 163 389 181 368 b 174 324 181 339 178 331 b 139 208 150 289 139 249 b 264 83 139 133 189 83 b 458 264 368 83 458 165 b 347 375 458 332 415 375 b 274 354 319 375 293 368 b 250 347 267 349 258 347 b 208 389 229 347 208 365 b 347 458 208 443 307 458 b 542 264 460 458 542 376 b 264 0 542 113 410 0 b 56 208 144 0 56 89 b 104 371 56 265 72 322 b 139 389 113 383 125 389 "},"÷":{"ha":653,"x_min":0,"x_max":0,"o":"m 319 514 b 361 444 347 514 361 472 b 319 403 361 421 343 403 b 278 472 296 403 278 449 b 319 514 278 496 296 514 m 347 111 b 389 69 371 111 389 93 b 347 0 389 42 375 0 b 306 42 324 0 306 18 b 347 111 306 69 319 111 m 597 264 b 556 222 597 242 578 222 b 104 208 404 222 165 218 l 97 208 b 56 250 76 208 56 225 b 90 292 56 269 69 289 b 556 306 168 304 401 306 b 597 264 578 306 597 286 "},"ø":{"ha":597,"x_min":0,"x_max":0,"o":"m 417 542 b 458 500 442 542 458 521 b 453 479 458 493 457 486 b 431 441 445 466 438 454 b 542 264 498 412 542 346 b 264 0 542 113 410 0 b 238 1 255 0 246 0 b 207 -96 226 -34 216 -66 b 167 -125 201 -114 185 -125 b 125 -83 142 -125 125 -104 b 126 -71 125 -79 125 -75 b 157 27 135 -41 145 -8 b 56 208 95 62 56 129 b 104 371 56 265 72 322 b 139 389 113 383 125 389 b 181 347 163 389 181 368 b 174 324 181 339 178 331 b 139 208 150 289 139 249 b 185 107 139 165 156 129 b 297 366 214 185 250 272 b 274 354 288 363 280 359 b 250 347 267 349 258 347 b 208 389 229 347 208 365 b 345 458 208 442 303 458 b 381 521 356 479 368 500 b 417 542 389 533 403 542 m 391 368 b 266 83 338 264 298 168 b 458 264 370 85 458 166 b 391 368 458 316 433 353 "},"ù":{"ha":778,"x_min":0,"x_max":0,"o":"m 431 583 b 389 542 431 560 411 542 b 363 551 379 542 371 544 b 183 776 278 622 219 685 b 181 792 182 782 181 786 b 222 833 181 813 197 833 b 261 807 239 833 254 824 b 415 615 292 732 333 683 b 431 583 425 607 431 596 m 682 125 b 722 83 704 125 722 104 b 713 57 722 74 718 64 b 597 0 708 53 668 0 b 453 147 510 0 471 82 b 250 0 417 74 354 0 b 56 208 128 0 56 94 b 72 347 56 297 71 342 b 111 375 79 365 94 375 b 153 333 136 375 153 354 b 139 208 153 311 139 299 b 250 83 139 128 178 83 b 431 381 392 83 429 358 b 472 417 433 399 450 417 b 514 375 494 417 514 397 b 597 83 514 243 539 83 b 682 125 643 83 644 125 "},"ú":{"ha":778,"x_min":0,"x_max":0,"o":"m 472 875 b 514 833 496 875 514 856 b 379 557 514 735 433 625 b 347 542 371 547 360 542 b 306 583 324 542 306 561 b 315 610 306 593 310 603 b 431 838 369 676 424 769 b 472 875 433 858 451 875 m 682 125 b 722 83 704 125 722 104 b 713 57 722 74 718 64 b 597 0 708 53 668 0 b 453 147 510 0 471 82 b 250 0 417 74 354 0 b 56 208 128 0 56 94 b 72 347 56 297 71 342 b 111 375 79 365 94 375 b 153 333 136 375 153 354 b 139 208 153 311 139 299 b 250 83 139 128 178 83 b 431 381 392 83 429 358 b 472 417 433 399 450 417 b 514 375 494 417 514 397 b 597 83 514 243 539 83 b 682 125 643 83 644 125 "},"û":{"ha":778,"x_min":0,"x_max":0,"o":"m 542 583 b 500 542 542 561 522 542 b 471 554 489 542 479 546 b 386 690 424 601 411 639 b 361 722 371 721 363 722 b 326 694 361 722 350 721 b 231 563 292 656 250 594 b 194 542 222 550 208 542 b 153 583 169 542 153 563 b 158 604 153 590 154 597 b 265 750 181 642 225 706 b 361 806 292 779 319 806 b 461 726 418 806 446 757 b 529 613 492 667 493 649 b 542 583 538 604 542 594 m 682 125 b 722 83 704 125 722 104 b 713 57 722 74 718 64 b 597 0 708 53 668 0 b 453 147 510 0 471 82 b 250 0 417 74 354 0 b 56 208 128 0 56 94 b 72 347 56 297 71 342 b 111 375 79 365 94 375 b 153 333 136 375 153 354 b 139 208 153 311 139 299 b 250 83 139 128 178 83 b 431 381 392 83 429 358 b 472 417 433 399 450 417 b 514 375 494 417 514 397 b 597 83 514 243 539 83 b 682 125 643 83 644 125 "},"ü":{"ha":778,"x_min":0,"x_max":0,"o":"m 500 764 b 542 722 524 764 542 746 b 500 653 542 694 528 653 b 458 694 476 653 458 671 b 500 764 458 722 472 764 m 153 667 b 194 708 153 690 171 708 b 264 667 222 708 264 694 b 222 625 264 643 246 625 b 153 667 194 625 153 639 m 682 125 b 722 83 704 125 722 104 b 713 57 722 74 718 64 b 597 0 708 53 668 0 b 453 147 510 0 471 82 b 250 0 417 74 354 0 b 56 208 128 0 56 94 b 72 347 56 297 71 342 b 111 375 79 365 94 375 b 153 333 136 375 153 354 b 139 208 153 311 139 299 b 250 83 139 128 178 83 b 431 381 392 83 429 358 b 472 417 433 399 450 417 b 514 375 494 417 514 397 b 597 83 514 243 539 83 b 682 125 643 83 644 125 "},"ý":{"ha":847,"x_min":0,"x_max":0,"o":"m 472 875 b 514 833 496 875 514 856 b 379 557 514 735 433 625 b 347 542 371 547 360 542 b 306 583 324 542 306 561 b 315 610 306 593 310 603 b 431 838 369 676 424 769 b 472 875 433 858 451 875 m 417 -347 b 444 -389 417 -375 435 -389 b 528 -236 476 -389 528 -340 b 519 -103 528 -197 525 -151 b 417 -347 457 -187 417 -275 m 333 -347 b 506 11 333 -221 418 -92 b 468 226 494 83 481 161 b 250 42 426 133 354 42 b 56 250 128 42 56 136 l 56 263 b 111 417 56 313 58 417 b 153 375 136 417 153 396 b 151 367 153 372 151 369 b 139 250 140 313 139 290 b 250 125 139 169 178 125 b 431 418 332 125 425 283 b 472 458 432 439 449 458 b 513 425 492 458 508 444 b 578 89 528 351 556 222 b 726 215 631 140 682 185 b 750 222 733 221 742 222 b 792 181 771 222 792 204 b 774 146 792 167 785 154 b 593 -15 722 110 653 50 b 611 -236 603 -89 611 -171 b 444 -472 611 -354 551 -472 b 333 -347 371 -472 333 -403 "},"þ":{"ha":625,"x_min":0,"x_max":0,"o":"m 486 278 b 403 375 486 338 451 375 b 207 86 319 375 257 317 b 486 278 340 99 486 150 m 56 722 b 97 764 56 744 74 764 b 131 747 110 764 122 758 b 194 486 181 681 194 600 b 189 304 194 442 193 385 b 403 458 238 404 310 458 b 569 278 507 458 569 371 b 192 1 569 58 321 8 b 139 -435 172 -114 154 -258 b 97 -472 138 -456 118 -472 b 56 -431 74 -472 56 -451 b 60 -382 56 -414 58 -397 b 111 486 83 -89 111 267 b 64 697 111 594 97 653 b 56 722 58 704 56 714 "},"ÿ":{"ha":847,"x_min":0,"x_max":0,"o":"m 500 764 b 542 722 524 764 542 746 b 500 653 542 694 528 653 b 458 694 476 653 458 671 b 500 764 458 722 472 764 m 153 667 b 194 708 153 690 171 708 b 264 667 222 708 264 694 b 222 625 264 643 246 625 b 153 667 194 625 153 639 m 417 -347 b 444 -389 417 -375 435 -389 b 528 -236 476 -389 528 -340 b 519 -103 528 -197 525 -151 b 417 -347 457 -187 417 -275 m 333 -347 b 506 11 333 -221 418 -92 b 468 226 494 83 481 161 b 250 42 426 133 354 42 b 56 250 128 42 56 136 l 56 263 b 111 417 56 313 58 417 b 153 375 136 417 153 396 b 151 367 153 372 151 369 b 139 250 140 313 139 290 b 250 125 139 169 178 125 b 431 418 332 125 425 283 b 472 458 432 439 449 458 b 513 425 492 458 508 444 b 578 89 528 351 556 222 b 726 215 631 140 682 185 b 750 222 733 221 742 222 b 792 181 771 222 792 204 b 774 146 792 167 785 154 b 593 -15 722 110 653 50 b 611 -236 603 -89 611 -171 b 444 -472 611 -354 551 -472 b 333 -347 371 -472 333 -403 "},"Ā":{"ha":694,"x_min":0,"x_max":0,"o":"m 111 806 b 153 847 111 828 131 847 b 508 875 289 847 413 861 l 514 875 b 556 833 536 875 556 858 b 519 792 556 813 540 794 b 153 764 421 778 294 764 b 111 806 131 764 111 783 m 97 0 b 56 42 72 0 56 21 b 57 50 56 44 57 47 b 169 504 85 188 119 368 b 333 694 210 611 247 694 b 485 501 428 694 458 594 b 514 378 494 465 506 422 b 597 383 543 382 572 383 b 639 342 619 383 639 364 b 597 300 639 319 619 300 b 528 296 578 300 553 299 b 542 129 536 239 542 182 b 431 0 542 78 513 0 b 250 204 326 0 250 124 b 432 363 250 301 353 343 b 404 479 424 404 414 444 b 333 611 375 586 350 611 b 247 476 317 611 290 594 b 138 33 200 351 165 171 b 97 0 133 14 117 0 m 333 204 b 431 83 333 160 396 83 b 458 129 446 83 458 94 b 446 281 458 175 453 228 b 333 204 368 260 333 226 "},"ā":{"ha":611,"x_min":0,"x_max":0,"o":"m 111 653 b 150 694 111 674 128 693 b 514 708 290 706 415 708 b 556 667 536 708 556 689 b 514 625 556 644 536 625 b 156 611 418 625 293 622 l 153 611 b 111 653 131 611 111 629 m 486 347 b 444 306 486 326 469 306 b 406 335 426 306 411 318 b 347 375 397 358 371 375 b 139 153 250 375 139 256 b 194 83 139 106 160 83 b 440 235 274 83 361 136 b 472 250 449 244 460 250 b 514 208 496 250 514 228 b 549 65 514 144 526 97 b 556 42 553 58 556 50 b 514 0 556 21 538 0 b 440 113 468 0 449 75 b 194 0 368 44 283 0 b 56 153 104 0 56 75 b 347 458 56 300 194 458 b 483 360 407 458 464 419 b 486 347 485 356 486 351 "},"Ă":{"ha":694,"x_min":0,"x_max":0,"o":"m 167 861 b 208 903 167 883 185 903 b 240 888 221 903 232 897 b 319 847 267 854 289 847 b 429 904 360 847 390 865 b 458 917 438 913 447 917 b 500 875 481 917 500 897 b 488 846 500 864 496 854 b 319 764 443 801 390 764 b 176 835 267 764 217 785 b 167 861 171 842 167 851 m 97 0 b 56 42 72 0 56 21 b 57 50 56 44 57 47 b 169 504 85 188 119 368 b 333 694 210 611 247 694 b 485 501 428 694 458 594 b 514 378 494 465 506 422 b 597 383 543 382 572 383 b 639 342 619 383 639 364 b 597 300 639 319 619 300 b 528 296 578 300 553 299 b 542 129 536 239 542 182 b 431 0 542 78 513 0 b 250 204 326 0 250 124 b 432 363 250 301 353 343 b 404 479 424 404 414 444 b 333 611 375 586 350 611 b 247 476 317 611 290 594 b 138 33 200 351 165 171 b 97 0 133 14 117 0 m 333 204 b 431 83 333 160 396 83 b 458 129 446 83 458 94 b 446 281 458 175 453 228 b 333 204 368 260 333 226 "},"ă":{"ha":611,"x_min":0,"x_max":0,"o":"m 139 708 b 181 750 139 731 157 750 b 213 735 193 750 204 744 b 319 681 249 690 288 681 b 485 751 378 681 436 703 b 514 764 493 760 503 764 b 556 722 536 764 556 744 b 543 693 556 711 551 701 b 319 597 481 631 400 597 b 149 682 268 597 201 615 b 139 708 143 689 139 699 m 486 347 b 444 306 486 326 469 306 b 406 335 426 306 411 318 b 347 375 397 358 371 375 b 139 153 250 375 139 256 b 194 83 139 106 160 83 b 440 235 274 83 361 136 b 472 250 449 244 460 250 b 514 208 496 250 514 228 b 549 65 514 144 526 97 b 556 42 553 58 556 50 b 514 0 556 21 538 0 b 440 113 468 0 449 75 b 194 0 368 44 283 0 b 56 153 104 0 56 75 b 347 458 56 300 194 458 b 483 360 407 458 464 419 b 486 347 485 356 486 351 "},"Ą":{"ha":764,"x_min":0,"x_max":0,"o":"m 94 278 b 56 319 72 281 56 297 b 97 361 56 344 75 361 b 114 360 103 361 108 361 b 199 615 138 451 167 546 b 319 722 217 653 246 722 b 426 607 406 722 422 626 b 488 335 443 542 458 450 b 667 333 540 333 600 333 b 708 292 689 333 708 314 b 667 250 708 269 689 250 b 511 251 610 250 558 250 b 625 69 533 176 590 69 b 667 83 638 69 651 83 b 708 42 688 83 708 65 b 654 -21 708 10 674 -4 b 472 -319 565 -93 472 -208 b 528 -389 472 -367 493 -389 b 629 -303 567 -389 604 -358 b 667 -278 636 -287 650 -278 b 708 -319 692 -278 708 -299 b 704 -336 708 -325 707 -331 b 528 -472 674 -406 614 -472 b 389 -319 438 -472 389 -397 b 560 7 389 -186 476 -72 b 424 253 472 67 444 181 b 181 268 317 256 240 263 b 139 42 156 154 139 56 b 97 0 139 19 119 0 b 56 42 75 0 56 19 b 94 278 56 68 69 165 m 319 639 b 274 579 310 639 294 625 b 200 349 246 521 222 435 b 401 338 251 343 315 340 b 346 588 375 446 360 532 b 319 639 336 624 325 639 "},"ą":{"ha":694,"x_min":0,"x_max":0,"o":"m 597 -278 b 639 -319 622 -278 639 -299 b 635 -336 639 -325 638 -331 b 458 -472 604 -406 544 -472 b 319 -319 368 -472 319 -397 b 485 3 319 -189 403 -76 b 406 101 440 25 418 63 b 194 0 350 44 272 0 b 56 139 117 0 56 61 b 347 458 56 296 179 458 b 478 400 407 458 453 433 b 486 375 483 393 486 383 b 444 333 486 353 468 333 b 411 350 432 333 419 339 b 347 375 403 361 385 375 b 139 139 238 375 139 260 b 194 83 139 106 161 83 b 390 231 271 83 379 172 b 431 264 394 249 411 264 b 472 222 453 264 472 244 b 556 69 472 125 499 69 b 597 83 568 69 582 83 b 639 42 618 83 639 65 b 582 -22 639 10 603 -6 b 403 -319 494 -94 403 -210 b 458 -389 403 -367 424 -389 b 560 -303 497 -389 535 -358 b 597 -278 567 -287 581 -278 "},"Ć":{"ha":625,"x_min":0,"x_max":0,"o":"m 361 694 b 319 736 339 694 319 713 b 336 769 319 749 325 761 b 465 899 388 808 447 872 b 500 917 474 911 486 917 b 542 875 524 917 542 896 b 535 851 542 867 539 858 b 386 703 508 811 446 747 b 361 694 379 697 369 694 m 528 146 b 569 104 549 146 569 128 b 551 69 569 90 563 78 b 319 0 492 29 425 0 b 56 279 154 0 56 136 b 403 694 56 467 175 694 b 542 628 444 694 542 682 b 500 586 542 604 521 586 b 478 593 492 586 485 589 b 403 611 460 606 432 611 b 139 279 242 611 139 442 b 319 83 139 172 207 83 b 504 139 408 83 453 104 b 528 146 511 143 519 146 "},"ć":{"ha":556,"x_min":0,"x_max":0,"o":"m 444 875 b 486 833 468 875 486 856 b 478 808 486 825 483 815 b 344 567 439 757 385 661 b 306 542 338 551 322 542 b 264 583 281 542 264 563 b 267 600 264 589 264 594 b 411 858 310 700 367 799 b 444 875 419 869 432 875 m 417 403 b 375 361 417 378 396 361 b 357 365 369 361 363 363 b 306 375 342 374 331 375 b 139 194 222 375 139 285 b 250 83 139 126 182 83 b 435 146 313 83 356 93 b 458 153 442 150 450 153 b 500 111 479 153 500 135 b 482 76 500 97 494 85 b 250 0 394 18 326 0 b 56 194 138 0 56 82 b 306 458 56 326 167 458 b 417 403 346 458 417 450 "},"Ĉ":{"ha":625,"x_min":0,"x_max":0,"o":"m 528 146 b 569 104 549 146 569 128 b 551 69 569 90 563 78 b 319 0 492 29 425 0 b 56 279 154 0 56 136 b 403 694 56 467 175 694 b 542 628 444 694 542 682 b 500 586 542 604 521 586 b 478 593 492 586 485 589 b 403 611 460 606 432 611 b 139 279 242 611 139 442 b 319 83 139 172 207 83 b 504 139 408 83 453 104 b 528 146 511 143 519 146 m 319 750 b 278 792 294 750 278 771 b 285 814 278 799 281 807 b 417 917 319 869 356 917 b 539 792 493 917 521 843 b 542 778 540 788 542 782 b 500 736 542 757 525 736 b 461 764 483 736 467 747 b 417 833 440 824 424 833 b 354 769 408 833 389 825 b 319 750 346 757 333 750 "},"ĉ":{"ha":556,"x_min":0,"x_max":0,"o":"m 167 569 b 125 611 144 569 125 589 b 138 640 125 622 129 632 b 246 742 163 665 203 711 b 333 778 274 761 299 778 b 496 615 414 778 450 707 b 500 597 499 610 500 603 b 458 556 500 576 483 556 b 421 579 443 556 428 565 b 333 694 369 682 350 694 b 296 675 332 694 317 690 b 196 582 261 650 224 610 b 167 569 188 574 178 569 m 417 403 b 375 361 417 378 396 361 b 357 365 369 361 363 363 b 306 375 342 374 331 375 b 139 194 222 375 139 285 b 250 83 139 126 182 83 b 435 146 313 83 356 93 b 458 153 442 150 450 153 b 500 111 479 153 500 135 b 482 76 500 97 494 85 b 250 0 394 18 326 0 b 56 194 138 0 56 82 b 306 458 56 326 167 458 b 417 403 346 458 417 450 "},"Ċ":{"ha":625,"x_min":0,"x_max":0,"o":"m 528 146 b 569 104 549 146 569 128 b 551 69 569 90 563 78 b 319 0 492 29 425 0 b 56 279 154 0 56 136 b 403 694 56 467 175 694 b 542 628 444 694 542 682 b 500 586 542 604 521 586 b 478 593 492 586 485 589 b 403 611 460 606 432 611 b 139 279 242 611 139 442 b 319 83 139 172 207 83 b 504 139 408 83 453 104 b 528 146 511 143 519 146 m 347 847 b 389 889 347 871 365 889 b 458 847 417 889 458 875 b 417 806 458 824 440 806 b 347 847 389 806 347 819 "},"ċ":{"ha":556,"x_min":0,"x_max":0,"o":"m 306 722 b 347 653 333 722 347 681 b 306 611 347 629 329 611 b 264 681 282 611 264 657 b 306 722 264 704 282 722 m 417 403 b 375 361 417 378 396 361 b 357 365 369 361 363 363 b 306 375 342 374 331 375 b 139 194 222 375 139 285 b 250 83 139 126 182 83 b 435 146 313 83 356 93 b 458 153 442 150 450 153 b 500 111 479 153 500 135 b 482 76 500 97 494 85 b 250 0 394 18 326 0 b 56 194 138 0 56 82 b 306 458 56 326 167 458 b 417 403 346 458 417 450 "},"Č":{"ha":625,"x_min":0,"x_max":0,"o":"m 236 875 b 278 917 236 896 253 917 b 318 883 297 917 314 903 b 375 792 326 844 342 792 b 513 904 417 792 483 875 b 542 917 521 913 531 917 b 583 875 564 917 583 897 b 571 846 583 864 579 854 b 485 760 551 826 518 786 b 375 708 457 738 422 708 b 238 867 289 708 253 793 b 236 875 238 869 236 872 m 528 146 b 569 104 549 146 569 128 b 551 69 569 90 563 78 b 319 0 492 29 425 0 b 56 279 154 0 56 136 b 403 694 56 467 175 694 b 542 628 444 694 542 682 b 500 586 542 604 521 586 b 478 593 492 586 485 589 b 403 611 460 606 432 611 b 139 279 242 611 139 442 b 319 83 139 172 207 83 b 504 139 408 83 453 104 b 528 146 511 143 519 146 "},"č":{"ha":625,"x_min":0,"x_max":0,"o":"m 486 764 b 528 722 508 764 528 744 b 515 693 528 711 524 701 b 344 536 457 635 399 576 b 236 486 313 511 281 486 b 149 529 200 486 168 506 b 83 708 115 569 83 642 b 125 750 83 731 101 750 b 167 714 146 750 164 735 b 213 582 175 656 193 606 b 236 569 221 572 228 569 b 294 603 242 569 260 578 b 457 751 340 638 399 693 b 486 764 465 760 475 764 m 417 403 b 375 361 417 378 396 361 b 357 365 369 361 363 363 b 306 375 342 374 331 375 b 139 194 222 375 139 285 b 250 83 139 126 182 83 b 435 146 313 83 356 93 b 458 153 442 150 450 153 b 500 111 479 153 500 135 b 482 76 500 97 494 85 b 250 0 394 18 326 0 b 56 194 138 0 56 82 b 306 458 56 326 167 458 b 417 403 346 458 417 450 "},"Ď":{"ha":667,"x_min":0,"x_max":0,"o":"m 181 875 b 222 917 181 896 197 917 b 263 883 242 917 258 903 b 319 792 271 844 286 792 b 457 904 361 792 428 875 b 486 917 465 913 475 917 b 528 875 508 917 528 897 b 515 846 528 864 524 854 b 429 760 496 826 463 786 b 319 708 401 738 367 708 b 182 867 233 708 197 793 b 181 875 182 869 181 872 m 153 154 b 111 113 153 133 136 113 b 71 144 92 113 75 125 b 56 365 61 189 56 275 b 306 694 56 558 103 694 b 611 465 439 694 611 615 b 358 121 611 301 474 204 b 167 -26 289 71 219 21 b 139 -37 158 -33 149 -37 b 97 4 117 -37 97 -19 b 111 35 97 15 103 26 b 308 188 169 88 239 138 b 528 465 429 274 528 354 b 306 611 528 540 422 611 b 174 554 219 611 196 588 b 139 365 154 525 139 450 b 151 164 139 281 144 194 b 153 154 151 161 153 157 "},"ď":{"ha":681,"x_min":0,"x_max":0,"o":"m 125 875 b 167 917 125 896 142 917 b 207 883 186 917 203 903 b 264 792 215 844 231 792 b 401 904 306 792 372 875 b 431 917 410 913 419 917 b 472 875 453 917 472 897 b 460 846 472 864 468 854 b 374 760 440 826 407 786 b 264 708 346 738 311 708 b 126 867 178 708 142 793 b 125 875 126 869 125 872 m 400 336 b 347 375 400 363 379 375 b 139 153 250 375 139 256 b 194 83 139 106 160 83 l 207 83 b 393 303 243 83 315 96 b 400 336 392 308 400 331 m 625 42 b 583 0 625 17 604 0 b 565 4 578 0 571 1 b 458 236 554 10 458 65 l 458 240 b 194 0 364 14 246 0 b 56 153 104 0 56 75 b 347 458 56 300 194 458 b 435 433 382 458 408 456 b 514 879 472 575 493 697 b 556 917 517 900 535 917 b 597 874 582 917 597 893 b 588 769 597 860 590 796 b 546 319 575 632 557 464 b 542 236 543 285 542 254 b 603 78 542 111 600 79 b 625 42 617 69 625 56 "},"Đ":{"ha":722,"x_min":0,"x_max":0,"o":"m 56 375 b 97 417 56 397 75 417 b 212 420 137 417 175 418 b 233 664 220 523 229 616 b 171 643 210 658 186 651 b 153 639 165 640 158 639 b 111 681 132 639 111 656 b 135 718 111 696 121 711 b 361 764 201 751 300 764 b 667 458 536 764 667 633 b 236 0 667 204 497 0 b 133 18 174 0 140 15 b 111 56 118 26 111 42 b 156 97 111 82 136 97 b 194 86 171 97 178 89 b 206 336 195 155 200 245 b 97 333 171 334 135 333 b 56 375 75 333 56 353 m 583 458 b 361 681 583 589 492 681 b 318 678 349 681 335 679 b 296 426 315 643 305 542 b 453 444 354 431 406 438 l 458 444 b 500 403 481 444 500 428 b 464 361 500 382 485 364 b 290 341 413 354 354 347 b 278 86 283 248 278 155 b 583 458 465 106 583 256 "},"đ":{"ha":681,"x_min":0,"x_max":0,"o":"m 236 556 b 278 597 236 578 256 597 b 474 606 347 597 413 601 b 514 879 490 687 502 773 b 556 917 517 900 535 917 b 597 874 582 917 597 893 b 588 769 597 860 590 796 b 573 617 583 722 578 670 b 633 625 594 619 614 622 l 639 625 b 681 583 661 625 681 608 b 644 542 681 563 665 544 b 565 531 620 538 593 535 b 546 319 558 459 551 387 b 542 236 543 285 542 254 b 603 78 542 111 600 79 b 625 42 617 69 625 56 b 583 0 625 17 604 0 b 565 4 578 0 571 1 b 458 236 554 10 458 65 l 458 240 b 194 0 364 14 246 0 b 56 153 104 0 56 75 b 347 458 56 300 194 458 b 435 433 382 458 408 456 b 456 521 443 463 450 492 b 278 514 401 517 341 514 b 236 556 256 514 236 533 m 400 336 b 347 375 400 363 379 375 b 139 153 250 375 139 256 b 194 83 139 106 160 83 l 207 83 b 393 303 243 83 315 96 b 400 336 392 308 400 331 "},"Ē":{"ha":653,"x_min":0,"x_max":0,"o":"m 556 146 b 597 104 576 146 597 129 b 576 68 597 90 589 76 b 236 0 524 36 396 0 b 56 192 113 0 56 89 b 111 621 56 386 108 599 b 142 656 113 635 125 651 b 556 694 210 675 318 694 b 597 653 578 694 597 675 b 556 611 597 631 578 611 b 189 582 351 611 249 596 b 157 406 182 546 168 482 b 347 419 199 413 263 419 l 361 419 b 514 365 415 419 514 417 b 472 324 514 340 493 324 l 465 324 b 347 336 418 332 386 336 b 146 318 247 336 179 325 b 139 192 142 276 139 233 b 236 83 139 119 165 83 b 535 140 382 83 504 122 b 556 146 542 144 549 146 m 111 806 b 150 847 111 826 128 846 b 514 861 290 858 415 861 b 556 819 536 861 556 842 b 514 778 556 797 536 778 b 156 764 418 778 293 775 l 153 764 b 111 806 131 764 111 782 "},"ē":{"ha":542,"x_min":0,"x_max":0,"o":"m 28 653 b 67 694 28 674 44 693 b 431 708 207 706 332 708 b 472 667 453 708 472 689 b 431 625 472 644 453 625 b 72 611 335 625 210 622 l 69 611 b 28 653 47 611 28 629 m 278 0 b 56 236 144 0 56 104 b 264 458 56 353 140 458 b 403 319 342 458 403 397 b 219 94 403 215 313 125 b 278 83 236 88 256 83 b 426 121 329 83 361 88 b 444 125 432 124 439 125 b 486 83 465 125 486 108 b 463 46 486 68 476 53 b 278 0 389 10 338 0 m 319 319 b 264 375 319 353 297 375 b 139 236 193 375 139 314 b 151 167 139 210 143 186 b 319 319 228 167 319 250 "},"Ĕ":{"ha":653,"x_min":0,"x_max":0,"o":"m 139 861 b 181 903 139 883 157 903 b 213 888 193 903 204 897 b 319 833 249 843 288 833 b 485 904 378 833 436 856 b 514 917 493 913 503 917 b 556 875 536 917 556 897 b 543 846 556 864 551 854 b 319 750 481 783 400 750 b 149 835 268 750 201 768 b 139 861 143 842 139 851 m 556 146 b 597 104 576 146 597 129 b 576 68 597 90 589 76 b 236 0 524 36 396 0 b 56 192 113 0 56 89 b 111 621 56 386 108 599 b 142 656 113 635 125 651 b 556 694 210 675 318 694 b 597 653 578 694 597 675 b 556 611 597 631 578 611 b 189 582 351 611 249 596 b 157 406 182 546 168 482 b 347 419 199 413 263 419 l 361 419 b 514 365 415 419 514 417 b 472 324 514 340 493 324 l 465 324 b 347 336 418 332 386 336 b 146 318 247 336 179 325 b 139 192 142 276 139 233 b 236 83 139 119 165 83 b 535 140 382 83 504 122 b 556 146 542 144 549 146 "},"ĕ":{"ha":542,"x_min":0,"x_max":0,"o":"m 56 708 b 97 750 56 731 74 750 b 129 735 110 750 121 744 b 236 681 165 690 204 681 b 401 751 294 681 353 703 b 431 764 410 760 419 764 b 472 722 453 764 472 744 b 460 693 472 711 468 701 b 236 597 397 631 317 597 b 65 682 185 597 118 615 b 56 708 60 689 56 699 m 278 0 b 56 236 144 0 56 104 b 264 458 56 353 140 458 b 403 319 342 458 403 397 b 219 94 403 215 313 125 b 278 83 236 88 256 83 b 426 121 329 83 361 88 b 444 125 432 124 439 125 b 486 83 465 125 486 108 b 463 46 486 68 476 53 b 278 0 389 10 338 0 m 319 319 b 264 375 319 353 297 375 b 139 236 193 375 139 314 b 151 167 139 210 143 186 b 319 319 228 167 319 250 "},"Ė":{"ha":653,"x_min":0,"x_max":0,"o":"m 556 146 b 597 104 576 146 597 129 b 576 68 597 90 589 76 b 236 0 524 36 396 0 b 56 192 113 0 56 89 b 111 621 56 386 108 599 b 142 656 113 635 125 651 b 556 694 210 675 318 694 b 597 653 578 694 597 675 b 556 611 597 631 578 611 b 189 582 351 611 249 596 b 157 406 182 546 168 482 b 347 419 199 413 263 419 l 361 419 b 514 365 415 419 514 417 b 472 324 514 340 493 324 l 465 324 b 347 336 418 332 386 336 b 146 318 247 336 179 325 b 139 192 142 276 139 233 b 236 83 139 119 165 83 b 535 140 382 83 504 122 b 556 146 542 144 549 146 m 292 847 b 333 889 292 871 310 889 b 403 847 361 889 403 875 b 361 806 403 824 385 806 b 292 847 333 806 292 819 "},"ė":{"ha":542,"x_min":0,"x_max":0,"o":"m 264 736 b 306 694 288 736 306 718 b 264 625 306 667 292 625 b 222 667 240 625 222 643 b 264 736 222 694 236 736 m 278 0 b 56 236 144 0 56 104 b 264 458 56 353 140 458 b 403 319 342 458 403 397 b 219 94 403 215 313 125 b 278 83 236 88 256 83 b 426 121 329 83 361 88 b 444 125 432 124 439 125 b 486 83 465 125 486 108 b 463 46 486 68 476 53 b 278 0 389 10 338 0 m 319 319 b 264 375 319 353 297 375 b 139 236 193 375 139 314 b 151 167 139 210 143 186 b 319 319 228 167 319 250 "},"Ę":{"ha":708,"x_min":0,"x_max":0,"o":"m 569 347 b 528 306 569 322 549 306 b 519 307 525 306 522 307 b 251 319 483 314 460 319 b 194 36 218 219 194 36 b 153 0 192 15 174 0 b 111 42 128 0 111 22 b 56 500 111 185 56 338 b 458 722 56 689 329 722 b 619 707 531 722 576 715 b 653 667 639 703 653 686 b 611 625 653 642 632 625 b 603 626 608 625 606 626 b 458 639 563 635 525 639 b 139 500 310 639 139 589 b 161 308 139 438 149 376 b 222 403 171 343 179 403 b 536 388 457 403 492 396 b 569 347 556 383 569 367 m 611 -264 b 653 -306 636 -264 653 -285 b 649 -322 653 -311 651 -317 b 472 -458 618 -392 558 -458 b 333 -306 382 -458 333 -383 b 487 4 333 -182 408 -74 b 278 0 427 1 355 0 b 236 42 256 0 236 19 b 278 83 236 64 256 83 b 599 95 423 83 559 88 b 611 97 603 96 607 97 b 653 56 632 97 653 81 b 631 19 653 40 644 26 b 417 -306 537 -48 417 -180 b 472 -375 417 -353 438 -375 b 574 -289 511 -375 549 -344 b 611 -264 581 -274 594 -264 "},"ę":{"ha":542,"x_min":0,"x_max":0,"o":"m 319 319 b 264 375 319 353 297 375 b 139 236 193 375 139 314 b 151 167 139 210 143 186 b 319 319 228 167 319 250 m 278 0 b 56 236 144 0 56 104 b 264 458 56 353 140 458 b 403 319 342 458 403 397 b 219 94 403 215 313 125 b 278 83 236 88 256 83 b 426 121 329 83 361 88 b 439 125 430 123 435 124 b 444 125 441 125 443 125 b 486 83 465 125 486 108 b 463 46 486 68 476 53 b 462 45 462 46 462 46 b 250 -278 368 -23 250 -153 b 306 -347 250 -325 271 -347 b 407 -261 344 -347 382 -317 b 444 -236 414 -246 428 -236 b 486 -278 469 -236 486 -257 b 482 -294 486 -283 485 -289 b 306 -431 451 -364 392 -431 b 167 -278 215 -431 167 -356 b 290 0 167 -170 223 -74 b 278 0 286 0 282 0 "},"Ě":{"ha":653,"x_min":0,"x_max":0,"o":"m 181 875 b 222 917 181 896 197 917 b 263 883 242 917 258 903 b 319 792 271 844 286 792 b 457 904 361 792 428 875 b 486 917 465 913 475 917 b 528 875 508 917 528 897 b 515 846 528 864 524 854 b 429 760 496 826 463 786 b 319 708 401 738 367 708 b 182 867 233 708 197 793 b 181 875 182 869 181 872 m 556 146 b 597 104 576 146 597 129 b 576 68 597 90 589 76 b 236 0 524 36 396 0 b 56 192 113 0 56 89 b 111 621 56 386 108 599 b 142 656 113 635 125 651 b 556 694 210 675 318 694 b 597 653 578 694 597 675 b 556 611 597 631 578 611 b 189 582 351 611 249 596 b 157 406 182 546 168 482 b 347 419 199 413 263 419 l 361 419 b 514 365 415 419 514 417 b 472 324 514 340 493 324 l 465 324 b 347 336 418 332 386 336 b 146 318 247 336 179 325 b 139 192 142 276 139 233 b 236 83 139 119 165 83 b 535 140 382 83 504 122 b 556 146 542 144 549 146 "},"ě":{"ha":542,"x_min":0,"x_max":0,"o":"m 444 764 b 486 722 467 764 486 744 b 474 693 486 711 482 701 b 303 536 415 635 357 576 b 194 486 271 511 239 486 b 107 529 158 486 126 506 b 42 708 74 569 42 642 b 83 750 42 731 60 750 b 125 714 104 750 122 735 b 171 582 133 656 151 606 b 194 569 179 572 186 569 b 253 603 200 569 218 578 b 415 751 299 638 357 693 b 444 764 424 760 433 764 m 278 0 b 56 236 144 0 56 104 b 264 458 56 353 140 458 b 403 319 342 458 403 397 b 219 94 403 215 313 125 b 278 83 236 88 256 83 b 426 121 329 83 361 88 b 444 125 432 124 439 125 b 486 83 465 125 486 108 b 463 46 486 68 476 53 b 278 0 389 10 338 0 m 319 319 b 264 375 319 353 297 375 b 139 236 193 375 139 314 b 151 167 139 210 143 186 b 319 319 228 167 319 250 "},"Ĝ":{"ha":667,"x_min":0,"x_max":0,"o":"m 333 750 b 292 792 308 750 292 771 b 299 814 292 799 294 807 b 431 917 333 869 369 917 b 553 792 507 917 535 843 b 556 778 554 788 556 782 b 514 736 556 757 539 736 b 475 764 497 736 481 747 b 431 833 454 824 438 833 b 368 769 422 833 403 825 b 333 750 360 757 347 750 m 403 179 b 389 267 403 206 389 231 b 569 383 389 351 474 383 b 611 342 592 383 611 364 b 569 300 611 319 592 300 b 472 267 476 300 472 274 b 486 179 472 239 486 217 b 292 0 486 78 394 0 b 56 267 136 0 56 140 b 417 694 56 443 201 694 b 569 565 486 694 569 649 b 514 474 569 526 553 474 b 472 515 489 474 472 494 b 486 565 472 532 486 550 b 417 611 486 582 458 611 b 139 267 271 611 139 415 b 292 83 139 168 197 83 b 403 179 356 83 403 131 "},"ĝ":{"ha":514,"x_min":0,"x_max":0,"o":"m 125 569 b 83 611 103 569 83 589 b 96 640 83 622 88 632 b 204 742 121 665 161 711 b 292 778 232 761 257 778 b 454 615 372 778 408 707 b 458 597 457 610 458 603 b 417 556 458 576 442 556 b 379 579 401 556 386 565 b 292 694 328 682 308 694 b 254 675 290 694 275 690 b 154 582 219 650 182 610 b 125 569 146 574 136 569 m 208 -347 b 250 -389 208 -374 224 -389 b 333 -278 294 -389 333 -340 b 299 -131 333 -222 319 -174 b 208 -347 244 -210 208 -294 m 403 375 b 361 333 403 353 385 333 b 331 347 350 333 339 339 b 264 375 314 365 293 375 b 139 250 189 375 139 325 b 258 57 139 189 188 128 b 301 11 272 43 288 28 b 389 101 331 44 360 76 b 417 111 397 108 407 111 b 458 69 439 111 458 93 b 444 38 458 58 454 46 b 353 -58 415 13 383 -21 b 417 -278 389 -118 417 -190 b 250 -472 417 -368 358 -472 b 125 -347 179 -472 125 -418 b 249 -56 125 -254 182 -149 b 56 250 178 33 56 115 b 264 458 56 369 144 458 b 392 403 313 458 358 440 b 403 375 399 394 403 385 "},"Ğ":{"ha":667,"x_min":0,"x_max":0,"o":"m 208 861 b 250 903 208 883 226 903 b 282 888 263 903 274 897 b 389 833 318 843 357 833 b 554 904 447 833 506 856 b 583 917 563 913 572 917 b 625 875 606 917 625 897 b 613 846 625 864 621 854 b 389 750 550 783 469 750 b 218 835 338 750 271 768 b 208 861 213 842 208 851 m 403 179 b 389 267 403 206 389 231 b 569 383 389 351 474 383 b 611 342 592 383 611 364 b 569 300 611 319 592 300 b 472 267 476 300 472 274 b 486 179 472 239 486 217 b 292 0 486 78 394 0 b 56 267 136 0 56 140 b 417 694 56 443 201 694 b 569 565 486 694 569 649 b 514 474 569 526 553 474 b 472 515 489 474 472 494 b 486 565 472 532 486 550 b 417 611 486 582 458 611 b 139 267 271 611 139 415 b 292 83 139 168 197 83 b 403 179 356 83 403 131 "},"ğ":{"ha":514,"x_min":0,"x_max":0,"o":"m 56 708 b 97 750 56 731 74 750 b 129 735 110 750 121 744 b 236 681 165 690 204 681 b 401 751 294 681 353 703 b 431 764 410 760 419 764 b 472 722 453 764 472 744 b 460 693 472 711 468 701 b 236 597 397 631 317 597 b 65 682 185 597 118 615 b 56 708 60 689 56 699 m 208 -347 b 250 -389 208 -374 224 -389 b 333 -278 294 -389 333 -340 b 299 -131 333 -222 319 -174 b 208 -347 244 -210 208 -294 m 403 375 b 361 333 403 353 385 333 b 331 347 350 333 339 339 b 264 375 314 365 293 375 b 139 250 189 375 139 325 b 258 57 139 189 188 128 b 301 11 272 43 288 28 b 389 101 331 44 360 76 b 417 111 397 108 407 111 b 458 69 439 111 458 93 b 444 38 458 58 454 46 b 353 -58 415 13 383 -21 b 417 -278 389 -118 417 -190 b 250 -472 417 -368 358 -472 b 125 -347 179 -472 125 -418 b 249 -56 125 -254 182 -149 b 56 250 178 33 56 115 b 264 458 56 369 144 458 b 392 403 313 458 358 440 b 403 375 399 394 403 385 "},"Ġ":{"ha":667,"x_min":0,"x_max":0,"o":"m 403 179 b 389 267 403 206 389 231 b 569 383 389 351 474 383 b 611 342 592 383 611 364 b 569 300 611 319 592 300 b 472 267 476 300 472 274 b 486 179 472 239 486 217 b 292 0 486 78 394 0 b 56 267 136 0 56 140 b 417 694 56 443 201 694 b 569 565 486 694 569 649 b 514 474 569 526 553 474 b 472 515 489 474 472 494 b 486 565 472 532 486 550 b 417 611 486 582 458 611 b 139 267 271 611 139 415 b 292 83 139 168 197 83 b 403 179 356 83 403 131 m 361 847 b 403 889 361 871 379 889 b 472 847 431 889 472 875 b 431 806 472 824 454 806 b 361 847 403 806 361 819 "},"ġ":{"ha":514,"x_min":0,"x_max":0,"o":"m 264 736 b 306 694 288 736 306 718 b 264 625 306 667 292 625 b 222 667 240 625 222 643 b 264 736 222 694 236 736 m 208 -347 b 250 -389 208 -374 224 -389 b 333 -278 294 -389 333 -340 b 299 -131 333 -222 319 -174 b 208 -347 244 -210 208 -294 m 403 375 b 361 333 403 353 385 333 b 331 347 350 333 339 339 b 264 375 314 365 293 375 b 139 250 189 375 139 325 b 258 57 139 189 188 128 b 301 11 272 43 288 28 b 389 101 331 44 360 76 b 417 111 397 108 407 111 b 458 69 439 111 458 93 b 444 38 458 58 454 46 b 353 -58 415 13 383 -21 b 417 -278 389 -118 417 -190 b 250 -472 417 -368 358 -472 b 125 -347 179 -472 125 -418 b 249 -56 125 -254 182 -149 b 56 250 178 33 56 115 b 264 458 56 369 144 458 b 392 403 313 458 358 440 b 403 375 399 394 403 385 "},"Ģ":{"ha":667,"x_min":0,"x_max":0,"o":"m 250 -83 b 292 -42 250 -62 267 -42 b 347 -139 333 -42 347 -99 b 235 -310 347 -201 306 -253 b 208 -319 228 -315 218 -319 b 167 -278 186 -319 167 -301 b 182 -246 167 -265 172 -254 b 264 -139 250 -192 264 -160 b 250 -83 264 -121 250 -101 m 403 194 b 389 292 403 225 389 253 b 569 417 389 378 469 417 b 611 375 592 417 611 397 b 569 333 611 353 592 333 b 472 292 481 333 472 308 b 486 194 472 261 486 233 b 292 0 486 88 399 0 b 56 292 132 0 56 157 b 417 764 56 483 197 764 b 569 625 489 764 569 710 b 514 528 569 583 556 528 b 472 569 489 528 472 549 b 486 625 472 589 486 606 b 417 681 486 651 456 681 b 139 292 275 681 139 461 b 292 83 139 176 201 83 b 403 194 351 83 403 135 "},"ģ":{"ha":514,"x_min":0,"x_max":0,"o":"m 306 542 b 264 500 306 521 289 500 b 208 604 219 500 208 565 b 319 761 208 667 240 732 b 333 764 324 763 329 764 b 375 722 354 764 375 747 b 347 683 375 706 364 689 b 292 604 304 668 292 639 b 306 542 292 582 306 561 m 208 -347 b 250 -389 208 -374 224 -389 b 333 -278 294 -389 333 -340 b 299 -131 333 -222 319 -174 b 208 -347 244 -210 208 -294 m 403 375 b 361 333 403 353 385 333 b 331 347 350 333 339 339 b 264 375 314 365 293 375 b 139 250 189 375 139 325 b 258 57 139 189 188 128 b 301 11 272 43 288 28 b 389 101 331 44 360 76 b 417 111 397 108 407 111 b 458 69 439 111 458 93 b 444 38 458 58 454 46 b 353 -58 415 13 383 -21 b 417 -278 389 -118 417 -190 b 250 -472 417 -368 358 -472 b 125 -347 179 -472 125 -418 b 249 -56 125 -254 182 -149 b 56 250 178 33 56 115 b 264 458 56 369 144 458 b 392 403 313 458 358 440 b 403 375 399 394 403 385 "},"Ĥ":{"ha":722,"x_min":0,"x_max":0,"o":"m 319 750 b 278 792 294 750 278 771 b 285 814 278 799 281 807 b 417 917 319 869 356 917 b 539 792 493 917 521 843 b 542 778 540 788 542 782 b 500 736 542 757 525 736 b 461 764 483 736 467 747 b 417 833 440 824 424 833 b 354 769 408 833 389 825 b 319 750 346 757 333 750 m 139 167 b 222 83 139 135 186 83 b 264 117 251 83 264 99 b 242 254 264 139 254 192 b 139 167 158 215 139 194 m 667 42 b 625 0 667 21 650 0 b 585 31 607 0 590 13 b 532 429 563 111 542 244 b 319 289 471 361 386 319 b 347 117 335 217 347 158 b 222 0 347 49 290 0 b 56 167 133 0 56 88 b 224 339 56 258 136 300 b 181 653 203 442 181 557 b 222 694 181 675 200 694 b 264 653 244 694 264 675 b 303 374 264 575 283 471 b 528 629 413 424 524 493 b 569 669 528 651 547 669 b 611 628 593 669 611 649 b 665 53 611 350 639 146 b 667 42 667 49 667 46 "},"ĥ":{"ha":639,"x_min":0,"x_max":0,"o":"m 583 42 b 542 0 583 21 567 0 b 504 24 526 0 511 10 b 472 250 478 76 472 138 b 444 375 472 371 454 375 b 335 250 419 375 393 351 b 167 83 283 161 249 83 b 56 236 76 83 56 181 b 111 875 56 478 111 731 b 153 917 111 897 131 917 b 194 875 175 917 194 897 b 139 236 194 714 139 467 b 167 167 139 181 160 167 b 263 292 182 167 203 186 b 444 458 315 385 358 458 b 556 250 546 458 556 351 b 579 60 556 140 564 90 b 583 42 582 54 583 47 m 319 750 b 278 792 294 750 278 771 b 285 814 278 799 281 807 b 417 917 319 869 356 917 b 539 792 493 917 521 843 b 542 778 540 788 542 782 b 500 736 542 757 525 736 b 461 764 483 736 467 747 b 417 833 440 824 424 833 b 354 769 408 833 389 825 b 319 750 346 757 333 750 "},"Ħ":{"ha":681,"x_min":0,"x_max":0,"o":"m 625 500 b 583 458 625 478 606 458 b 560 458 576 458 568 458 b 569 42 564 289 569 102 b 528 0 569 19 550 0 b 486 42 506 0 486 19 b 482 250 486 76 485 156 b 296 244 393 250 306 246 b 214 214 247 239 228 228 b 167 40 194 194 171 119 b 125 0 165 18 147 0 b 83 38 101 0 85 21 b 56 681 83 39 56 304 b 97 722 56 703 75 722 b 139 681 119 722 139 703 b 140 531 139 628 139 578 b 475 541 212 538 351 541 b 472 722 473 617 472 682 b 514 764 472 744 492 764 b 556 722 536 764 556 744 b 558 542 556 682 557 617 b 583 542 567 542 575 542 b 625 500 606 542 625 522 m 150 267 b 481 333 218 342 303 332 b 477 458 479 374 478 417 b 143 446 347 456 200 453 b 150 267 145 380 147 320 "},"ħ":{"ha":639,"x_min":0,"x_max":0,"o":"m 375 667 b 417 625 396 667 417 650 b 383 585 417 606 403 589 b 159 522 291 565 218 545 b 139 236 148 429 139 331 b 167 167 139 181 160 167 b 263 292 182 167 203 186 b 444 458 315 385 358 458 b 556 250 546 458 556 351 b 579 60 556 140 564 90 b 583 42 582 54 583 47 b 542 0 583 21 567 0 b 504 24 526 0 511 10 b 472 250 478 76 472 138 b 444 375 472 371 454 375 b 335 250 419 375 393 351 b 167 83 283 161 249 83 b 56 236 76 83 56 181 b 71 482 56 318 62 402 b 63 478 68 481 65 479 b 42 472 56 474 49 472 b 0 514 21 472 0 489 b 21 550 0 529 7 543 b 82 580 40 561 60 571 b 111 875 96 697 111 800 b 153 917 111 897 131 917 b 194 875 175 917 194 897 b 171 615 194 803 183 713 b 367 665 226 633 291 650 b 375 667 369 665 372 667 "},"Ĩ":{"ha":333,"x_min":0,"x_max":0,"o":"m 42 819 b 0 861 21 819 0 838 b 83 917 0 897 46 917 b 182 869 136 917 168 883 b 222 847 196 856 206 847 b 292 882 246 847 265 882 b 333 840 315 882 333 863 b 324 813 333 831 331 821 b 222 764 300 786 264 764 b 124 811 169 764 138 797 b 83 833 110 825 100 833 b 42 819 72 833 56 819 m 208 42 b 167 0 208 21 192 0 b 126 33 147 0 131 14 b 111 250 114 93 111 153 b 125 653 111 350 125 586 b 167 694 125 675 144 694 b 208 653 189 694 208 675 b 194 250 208 581 194 344 b 207 50 194 153 197 101 b 208 42 207 47 208 44 "},"ĩ":{"ha":403,"x_min":0,"x_max":0,"o":"m 69 667 b 28 708 49 667 28 685 b 111 764 28 744 74 764 b 210 717 164 764 196 731 b 250 694 224 703 233 694 b 319 729 274 694 293 729 b 361 688 343 729 361 710 b 351 660 361 678 358 668 b 250 611 328 633 292 611 b 151 658 197 611 165 644 b 111 681 138 672 128 681 b 69 667 100 681 83 667 m 306 97 b 347 56 326 97 347 81 b 222 0 347 6 265 0 b 56 194 108 0 56 100 b 85 426 56 239 61 325 b 125 458 89 446 106 458 b 167 417 150 458 167 438 b 165 407 167 414 165 410 b 139 194 144 314 139 233 b 222 83 139 122 169 83 b 293 94 246 83 268 86 b 306 97 297 96 301 97 "},"Ī":{"ha":333,"x_min":0,"x_max":0,"o":"m 42 764 b 0 806 21 764 0 781 b 33 846 0 825 14 842 b 292 861 96 858 193 861 b 333 819 314 861 333 842 b 292 778 333 797 314 778 b 50 765 196 778 99 775 b 42 764 47 765 44 764 m 208 42 b 167 0 208 21 192 0 b 126 33 147 0 131 14 b 111 250 114 93 111 153 b 125 653 111 350 125 586 b 167 694 125 675 144 694 b 208 653 189 694 208 675 b 194 250 208 581 194 344 b 207 50 194 153 197 101 b 208 42 207 47 208 44 "},"ī":{"ha":417,"x_min":0,"x_max":0,"o":"m 69 611 b 28 653 49 611 28 628 b 61 693 28 672 42 689 b 319 708 124 706 221 708 b 361 667 342 708 361 689 b 319 625 361 644 342 625 b 78 613 224 625 126 622 b 69 611 75 613 72 611 m 361 97 b 403 56 382 97 403 81 b 278 0 403 6 321 0 b 111 194 164 0 111 100 b 140 426 111 239 117 325 b 181 458 144 446 161 458 b 222 417 206 458 222 438 b 221 407 222 414 221 410 b 194 194 200 314 194 233 b 278 83 194 122 225 83 b 349 94 301 83 324 86 b 361 97 353 96 357 97 "},"Ĭ":{"ha":333,"x_min":0,"x_max":0,"o":"m 0 861 b 42 903 0 883 18 903 b 74 888 54 903 65 897 b 153 847 100 854 122 847 b 263 904 193 847 224 865 b 292 917 271 913 281 917 b 333 875 314 917 333 897 b 321 846 333 864 329 854 b 153 764 276 801 224 764 b 10 835 100 764 50 785 b 0 861 4 842 0 851 m 208 42 b 167 0 208 21 192 0 b 126 33 147 0 131 14 b 111 250 114 93 111 153 b 125 653 111 350 125 586 b 167 694 125 675 144 694 b 208 653 189 694 208 675 b 194 250 208 581 194 344 b 207 50 194 153 197 101 b 208 42 207 47 208 44 "},"ĭ":{"ha":403,"x_min":0,"x_max":0,"o":"m 28 708 b 69 750 28 731 46 750 b 101 735 82 750 93 744 b 181 694 128 701 150 694 b 290 751 221 694 251 713 b 319 764 299 760 308 764 b 361 722 342 764 361 744 b 349 693 361 711 357 701 b 181 611 304 649 251 611 b 38 682 128 611 78 632 b 28 708 32 689 28 699 m 306 97 b 347 56 326 97 347 81 b 222 0 347 6 265 0 b 56 194 108 0 56 100 b 85 426 56 239 61 325 b 125 458 89 446 106 458 b 167 417 150 458 167 438 b 165 407 167 414 165 410 b 139 194 144 314 139 233 b 222 83 139 122 169 83 b 293 94 246 83 268 86 b 306 97 297 96 301 97 "},"Į":{"ha":458,"x_min":0,"x_max":0,"o":"m 389 40 b 349 0 389 19 374 0 b 346 0 348 0 347 0 b 139 -319 253 -69 139 -197 b 194 -389 139 -367 160 -389 b 296 -303 233 -389 271 -358 b 333 -278 303 -287 317 -278 b 375 -319 358 -278 375 -299 b 371 -336 375 -325 374 -331 b 194 -472 340 -406 281 -472 b 56 -319 104 -472 56 -397 b 296 65 56 -150 196 -10 b 278 292 287 104 278 173 b 292 681 278 392 292 628 b 333 722 292 703 311 722 b 375 681 356 722 375 703 b 361 292 375 622 361 386 b 389 40 361 89 389 78 "},"į":{"ha":403,"x_min":0,"x_max":0,"o":"m 306 -264 b 347 -306 331 -264 347 -285 b 343 -322 347 -311 346 -317 b 167 -458 313 -392 253 -458 b 28 -306 76 -458 28 -383 b 182 5 28 -182 103 -74 b 56 194 96 25 56 112 b 85 426 56 239 61 325 b 125 458 89 446 106 458 b 167 417 150 458 167 438 b 165 407 167 414 165 410 b 139 194 144 314 139 233 b 222 83 139 122 169 83 b 288 93 244 83 265 86 b 306 97 293 96 299 97 b 347 56 326 97 347 81 b 326 20 347 39 339 28 b 111 -306 232 -48 111 -179 b 167 -375 111 -353 132 -375 b 268 -289 206 -375 243 -344 b 306 -264 275 -274 289 -264 m 194 722 b 236 653 222 722 236 681 b 194 611 236 629 218 611 b 153 681 171 611 153 657 b 194 722 153 704 171 722 "},"İ":{"ha":333,"x_min":0,"x_max":0,"o":"m 167 889 b 208 847 190 889 208 871 b 167 778 208 819 194 778 b 125 819 143 778 125 796 b 167 889 125 847 139 889 m 208 42 b 167 0 208 21 192 0 b 126 33 147 0 131 14 b 111 250 114 93 111 153 b 125 653 111 350 125 586 b 167 694 125 675 144 694 b 208 653 189 694 208 675 b 194 250 208 581 194 344 b 207 50 194 153 197 101 b 208 42 207 47 208 44 "},"ı":{"ha":403,"x_min":0,"x_max":0,"o":"m 306 97 b 347 56 326 97 347 81 b 222 0 347 6 265 0 b 56 194 108 0 56 100 b 85 426 56 239 61 325 b 125 458 89 446 106 458 b 167 417 150 458 167 438 b 165 407 167 414 165 410 b 139 194 144 314 139 233 b 222 83 139 122 169 83 b 293 94 246 83 268 86 b 306 97 297 96 301 97 "},"Ĳ":{"ha":972,"x_min":0,"x_max":0,"o":"m 56 139 b 97 181 56 163 76 181 b 119 174 106 181 113 178 b 514 83 206 118 367 83 b 778 236 668 83 778 124 b 743 625 778 326 743 521 l 743 636 b 375 681 640 661 504 681 b 114 629 285 681 176 657 b 97 625 108 626 103 625 b 56 667 76 625 56 642 b 81 704 56 683 65 697 b 375 764 157 738 271 764 b 749 721 506 764 642 746 b 792 764 753 746 767 764 b 833 722 817 764 833 743 b 831 700 833 714 832 707 b 917 639 865 689 917 681 b 875 597 917 614 896 597 b 826 613 857 597 843 607 b 861 236 829 518 861 336 b 514 0 861 43 665 0 b 75 104 356 0 183 35 b 56 139 63 113 56 125 m 361 139 b 319 181 336 139 319 160 b 333 333 319 196 333 233 b 306 597 333 501 306 579 b 347 639 306 619 322 639 b 388 608 365 639 382 626 b 417 333 389 606 417 500 b 401 169 417 236 403 175 b 361 139 396 153 381 139 "},"ĳ":{"ha":847,"x_min":0,"x_max":0,"o":"m 417 -347 b 444 -389 417 -375 435 -389 b 528 -236 476 -389 528 -340 b 519 -103 528 -197 525 -151 b 417 -347 457 -187 417 -275 m 333 -347 b 506 11 333 -221 418 -92 b 468 226 494 83 481 161 b 250 42 426 133 354 42 b 56 250 128 42 56 136 l 56 263 b 111 417 56 313 58 417 b 153 375 136 417 153 396 b 151 367 153 372 151 369 b 139 250 140 313 139 290 b 250 125 139 169 178 125 b 431 418 332 125 425 283 b 472 458 432 439 449 458 b 513 425 492 458 508 444 b 578 89 528 351 556 222 b 726 215 631 140 682 185 b 750 222 733 221 742 222 b 792 181 771 222 792 204 b 774 146 792 167 785 154 b 593 -15 722 110 653 50 b 611 -236 603 -89 611 -171 b 444 -472 611 -354 551 -472 b 333 -347 371 -472 333 -403 m 500 764 b 542 722 524 764 542 746 b 500 653 542 694 528 653 b 458 694 476 653 458 671 b 500 764 458 722 472 764 m 153 667 b 194 708 153 690 171 708 b 264 667 222 708 264 694 b 222 625 264 643 246 625 b 153 667 194 625 153 639 "},"Ĵ":{"ha":667,"x_min":0,"x_max":0,"o":"m 444 750 b 403 792 419 750 403 771 b 410 814 403 799 406 807 b 542 917 444 869 481 917 b 664 792 618 917 646 843 b 667 778 665 788 667 782 b 625 736 667 757 650 736 b 586 764 608 736 592 747 b 542 833 565 824 549 833 b 479 769 533 833 514 825 b 444 750 471 757 458 750 m 556 694 b 597 653 581 694 597 674 b 592 632 597 646 596 639 b 569 478 585 619 569 561 b 597 204 569 399 597 300 b 264 0 597 44 386 0 b 56 129 194 0 56 14 b 133 253 56 214 131 251 b 153 258 140 256 146 258 b 194 217 174 258 194 240 b 139 129 194 174 139 181 b 264 83 139 108 181 83 b 514 204 392 83 514 139 b 486 478 514 283 486 382 b 519 674 486 569 499 636 b 556 694 526 688 540 694 "},"ĵ":{"ha":583,"x_min":0,"x_max":0,"o":"m 139 -347 b 167 -389 139 -375 157 -389 b 264 -194 196 -389 264 -326 b 258 -94 264 -162 261 -129 b 139 -347 188 -185 139 -279 m 244 17 b 194 417 224 147 194 286 b 236 458 194 439 214 458 b 278 417 258 458 278 439 b 317 92 278 317 299 204 b 463 215 368 142 419 186 b 486 222 469 221 478 222 b 528 181 507 222 528 204 b 510 146 528 167 521 154 b 332 -10 461 113 392 54 b 347 -194 340 -69 347 -135 b 167 -472 347 -340 276 -472 b 56 -347 93 -472 56 -403 b 244 17 56 -224 150 -89 m 97 569 b 56 611 75 569 56 589 b 68 640 56 622 60 632 b 176 742 93 665 133 711 b 264 778 204 761 229 778 b 426 615 344 778 381 707 b 431 597 429 610 431 603 b 389 556 431 576 414 556 b 351 579 374 556 358 565 b 264 694 300 682 281 694 b 226 675 263 694 247 690 b 126 582 192 650 154 610 b 97 569 118 574 108 569 "},"Ķ":{"ha":708,"x_min":0,"x_max":0,"o":"m 306 -83 b 347 -42 306 -62 322 -42 b 403 -139 389 -42 403 -99 b 290 -310 403 -201 361 -253 b 264 -319 283 -315 274 -319 b 222 -278 242 -319 222 -301 b 238 -246 222 -265 228 -254 b 319 -139 306 -192 319 -160 b 306 -83 319 -121 306 -101 m 611 764 b 653 722 633 764 653 744 b 640 693 653 711 649 701 b 461 411 572 625 515 518 b 640 71 490 285 567 144 b 653 42 649 63 653 53 b 611 0 653 19 633 0 b 582 13 600 0 590 4 b 407 300 514 81 447 188 b 329 135 381 242 357 190 b 183 0 297 69 263 0 b 56 194 68 0 56 131 b 69 640 56 349 64 468 b 111 681 71 663 89 681 b 153 639 135 681 153 661 b 139 194 153 464 139 346 b 183 83 139 119 160 83 b 254 171 201 83 217 97 b 582 751 344 351 439 608 b 611 764 590 760 600 764 "},"ķ":{"ha":653,"x_min":0,"x_max":0,"o":"m 292 -181 b 333 -139 292 -160 308 -139 b 389 -236 375 -139 389 -196 b 276 -407 389 -299 347 -350 b 250 -417 269 -412 260 -417 b 208 -375 228 -417 208 -399 b 224 -343 208 -362 214 -351 b 306 -236 292 -289 306 -257 b 292 -181 306 -218 292 -199 m 556 111 b 597 69 578 111 597 93 b 472 0 597 18 507 0 b 267 224 351 0 293 143 b 264 236 265 228 264 232 b 306 278 264 257 281 278 b 344 249 324 278 339 265 b 472 83 374 163 426 83 b 531 103 493 83 510 88 b 556 111 538 108 547 111 m 139 917 b 181 875 164 917 181 896 b 179 867 181 872 179 869 b 139 417 153 732 139 567 b 150 275 139 374 143 325 b 439 458 204 381 289 438 l 444 458 b 486 417 467 458 486 442 b 450 375 486 396 471 378 b 269 301 358 363 303 335 b 179 114 232 264 207 210 b 139 83 174 96 157 83 b 99 113 118 83 103 97 b 56 417 76 188 56 314 b 99 883 56 572 69 740 b 139 917 103 903 119 917 "},"ĸ":{"ha":819,"x_min":0,"x_max":0,"o":"m 722 153 b 764 111 743 153 764 135 b 746 76 764 97 758 85 b 514 0 658 18 590 0 b 319 194 401 0 319 82 b 332 268 319 218 324 244 b 136 26 217 172 143 46 b 97 0 129 10 114 0 b 56 42 71 0 56 21 b 57 54 56 46 56 50 b 83 417 67 86 83 268 b 125 458 83 439 103 458 b 167 417 147 458 167 439 b 160 211 167 349 164 276 b 535 458 240 310 371 431 l 542 458 b 583 417 563 458 583 442 b 560 379 583 401 574 386 b 403 194 429 314 403 244 b 514 83 403 126 446 83 b 699 146 576 83 619 93 b 722 153 706 150 714 153 "},"Ĺ":{"ha":556,"x_min":0,"x_max":0,"o":"m 278 694 b 236 736 256 694 236 713 b 253 769 236 749 242 761 b 382 899 304 808 364 872 b 417 917 390 911 403 917 b 458 875 440 917 458 896 b 451 851 458 867 456 858 b 303 703 425 811 363 747 b 278 694 296 697 286 694 m 118 694 b 167 590 161 694 167 657 b 139 154 167 461 139 236 b 458 83 139 119 206 83 b 500 42 481 83 500 64 b 458 0 500 19 481 0 b 56 154 239 0 56 14 b 83 590 56 247 83 469 b 76 653 83 632 76 636 b 118 694 76 675 93 694 "},"ĺ":{"ha":569,"x_min":0,"x_max":0,"o":"m 514 639 b 472 681 489 639 472 660 b 474 693 472 685 472 689 b 486 764 481 718 486 742 b 465 853 486 797 479 832 b 458 875 461 860 458 868 b 500 917 458 896 476 917 b 569 764 557 917 569 807 b 514 639 569 718 563 639 m 208 292 b 167 333 186 292 167 311 b 179 363 167 344 171 354 b 319 681 283 467 319 581 b 264 792 319 757 281 792 b 189 707 236 792 217 775 b 139 319 160 633 139 483 b 278 83 139 181 179 83 b 443 168 333 83 378 103 b 472 181 451 176 461 181 b 514 139 494 181 514 161 b 501 110 514 128 510 118 b 278 0 428 36 361 0 b 56 319 99 0 56 181 b 111 738 56 489 74 644 b 264 875 139 808 181 875 b 403 681 358 875 403 771 b 238 304 403 558 356 422 b 208 292 229 296 219 292 "},"Ļ":{"ha":556,"x_min":0,"x_max":0,"o":"m 236 -83 b 278 -42 236 -62 253 -42 b 333 -139 319 -42 333 -99 b 221 -310 333 -201 292 -253 b 194 -319 214 -315 204 -319 b 153 -278 172 -319 153 -301 b 168 -246 153 -265 158 -254 b 250 -139 236 -192 250 -160 b 236 -83 250 -121 236 -101 m 118 764 b 167 653 163 764 167 724 b 139 167 167 510 139 258 b 458 83 139 119 208 83 b 500 42 481 83 500 64 b 458 0 500 19 481 0 b 56 167 236 0 56 19 b 83 653 56 269 83 518 b 76 722 83 700 76 707 b 118 764 76 743 93 764 "},"ļ":{"ha":569,"x_min":0,"x_max":0,"o":"m 236 -83 b 278 -42 236 -62 253 -42 b 333 -139 319 -42 333 -99 b 221 -310 333 -201 292 -253 b 194 -319 214 -315 204 -319 b 153 -278 172 -319 153 -301 b 168 -246 153 -265 158 -254 b 250 -139 236 -192 250 -160 b 236 -83 250 -121 236 -101 m 208 292 b 167 333 186 292 167 311 b 179 363 167 344 171 354 b 319 681 283 467 319 581 b 264 792 319 757 281 792 b 189 707 236 792 217 775 b 139 319 160 633 139 483 b 278 83 139 181 179 83 b 443 168 333 83 378 103 b 472 181 451 176 461 181 b 514 139 494 181 514 161 b 501 110 514 128 510 118 b 278 0 428 36 361 0 b 56 319 99 0 56 181 b 111 738 56 489 74 644 b 264 875 139 808 181 875 b 403 681 358 875 403 771 b 238 304 403 558 356 422 b 208 292 229 296 219 292 "},"Ľ":{"ha":556,"x_min":0,"x_max":0,"o":"m 153 875 b 194 917 153 896 169 917 b 235 883 214 917 231 903 b 292 792 243 844 258 792 b 429 904 333 792 400 875 b 458 917 438 913 447 917 b 500 875 481 917 500 897 b 488 846 500 864 496 854 b 401 760 468 826 435 786 b 292 708 374 738 339 708 b 154 867 206 708 169 793 b 153 875 154 869 153 872 m 118 694 b 167 590 161 694 167 657 b 139 154 167 461 139 236 b 458 83 139 119 206 83 b 500 42 481 83 500 64 b 458 0 500 19 481 0 b 56 154 239 0 56 14 b 83 590 56 247 83 469 b 76 653 83 632 76 636 b 118 694 76 675 93 694 "},"ľ":{"ha":569,"x_min":0,"x_max":0,"o":"m 549 708 b 431 875 469 708 431 797 b 472 917 431 897 450 917 b 514 875 494 917 514 897 b 549 792 514 851 532 792 b 629 893 567 792 614 864 b 667 917 636 907 651 917 b 708 875 692 917 708 896 b 704 857 708 869 707 863 b 549 708 675 800 625 708 m 208 292 b 167 333 186 292 167 311 b 179 363 167 344 171 354 b 319 681 283 467 319 581 b 264 792 319 757 281 792 b 189 707 236 792 217 775 b 139 319 160 633 139 483 b 278 83 139 181 179 83 b 443 168 333 83 378 103 b 472 181 451 176 461 181 b 514 139 494 181 514 161 b 501 110 514 128 510 118 b 278 0 428 36 361 0 b 56 319 99 0 56 181 b 111 738 56 489 74 644 b 264 875 139 808 181 875 b 403 681 358 875 403 771 b 238 304 403 558 356 422 b 208 292 229 296 219 292 "},"Ŀ":{"ha":667,"x_min":0,"x_max":0,"o":"m 500 278 b 542 319 500 301 518 319 b 611 278 569 319 611 306 b 569 236 611 254 593 236 b 500 278 542 236 500 250 m 118 764 b 167 653 163 764 167 724 b 139 167 167 510 139 258 b 458 83 139 119 208 83 b 500 42 481 83 500 64 b 458 0 500 19 481 0 b 56 167 236 0 56 19 b 83 653 56 269 83 518 b 76 722 83 700 76 707 b 118 764 76 743 93 764 "},"ŀ":{"ha":639,"x_min":0,"x_max":0,"o":"m 542 431 b 583 389 565 431 583 413 b 542 319 583 361 569 319 b 500 361 518 319 500 338 b 542 431 500 389 514 431 m 403 139 b 444 97 425 139 444 119 b 433 68 444 86 440 76 b 250 0 428 63 363 0 b 56 278 97 0 56 165 b 319 917 56 457 108 917 b 444 764 392 917 444 849 b 365 557 444 649 367 558 b 333 542 357 547 346 542 b 292 583 310 542 292 561 b 361 764 292 624 361 657 b 319 833 361 818 331 833 b 139 278 225 833 139 488 b 250 83 139 168 181 83 b 375 128 326 83 371 124 b 403 139 382 135 392 139 "},"Ł":{"ha":556,"x_min":0,"x_max":0,"o":"m 118 764 b 167 653 163 764 167 724 b 162 518 167 614 165 567 b 394 582 225 542 301 563 b 403 583 397 582 400 583 b 444 542 424 583 444 567 b 411 501 444 522 431 506 b 155 426 301 478 219 454 b 139 167 148 321 139 218 b 458 83 139 119 208 83 b 500 42 481 83 500 64 b 458 0 500 19 481 0 b 56 167 236 0 56 19 b 69 389 56 216 62 300 b 28 431 48 389 28 406 b 49 467 28 446 35 460 b 76 481 57 472 66 476 b 83 653 80 545 83 606 b 76 722 83 700 76 707 b 118 764 76 743 93 764 "},"ł":{"ha":569,"x_min":0,"x_max":0,"o":"m 403 778 b 444 736 424 778 444 761 b 411 696 444 717 431 700 b 402 694 408 695 405 695 b 403 681 403 689 403 685 b 238 304 403 558 356 422 b 208 292 229 296 219 292 b 167 333 186 292 167 311 b 179 363 167 344 171 354 b 319 675 281 465 318 576 b 166 625 259 659 208 643 b 139 319 149 545 139 436 b 278 83 139 181 179 83 b 443 168 333 83 378 103 b 472 181 451 176 461 181 b 514 139 494 181 514 161 b 501 110 514 128 510 118 b 278 0 428 36 361 0 b 56 319 99 0 56 181 b 73 583 56 415 61 506 b 69 583 72 583 71 583 b 28 625 49 583 28 600 b 49 661 28 640 35 654 b 93 684 63 669 78 677 b 111 738 99 704 105 721 b 264 875 139 808 181 875 b 386 775 326 875 366 831 b 394 776 389 775 392 776 b 403 778 397 776 400 778 m 197 725 b 303 756 229 736 264 746 b 264 792 290 780 273 792 b 197 725 239 792 220 778 "},"Ń":{"ha":778,"x_min":0,"x_max":0,"o":"m 417 694 b 375 736 394 694 375 713 b 392 769 375 749 381 761 b 521 899 443 808 503 872 b 556 917 529 911 542 917 b 597 875 579 917 597 896 b 590 851 597 867 594 858 b 442 703 564 811 501 747 b 417 694 435 697 425 694 m 97 -42 b 56 0 72 -42 56 -21 b 58 14 56 4 57 10 b 168 663 82 79 135 510 b 208 694 172 682 189 694 b 246 669 226 694 240 682 b 360 265 300 551 326 390 b 458 83 393 136 426 83 b 543 190 496 83 522 117 b 640 664 563 260 611 560 b 681 694 646 682 663 694 b 722 653 706 694 722 674 b 721 642 722 649 722 646 b 624 168 694 546 646 249 b 458 0 603 92 560 0 b 279 243 343 0 307 133 b 221 485 260 319 242 403 b 136 -14 192 299 163 57 b 97 -42 131 -31 114 -42 "},"ń":{"ha":819,"x_min":0,"x_max":0,"o":"m 639 875 b 681 833 663 875 681 856 b 546 557 681 735 600 625 b 514 542 538 547 526 542 b 472 583 490 542 472 561 b 482 610 472 593 476 603 b 597 838 536 676 590 769 b 639 875 600 858 618 875 m 764 42 b 722 0 764 19 744 0 b 693 13 711 0 701 4 b 625 264 640 65 625 125 b 597 333 625 321 611 333 b 357 22 572 333 511 317 b 319 0 350 8 335 0 b 278 42 294 0 278 21 b 181 375 278 289 228 375 b 126 346 168 375 150 369 b 97 333 118 338 108 333 b 56 375 75 333 56 353 b 68 404 56 386 60 396 b 181 458 100 436 138 458 b 354 190 297 458 340 329 b 597 417 460 367 526 417 b 708 264 694 417 708 318 b 751 71 708 125 721 101 b 764 42 760 63 764 53 "},"Ņ":{"ha":778,"x_min":0,"x_max":0,"o":"m 347 -83 b 389 -42 347 -62 364 -42 b 444 -139 431 -42 444 -99 b 332 -310 444 -201 403 -253 b 306 -319 325 -315 315 -319 b 264 -278 283 -319 264 -301 b 279 -246 264 -265 269 -254 b 361 -139 347 -192 361 -160 b 347 -83 361 -121 347 -101 m 97 -42 b 56 0 72 -42 56 -21 b 58 13 56 4 57 8 b 168 731 83 88 135 561 b 208 764 172 750 189 764 b 247 738 228 764 242 750 b 360 288 300 608 326 429 b 458 83 393 143 429 83 b 543 204 493 83 522 119 b 640 732 563 282 611 617 b 681 764 644 750 663 764 b 722 722 706 764 722 743 b 721 713 722 719 722 715 b 624 185 694 606 646 274 b 458 0 603 103 563 0 b 279 268 340 0 307 146 b 221 536 260 353 242 446 b 136 -12 192 332 161 64 b 97 -42 131 -29 115 -42 "},"ņ":{"ha":819,"x_min":0,"x_max":0,"o":"m 375 -83 b 417 -42 375 -62 392 -42 b 472 -139 458 -42 472 -99 b 360 -310 472 -201 431 -253 b 333 -319 353 -315 343 -319 b 292 -278 311 -319 292 -301 b 307 -246 292 -265 297 -254 b 389 -139 375 -192 389 -160 b 375 -83 389 -121 375 -101 m 764 42 b 722 0 764 19 744 0 b 693 13 711 0 701 4 b 625 264 640 65 625 125 b 597 333 625 321 611 333 b 357 22 572 333 511 317 b 319 0 350 8 335 0 b 278 42 294 0 278 21 b 181 375 278 289 228 375 b 126 346 168 375 150 369 b 97 333 118 338 108 333 b 56 375 75 333 56 353 b 68 404 56 386 60 396 b 181 458 100 436 138 458 b 354 190 297 458 340 329 b 597 417 460 367 526 417 b 708 264 694 417 708 318 b 751 71 708 125 721 101 b 764 42 760 63 764 53 "},"Ň":{"ha":778,"x_min":0,"x_max":0,"o":"m 292 875 b 333 917 292 896 308 917 b 374 883 353 917 369 903 b 431 792 382 844 397 792 b 568 904 472 792 539 875 b 597 917 576 913 586 917 b 639 875 619 917 639 897 b 626 846 639 864 635 854 b 540 760 607 826 574 786 b 431 708 513 738 478 708 b 293 867 344 708 308 793 b 292 875 293 869 292 872 m 97 -42 b 56 0 72 -42 56 -21 b 58 14 56 4 57 10 b 168 663 82 79 135 510 b 208 694 172 682 189 694 b 246 669 226 694 240 682 b 360 265 300 551 326 390 b 458 83 393 136 426 83 b 543 190 496 83 522 117 b 640 664 563 260 611 560 b 681 694 646 682 663 694 b 722 653 706 694 722 674 b 721 642 722 649 722 646 b 624 168 694 546 646 249 b 458 0 603 92 560 0 b 279 243 343 0 307 133 b 221 485 260 319 242 403 b 136 -14 192 299 163 57 b 97 -42 131 -31 114 -42 "},"ň":{"ha":819,"x_min":0,"x_max":0,"o":"m 694 764 b 736 722 717 764 736 744 b 724 693 736 711 732 701 b 553 536 665 635 607 576 b 444 486 521 511 489 486 b 357 529 408 486 376 506 b 292 708 324 569 292 642 b 333 750 292 731 310 750 b 375 714 354 750 372 735 b 421 582 383 656 401 606 b 444 569 429 572 436 569 b 503 603 450 569 468 578 b 665 751 549 638 607 693 b 694 764 674 760 683 764 m 764 42 b 722 0 764 19 744 0 b 693 13 711 0 701 4 b 625 264 640 65 625 125 b 597 333 625 321 611 333 b 357 22 572 333 511 317 b 319 0 350 8 335 0 b 278 42 294 0 278 21 b 181 375 278 289 228 375 b 126 346 168 375 150 369 b 97 333 118 338 108 333 b 56 375 75 333 56 353 b 68 404 56 386 60 396 b 181 458 100 436 138 458 b 354 190 297 458 340 329 b 597 417 460 367 526 417 b 708 264 694 417 708 318 b 751 71 708 125 721 101 b 764 42 760 63 764 53 "},"ŉ":{"ha":1083,"x_min":0,"x_max":0,"o":"m 222 917 b 264 875 246 917 264 897 b 129 599 264 776 183 667 b 97 583 121 589 110 583 b 56 625 74 583 56 603 b 65 651 56 635 60 644 b 181 879 119 718 174 811 b 222 917 183 900 201 917 m 988 181 b 1028 139 1011 181 1028 160 b 1022 118 1028 132 1026 125 b 861 0 1022 118 967 0 b 736 208 751 0 736 104 b 708 333 736 329 718 333 b 621 218 686 333 667 310 b 472 69 582 140 547 69 b 361 250 374 69 361 174 b 326 375 361 367 339 375 b 232 253 303 375 283 357 b 194 229 225 239 210 229 b 153 271 169 229 153 250 b 157 289 153 276 154 283 b 326 458 203 379 239 458 b 444 250 425 458 444 356 b 472 153 444 160 460 153 b 546 254 481 153 501 165 b 708 417 583 329 619 417 b 819 208 810 417 819 310 b 861 83 819 90 832 83 b 950 161 896 83 944 153 b 988 181 957 174 972 181 "},"Ŋ":{"ha":819,"x_min":0,"x_max":0,"o":"m 389 -194 b 417 -236 389 -222 407 -236 b 574 -24 458 -236 529 -181 b 389 -194 465 -58 389 -122 m 611 292 b 458 681 611 538 563 681 b 181 42 271 681 181 383 b 139 0 181 19 161 0 b 97 42 117 0 97 19 b 458 764 97 367 174 764 b 694 292 660 764 694 518 b 681 82 694 215 690 144 b 722 83 694 83 708 83 b 764 42 744 83 764 64 b 722 0 764 19 744 0 b 664 -4 704 0 685 -1 b 417 -319 621 -193 532 -319 b 306 -194 343 -319 306 -250 b 593 68 306 -44 463 38 b 611 292 604 133 611 207 "},"ŋ":{"ha":861,"x_min":0,"x_max":0,"o":"m 431 -347 b 458 -389 431 -375 449 -389 b 607 -15 536 -389 592 -269 b 431 -347 510 -121 431 -249 m 764 222 b 806 181 785 222 806 204 b 788 146 806 167 799 154 b 693 71 760 126 724 99 b 458 -472 686 -200 651 -472 b 347 -347 385 -472 347 -403 b 611 108 347 -182 488 -8 l 611 153 b 542 333 611 261 590 333 b 303 26 492 333 400 263 b 264 0 296 11 281 0 b 222 43 238 0 222 24 b 224 51 222 46 224 49 b 250 250 244 133 250 183 b 181 375 250 332 225 375 b 126 346 168 375 150 369 b 97 333 118 338 108 333 b 56 375 75 333 56 353 b 68 404 56 386 60 396 b 181 458 100 436 138 458 b 333 267 294 458 329 349 b 542 417 397 361 465 417 b 694 181 675 417 692 265 b 764 222 714 196 736 222 "},"Ō":{"ha":764,"x_min":0,"x_max":0,"o":"m 181 806 b 219 847 181 826 197 846 b 583 861 360 858 485 861 b 625 819 606 861 625 842 b 583 778 625 797 606 778 b 225 764 488 778 363 775 l 222 764 b 181 806 200 764 181 782 m 264 574 b 222 614 243 574 222 590 b 240 649 222 628 229 640 b 417 694 247 654 308 694 b 708 378 599 694 708 532 b 347 0 708 183 568 0 b 56 267 176 0 56 104 b 192 503 56 382 119 469 b 208 507 197 506 203 507 b 250 465 229 507 250 490 b 225 428 250 450 240 435 b 139 267 186 411 139 351 b 347 83 139 154 213 83 b 625 378 515 83 625 222 b 417 611 625 499 540 611 b 264 574 310 611 301 574 "},"ō":{"ha":597,"x_min":0,"x_max":0,"o":"m 111 653 b 150 694 111 674 128 693 b 514 708 290 706 415 708 b 556 667 536 708 556 689 b 514 625 556 644 536 625 b 156 611 418 625 293 622 l 153 611 b 111 653 131 611 111 629 m 139 389 b 181 347 163 389 181 368 b 174 324 181 339 178 331 b 139 208 150 289 139 249 b 264 83 139 133 189 83 b 458 264 368 83 458 165 b 347 375 458 332 415 375 b 274 354 319 375 293 368 b 250 347 267 349 258 347 b 208 389 229 347 208 365 b 347 458 208 443 307 458 b 542 264 460 458 542 376 b 264 0 542 113 410 0 b 56 208 144 0 56 89 b 104 371 56 265 72 322 b 139 389 113 383 125 389 "},"Ŏ":{"ha":764,"x_min":0,"x_max":0,"o":"m 208 861 b 250 903 208 883 226 903 b 282 888 263 903 274 897 b 389 833 318 843 357 833 b 554 904 447 833 506 856 b 583 917 563 913 572 917 b 625 875 606 917 625 897 b 613 846 625 864 621 854 b 389 750 550 783 469 750 b 218 835 338 750 271 768 b 208 861 213 842 208 851 m 264 574 b 222 614 243 574 222 590 b 240 649 222 628 229 640 b 417 694 247 654 308 694 b 708 378 599 694 708 532 b 347 0 708 183 568 0 b 56 267 176 0 56 104 b 192 503 56 382 119 469 b 208 507 197 506 203 507 b 250 465 229 507 250 490 b 225 428 250 450 240 435 b 139 267 186 411 139 351 b 347 83 139 154 213 83 b 625 378 515 83 625 222 b 417 611 625 499 540 611 b 264 574 310 611 301 574 "},"ŏ":{"ha":597,"x_min":0,"x_max":0,"o":"m 139 708 b 181 750 139 731 157 750 b 213 735 193 750 204 744 b 319 681 249 690 288 681 b 485 751 378 681 436 703 b 514 764 493 760 503 764 b 556 722 536 764 556 744 b 543 693 556 711 551 701 b 319 597 481 631 400 597 b 149 682 268 597 201 615 b 139 708 143 689 139 699 m 139 389 b 181 347 163 389 181 368 b 174 324 181 339 178 331 b 139 208 150 289 139 249 b 264 83 139 133 189 83 b 458 264 368 83 458 165 b 347 375 458 332 415 375 b 274 354 319 375 293 368 b 250 347 267 349 258 347 b 208 389 229 347 208 365 b 347 458 208 443 307 458 b 542 264 460 458 542 376 b 264 0 542 113 410 0 b 56 208 144 0 56 89 b 104 371 56 265 72 322 b 139 389 113 383 125 389 "},"Ő":{"ha":764,"x_min":0,"x_max":0,"o":"m 451 694 b 410 736 426 694 410 715 b 417 763 410 746 414 756 b 324 713 381 742 350 725 b 306 708 318 710 311 708 b 264 750 285 708 264 725 b 272 774 264 758 268 767 b 338 893 300 814 319 854 b 375 917 344 908 360 917 b 417 875 400 917 417 896 b 413 856 417 868 414 858 b 507 911 444 874 476 893 b 528 917 514 915 521 917 b 569 875 551 917 569 897 b 561 849 569 865 567 856 b 490 722 528 807 504 763 b 451 694 485 706 468 694 m 264 574 b 222 614 243 574 222 590 b 240 649 222 628 229 640 b 417 694 247 654 308 694 b 708 378 599 694 708 532 b 347 0 708 183 568 0 b 56 267 176 0 56 104 b 192 503 56 382 119 469 b 208 507 197 506 203 507 b 250 465 229 507 250 490 b 225 428 250 450 240 435 b 139 267 186 411 139 351 b 347 83 139 154 213 83 b 625 378 515 83 625 222 b 417 611 625 499 540 611 b 264 574 310 611 301 574 "},"ő":{"ha":597,"x_min":0,"x_max":0,"o":"m 333 833 b 375 792 358 833 375 813 b 346 707 375 764 358 733 b 538 815 415 747 486 789 b 556 819 543 818 550 819 b 597 778 576 819 597 803 b 585 749 597 767 593 757 b 469 571 526 690 488 626 b 431 542 464 554 449 542 b 389 583 406 542 389 563 b 413 649 389 607 403 629 b 254 560 356 615 297 581 b 236 556 249 557 243 556 b 194 597 213 556 194 575 b 201 621 194 606 196 614 b 293 804 247 686 278 753 b 333 833 299 822 315 833 m 139 389 b 181 347 163 389 181 368 b 174 324 181 339 178 331 b 139 208 150 289 139 249 b 264 83 139 133 189 83 b 458 264 368 83 458 165 b 347 375 458 332 415 375 b 274 354 319 375 293 368 b 250 347 267 349 258 347 b 208 389 229 347 208 365 b 347 458 208 443 307 458 b 542 264 460 458 542 376 b 264 0 542 113 410 0 b 56 208 144 0 56 89 b 104 371 56 265 72 322 b 139 389 113 383 125 389 "},"Œ":{"ha":1208,"x_min":0,"x_max":0,"o":"m 1111 153 b 1153 111 1132 153 1153 135 b 1135 76 1153 97 1147 85 b 792 0 1082 40 951 0 b 619 139 693 0 639 61 b 347 0 557 56 464 0 b 56 292 174 0 56 118 b 190 551 56 415 117 515 b 208 556 196 554 203 556 b 250 514 229 556 250 539 b 226 476 250 499 240 483 b 139 292 189 457 139 390 b 347 83 139 160 215 83 b 616 330 484 83 586 190 b 625 426 618 363 621 395 b 417 681 621 561 535 681 b 264 639 310 681 304 639 b 222 679 243 639 222 656 b 238 714 222 692 228 706 b 417 764 244 719 308 764 b 654 619 524 764 605 703 b 667 686 661 655 665 679 b 696 719 668 701 681 714 b 1111 764 764 742 872 764 b 1153 722 1133 764 1153 744 b 1111 681 1153 700 1133 681 b 744 649 906 681 803 665 b 711 442 738 608 722 531 b 903 458 753 450 818 458 l 917 458 b 1069 403 969 458 1069 456 b 1028 361 1069 378 1049 361 b 1019 363 1025 361 1022 363 b 903 375 972 372 942 375 b 705 356 806 375 739 365 b 699 320 703 344 701 332 b 694 208 696 283 694 245 b 792 83 694 122 724 83 b 1088 146 938 83 1057 126 b 1111 153 1094 150 1103 153 "},"œ":{"ha":986,"x_min":0,"x_max":0,"o":"m 653 319 b 806 403 742 319 806 354 b 736 458 806 429 775 458 b 615 322 672 458 629 404 b 653 319 629 319 642 319 m 417 333 b 458 375 417 356 436 375 b 476 371 465 375 471 374 b 533 346 496 361 515 353 b 736 542 551 443 618 542 b 889 403 808 542 889 488 b 653 236 889 271 744 236 b 614 239 640 236 628 238 b 792 83 628 143 689 83 b 879 96 831 83 839 86 b 889 97 882 97 886 97 b 931 56 910 97 931 81 b 792 0 931 4 843 0 b 540 188 664 0 572 76 b 292 0 522 68 401 0 b 56 236 158 0 56 103 b 264 458 56 353 140 458 b 375 403 304 458 375 450 b 333 361 375 378 354 361 b 315 365 328 361 321 363 b 264 375 300 374 289 375 b 139 236 193 375 139 314 b 292 83 139 147 203 83 b 458 215 382 83 458 143 b 429 304 458 264 449 285 b 417 333 421 313 417 322 "},"Ŕ":{"ha":778,"x_min":0,"x_max":0,"o":"m 403 694 b 361 736 381 694 361 713 b 378 769 361 749 367 761 b 507 899 429 808 489 872 b 542 917 515 911 528 917 b 583 875 565 917 583 896 b 576 851 583 867 581 858 b 428 703 550 811 488 747 b 403 694 421 697 411 694 m 167 42 b 125 0 167 21 150 0 b 86 28 108 0 92 11 b 56 229 71 71 56 138 b 101 432 56 325 83 393 b 528 694 169 586 340 694 b 722 540 619 694 722 650 b 618 381 722 469 678 421 b 417 217 519 315 417 265 b 681 83 417 165 569 83 b 722 42 703 83 722 64 b 681 0 722 19 703 0 b 333 217 569 0 333 68 b 571 450 333 343 503 404 b 639 540 622 485 639 511 b 528 611 639 581 603 611 b 176 399 371 611 231 519 b 139 229 161 363 139 308 b 164 56 139 146 151 88 b 167 42 165 51 167 46 "},"ŕ":{"ha":722,"x_min":0,"x_max":0,"o":"m 417 875 b 458 833 440 875 458 856 b 324 557 458 735 378 625 b 292 542 315 547 304 542 b 250 583 268 542 250 561 b 260 610 250 593 254 603 b 375 838 314 676 368 769 b 417 875 378 858 396 875 m 153 264 b 111 222 153 243 136 222 b 56 319 71 222 56 274 b 292 458 56 419 190 458 b 472 283 382 458 456 397 b 569 83 494 131 528 83 b 625 97 607 83 599 97 b 667 56 647 97 667 78 b 569 0 667 19 633 0 b 389 272 444 0 408 133 b 292 375 378 353 340 375 b 139 319 249 375 139 358 b 153 264 139 310 153 285 "},"Ŗ":{"ha":778,"x_min":0,"x_max":0,"o":"m 347 -83 b 389 -42 347 -62 364 -42 b 444 -139 431 -42 444 -99 b 332 -310 444 -201 403 -253 b 306 -319 325 -315 315 -319 b 264 -278 283 -319 264 -301 b 279 -246 264 -265 269 -254 b 361 -139 347 -192 361 -160 b 347 -83 361 -121 347 -101 m 167 42 b 125 0 167 21 150 0 b 86 29 107 0 92 13 b 56 250 71 76 56 149 b 100 474 56 354 82 431 b 528 764 168 642 338 764 b 722 597 622 764 722 711 b 619 425 722 524 679 469 b 417 236 524 353 417 297 b 681 83 417 169 574 83 b 722 42 703 83 722 64 b 681 0 722 19 703 0 b 333 236 565 0 333 81 b 569 492 333 369 499 439 b 639 597 621 531 639 560 b 528 681 639 650 600 681 b 178 443 374 681 232 581 b 139 250 163 403 139 340 b 164 54 139 157 151 90 b 167 42 165 50 167 46 "},"ŗ":{"ha":722,"x_min":0,"x_max":0,"o":"m 278 -83 b 319 -42 278 -62 294 -42 b 375 -139 361 -42 375 -99 b 263 -310 375 -201 333 -253 b 236 -319 256 -315 246 -319 b 194 -278 214 -319 194 -301 b 210 -246 194 -265 200 -254 b 292 -139 278 -192 292 -160 b 278 -83 292 -121 278 -101 m 153 264 b 111 222 153 243 136 222 b 56 319 71 222 56 274 b 292 458 56 419 190 458 b 472 283 382 458 456 397 b 569 83 494 131 528 83 b 625 97 607 83 599 97 b 667 56 647 97 667 78 b 569 0 667 19 633 0 b 389 272 444 0 408 133 b 292 375 378 353 340 375 b 139 319 249 375 139 358 b 153 264 139 310 153 285 "},"Ř":{"ha":778,"x_min":0,"x_max":0,"o":"m 278 875 b 319 917 278 896 294 917 b 360 883 339 917 356 903 b 417 792 368 844 383 792 b 554 904 458 792 525 875 b 583 917 563 913 572 917 b 625 875 606 917 625 897 b 613 846 625 864 621 854 b 526 760 593 826 560 786 b 417 708 499 738 464 708 b 279 867 331 708 294 793 b 278 875 279 869 278 872 m 167 42 b 125 0 167 21 150 0 b 86 28 108 0 92 11 b 56 229 71 71 56 138 b 101 432 56 325 83 393 b 528 694 169 586 340 694 b 722 540 619 694 722 650 b 618 381 722 469 678 421 b 417 217 519 315 417 265 b 681 83 417 165 569 83 b 722 42 703 83 722 64 b 681 0 722 19 703 0 b 333 217 569 0 333 68 b 571 450 333 343 503 404 b 639 540 622 485 639 511 b 528 611 639 581 603 611 b 176 399 371 611 231 519 b 139 229 161 363 139 308 b 164 56 139 146 151 88 b 167 42 165 51 167 46 "},"ř":{"ha":722,"x_min":0,"x_max":0,"o":"m 472 764 b 514 722 494 764 514 744 b 501 693 514 711 510 701 b 331 536 443 635 385 576 b 222 486 299 511 267 486 b 135 529 186 486 154 506 b 69 708 101 569 69 642 b 111 750 69 731 88 750 b 153 714 132 750 150 735 b 199 582 161 656 179 606 b 222 569 207 572 214 569 b 281 603 228 569 246 578 b 443 751 326 638 385 693 b 472 764 451 760 461 764 m 153 264 b 111 222 153 243 136 222 b 56 319 71 222 56 274 b 292 458 56 419 190 458 b 472 283 382 458 456 397 b 569 83 494 131 528 83 b 625 97 607 83 599 97 b 667 56 647 97 667 78 b 569 0 667 19 633 0 b 389 272 444 0 408 133 b 292 375 378 353 340 375 b 139 319 249 375 139 358 b 153 264 139 310 153 285 "},"Ś":{"ha":653,"x_min":0,"x_max":0,"o":"m 347 694 b 306 736 325 694 306 713 b 322 769 306 749 311 761 b 451 899 374 808 433 872 b 486 917 460 911 472 917 b 528 875 510 917 528 896 b 521 851 528 867 525 858 b 372 703 494 811 432 747 b 347 694 365 697 356 694 m 451 418 b 410 458 431 418 410 433 b 472 553 410 508 472 494 b 389 611 472 585 446 611 b 153 465 286 611 153 524 b 346 346 153 429 214 385 b 597 167 458 313 597 278 b 503 54 597 108 549 74 b 97 0 408 11 251 0 b 56 42 75 0 56 19 b 97 83 56 64 75 83 b 469 129 249 83 397 97 b 514 167 507 146 514 164 b 321 265 514 192 458 224 b 69 465 203 301 69 351 b 389 694 69 607 269 694 b 556 553 471 694 556 646 b 469 422 556 461 474 424 b 451 418 464 419 457 418 "},"ś":{"ha":764,"x_min":0,"x_max":0,"o":"m 639 875 b 681 833 663 875 681 856 b 546 557 681 735 600 625 b 514 542 538 547 526 542 b 472 583 490 542 472 561 b 482 610 472 593 476 603 b 597 838 536 676 590 769 b 639 875 600 858 618 875 m 97 0 b 56 42 74 0 56 21 b 63 64 56 50 58 57 b 514 458 188 257 357 458 b 708 236 629 458 708 336 b 472 0 708 106 596 0 b 361 39 406 0 365 35 b 347 69 351 47 347 58 b 389 111 347 93 367 111 b 472 83 424 111 418 83 b 625 236 551 83 625 153 b 514 375 625 303 565 375 b 132 19 421 375 257 215 b 97 0 124 7 111 0 "},"Ŝ":{"ha":653,"x_min":0,"x_max":0,"o":"m 306 750 b 264 792 281 750 264 771 b 271 814 264 799 267 807 b 403 917 306 869 342 917 b 525 792 479 917 507 843 b 528 778 526 788 528 782 b 486 736 528 757 511 736 b 447 764 469 736 453 747 b 403 833 426 824 410 833 b 340 769 394 833 375 825 b 306 750 332 757 319 750 m 451 418 b 410 458 431 418 410 433 b 472 553 410 508 472 494 b 389 611 472 585 446 611 b 153 465 286 611 153 524 b 346 346 153 429 214 385 b 597 167 458 313 597 278 b 503 54 597 108 549 74 b 97 0 408 11 251 0 b 56 42 75 0 56 19 b 97 83 56 64 75 83 b 469 129 249 83 397 97 b 514 167 507 146 514 164 b 321 265 514 192 458 224 b 69 465 203 301 69 351 b 389 694 69 607 269 694 b 556 553 471 694 556 646 b 469 422 556 461 474 424 b 451 418 464 419 457 418 "},"ŝ":{"ha":764,"x_min":0,"x_max":0,"o":"m 708 583 b 667 542 708 561 689 542 b 638 554 656 542 646 546 b 553 690 590 601 578 639 b 528 722 538 721 529 722 b 493 694 528 722 517 721 b 397 563 458 656 417 594 b 361 542 389 550 375 542 b 319 583 336 542 319 563 b 325 604 319 590 321 597 b 432 750 347 642 392 706 b 528 806 458 779 486 806 b 628 726 585 806 613 757 b 696 613 658 667 660 649 b 708 583 704 604 708 594 m 97 0 b 56 42 74 0 56 21 b 63 64 56 50 58 57 b 514 458 188 257 357 458 b 708 236 629 458 708 336 b 472 0 708 106 596 0 b 361 39 406 0 365 35 b 347 69 351 47 347 58 b 389 111 347 93 367 111 b 472 83 424 111 418 83 b 625 236 551 83 625 153 b 514 375 625 303 565 375 b 132 19 421 375 257 215 b 97 0 124 7 111 0 "},"Ş":{"ha":653,"x_min":0,"x_max":0,"o":"m 451 465 b 410 506 431 465 410 481 b 472 611 410 557 472 540 b 389 681 472 653 442 681 b 153 514 290 681 153 586 b 346 372 153 467 218 415 b 597 181 460 335 597 297 b 504 60 597 121 550 83 b 375 20 468 42 424 29 b 375 14 375 18 375 16 b 403 -139 375 -40 403 -90 b 278 -264 403 -210 349 -264 b 163 -207 231 -264 192 -243 b 153 -181 157 -200 153 -190 b 194 -139 153 -158 171 -139 b 226 -154 207 -139 218 -144 b 278 -181 242 -174 256 -181 b 319 -139 304 -181 319 -165 b 308 -82 319 -124 318 -110 b 292 8 299 -53 292 -27 b 97 0 230 2 164 0 b 56 42 75 0 56 19 b 97 83 56 64 75 83 b 468 135 247 83 397 100 b 514 181 506 153 514 171 b 321 294 514 217 457 249 b 69 514 199 335 69 394 b 389 764 69 664 265 764 b 556 611 475 764 556 708 b 471 469 556 515 476 472 b 451 465 465 467 458 465 "},"ş":{"ha":764,"x_min":0,"x_max":0,"o":"m 97 0 b 56 42 74 0 56 21 b 63 64 56 50 58 57 b 500 458 185 254 328 458 b 708 236 624 458 708 353 b 539 11 708 128 632 42 b 611 -125 575 -22 611 -67 b 486 -250 611 -196 557 -250 b 371 -193 439 -250 400 -229 b 361 -167 365 -186 361 -176 b 403 -125 361 -144 379 -125 b 435 -140 415 -125 426 -131 b 486 -167 450 -160 464 -167 b 528 -125 513 -167 528 -151 b 360 40 528 -61 407 -7 b 347 69 351 49 347 58 b 389 111 347 93 367 111 b 415 101 399 111 408 107 b 472 83 426 93 454 83 b 625 236 551 83 625 153 b 500 375 625 314 571 375 b 132 19 394 375 260 218 b 97 0 124 7 111 0 "},"Š":{"ha":653,"x_min":0,"x_max":0,"o":"m 222 875 b 264 917 222 896 239 917 b 304 883 283 917 300 903 b 361 792 313 844 328 792 b 499 904 403 792 469 875 b 528 917 507 913 517 917 b 569 875 550 917 569 897 b 557 846 569 864 565 854 b 471 760 538 826 504 786 b 361 708 443 738 408 708 b 224 867 275 708 239 793 b 222 875 224 869 222 872 m 451 418 b 410 458 431 418 410 433 b 472 553 410 508 472 494 b 389 611 472 585 446 611 b 153 465 286 611 153 524 b 346 346 153 429 214 385 b 597 167 458 313 597 278 b 503 54 597 108 549 74 b 97 0 408 11 251 0 b 56 42 75 0 56 19 b 97 83 56 64 75 83 b 469 129 249 83 397 97 b 514 167 507 146 514 164 b 321 265 514 192 458 224 b 69 465 203 301 69 351 b 389 694 69 607 269 694 b 556 553 471 694 556 646 b 469 422 556 461 474 424 b 451 418 464 419 457 418 "},"š":{"ha":764,"x_min":0,"x_max":0,"o":"m 694 764 b 736 722 717 764 736 744 b 724 693 736 711 732 701 b 553 536 665 635 607 576 b 444 486 521 511 489 486 b 357 529 408 486 376 506 b 292 708 324 569 292 642 b 333 750 292 731 310 750 b 375 714 354 750 372 735 b 421 582 383 656 401 606 b 444 569 429 572 436 569 b 503 603 450 569 468 578 b 665 751 549 638 607 693 b 694 764 674 760 683 764 m 97 0 b 56 42 74 0 56 21 b 63 64 56 50 58 57 b 514 458 188 257 357 458 b 708 236 629 458 708 336 b 472 0 708 106 596 0 b 361 39 406 0 365 35 b 347 69 351 47 347 58 b 389 111 347 93 367 111 b 472 83 424 111 418 83 b 625 236 551 83 625 153 b 514 375 625 303 565 375 b 132 19 421 375 257 215 b 97 0 124 7 111 0 "},"Ţ":{"ha":681,"x_min":0,"x_max":0,"o":"m 181 -194 b 222 -153 181 -172 199 -153 b 254 -168 235 -153 246 -158 b 306 -194 269 -187 283 -194 b 347 -153 332 -194 347 -179 b 336 -96 347 -137 346 -124 b 319 0 326 -65 319 -37 b 283 625 319 272 304 538 b 107 599 215 618 158 610 b 97 597 104 599 100 597 b 56 639 76 597 56 614 b 88 679 56 658 68 675 b 625 722 217 708 388 722 b 667 681 647 722 667 703 b 625 639 667 658 647 639 b 368 632 528 639 443 636 b 403 0 393 514 403 265 b 431 -153 403 -54 431 -104 b 306 -278 431 -224 376 -278 b 190 -221 258 -278 219 -257 b 181 -194 185 -214 181 -204 "},"ţ":{"ha":556,"x_min":0,"x_max":0,"o":"m 458 125 b 500 83 479 125 500 107 b 482 49 500 69 494 57 b 402 8 455 30 429 17 b 403 0 402 6 403 3 b 431 -111 403 -42 431 -74 b 263 -275 431 -199 347 -247 b 250 -278 258 -276 254 -278 b 208 -236 229 -278 208 -261 b 238 -197 208 -218 221 -203 b 347 -111 319 -169 347 -135 b 338 -81 347 -106 346 -97 b 319 0 324 -54 319 -26 b 320 2 319 1 319 1 b 167 292 187 23 167 193 b 169 376 167 314 168 343 b 97 375 147 376 122 375 b 56 417 75 375 56 394 b 97 458 56 439 75 458 b 175 460 125 458 151 458 b 194 792 183 582 194 722 b 236 833 194 814 214 833 b 278 792 258 833 278 814 b 258 464 278 719 267 582 b 390 483 326 469 371 476 b 403 486 394 485 399 486 b 444 444 424 486 444 469 b 415 406 444 426 432 411 b 253 379 383 394 331 385 b 250 292 251 344 250 314 b 347 83 250 175 282 83 b 435 118 371 83 396 93 b 458 125 442 122 450 125 "},"Ť":{"ha":639,"x_min":0,"x_max":0,"o":"m 181 875 b 222 917 181 896 197 917 b 263 883 242 917 258 903 b 319 792 271 844 286 792 b 457 904 361 792 428 875 b 486 917 465 913 475 917 b 528 875 508 917 528 897 b 515 846 528 864 524 854 b 429 760 496 826 463 786 b 319 708 401 738 367 708 b 182 867 233 708 197 793 b 181 875 182 869 181 872 m 292 611 b 97 599 190 611 104 599 b 56 640 75 599 56 617 b 90 682 56 661 71 679 b 292 694 96 682 192 694 b 628 606 536 694 619 615 b 639 578 635 597 639 588 b 597 536 639 556 619 536 b 333 267 426 536 333 422 b 375 42 333 132 375 65 b 333 0 375 21 358 0 b 296 25 318 0 304 8 b 250 267 294 29 250 132 b 458 594 250 413 322 542 b 292 611 418 603 363 611 "},"ť":{"ha":542,"x_min":0,"x_max":0,"o":"m 368 708 b 250 875 289 708 250 797 b 292 917 250 897 269 917 b 333 875 314 917 333 897 b 368 792 333 851 351 792 b 449 893 386 792 433 864 b 486 917 456 907 471 917 b 528 875 511 917 528 896 b 524 857 528 869 526 863 b 368 708 494 800 444 708 m 139 833 b 181 792 164 833 181 813 b 179 783 181 789 179 786 b 139 333 153 649 139 483 b 150 192 139 290 143 242 b 439 375 204 297 289 354 l 444 375 b 486 333 467 375 486 358 b 450 292 486 313 471 294 b 269 218 358 279 303 251 b 179 31 232 181 207 126 b 139 0 174 13 157 0 b 99 29 118 0 103 14 b 56 333 76 104 56 231 b 99 800 56 489 69 657 b 139 833 103 819 119 833 "},"Ŧ":{"ha":639,"x_min":0,"x_max":0,"o":"m 83 333 b 122 375 83 354 100 374 b 258 384 169 379 215 382 b 471 658 281 509 353 613 b 292 681 432 669 371 681 b 97 667 190 681 106 667 b 56 708 75 667 56 683 b 92 750 56 729 71 747 b 292 764 93 750 190 764 b 629 665 538 764 621 675 b 639 639 636 657 639 649 b 597 597 639 617 621 597 b 344 387 462 597 372 514 b 486 389 395 388 443 389 b 528 347 508 389 528 369 b 486 306 528 325 508 306 b 333 303 441 306 390 305 b 333 292 333 299 333 296 b 375 42 333 146 375 64 b 333 0 375 21 358 0 b 294 26 317 0 301 10 b 250 292 293 31 250 144 b 250 300 250 294 250 297 b 128 292 211 298 170 295 l 125 292 b 83 333 103 292 83 310 "},"ŧ":{"ha":556,"x_min":0,"x_max":0,"o":"m 56 264 b 94 306 56 285 72 304 b 167 311 119 308 143 309 b 169 376 167 330 168 352 b 97 375 147 376 122 375 b 56 417 75 375 56 394 b 97 458 56 439 75 458 b 175 460 125 458 151 458 b 194 792 183 582 194 722 b 236 833 194 814 214 833 b 278 792 258 833 278 814 b 258 464 278 719 267 582 b 390 483 326 469 371 476 b 403 486 394 485 399 486 b 444 444 424 486 444 469 b 415 406 444 426 432 411 b 253 379 383 394 331 385 b 250 315 252 355 251 334 b 458 319 328 318 398 319 b 500 278 481 319 500 300 b 458 236 500 256 481 236 b 253 232 400 236 330 235 b 347 83 263 145 294 83 b 435 118 371 83 396 93 b 458 125 442 122 450 125 b 500 83 479 125 500 107 b 482 49 500 69 494 57 b 347 0 438 18 393 0 b 170 227 219 0 180 124 b 100 222 147 226 124 224 l 97 222 b 56 264 75 222 56 240 "},"Ũ":{"ha":667,"x_min":0,"x_max":0,"o":"m 222 819 b 181 861 201 819 181 838 b 264 917 181 897 226 917 b 363 869 317 917 349 883 b 403 847 376 856 386 847 b 472 882 426 847 446 882 b 514 840 496 882 514 863 b 504 813 514 831 511 821 b 403 764 481 786 444 764 b 304 811 350 764 318 797 b 264 833 290 825 281 833 b 222 819 253 833 236 819 m 500 653 b 542 694 500 674 517 694 b 582 664 560 694 578 682 b 597 490 594 618 597 543 b 292 0 597 307 546 0 b 56 329 100 0 56 192 b 85 564 56 421 69 510 b 125 594 90 582 107 594 b 167 553 150 594 167 574 b 165 542 167 549 167 546 b 139 329 153 496 139 413 b 292 83 139 192 178 83 b 514 490 454 83 514 299 b 501 642 514 538 508 613 b 500 653 500 644 500 650 "},"ũ":{"ha":778,"x_min":0,"x_max":0,"o":"m 153 611 b 111 653 128 611 111 632 b 114 665 111 657 113 661 b 236 764 131 717 172 764 b 344 707 282 764 318 740 b 403 681 360 688 372 681 b 485 724 426 681 461 700 b 514 736 493 732 503 736 b 556 694 536 736 556 717 b 543 665 556 683 551 674 b 403 597 511 633 463 597 b 281 654 350 597 310 618 b 236 681 263 676 251 681 b 192 640 217 681 203 672 b 153 611 186 624 171 611 m 682 125 b 722 83 704 125 722 104 b 713 57 722 74 718 64 b 597 0 708 53 668 0 b 453 147 510 0 471 82 b 250 0 417 74 354 0 b 56 208 128 0 56 94 b 72 347 56 297 71 342 b 111 375 79 365 94 375 b 153 333 136 375 153 354 b 139 208 153 311 139 299 b 250 83 139 128 178 83 b 431 381 392 83 429 358 b 472 417 433 399 450 417 b 514 375 494 417 514 397 b 597 83 514 243 539 83 b 682 125 643 83 644 125 "},"Ū":{"ha":667,"x_min":0,"x_max":0,"o":"m 500 653 b 542 694 500 674 517 694 b 582 664 560 694 578 682 b 597 490 594 618 597 543 b 292 0 597 307 546 0 b 56 329 100 0 56 192 b 85 564 56 421 69 510 b 125 594 90 582 107 594 b 167 553 150 594 167 574 b 165 542 167 549 167 546 b 139 329 153 496 139 413 b 292 83 139 192 178 83 b 514 490 454 83 514 299 b 501 642 514 538 508 613 b 500 653 500 644 500 650 m 125 806 b 167 847 125 828 144 847 b 522 875 303 847 426 861 l 528 875 b 569 833 550 875 569 858 b 533 792 569 813 554 794 b 167 764 435 778 308 764 b 125 806 144 764 125 783 "},"ū":{"ha":778,"x_min":0,"x_max":0,"o":"m 111 653 b 150 694 111 674 128 693 b 514 708 290 706 415 708 b 556 667 536 708 556 689 b 514 625 556 644 536 625 b 156 611 418 625 293 622 l 153 611 b 111 653 131 611 111 629 m 682 125 b 722 83 704 125 722 104 b 713 57 722 74 718 64 b 597 0 708 53 668 0 b 453 147 510 0 471 82 b 250 0 417 74 354 0 b 56 208 128 0 56 94 b 72 347 56 297 71 342 b 111 375 79 365 94 375 b 153 333 136 375 153 354 b 139 208 153 311 139 299 b 250 83 139 128 178 83 b 431 381 392 83 429 358 b 472 417 433 399 450 417 b 514 375 494 417 514 397 b 597 83 514 243 539 83 b 682 125 643 83 644 125 "},"Ŭ":{"ha":667,"x_min":0,"x_max":0,"o":"m 500 653 b 542 694 500 674 517 694 b 582 664 560 694 578 682 b 597 490 594 618 597 543 b 292 0 597 307 546 0 b 56 329 100 0 56 192 b 85 564 56 421 69 510 b 125 594 90 582 107 594 b 167 553 150 594 167 574 b 165 542 167 549 167 546 b 139 329 153 496 139 413 b 292 83 139 192 178 83 b 514 490 454 83 514 299 b 501 642 514 538 508 613 b 500 653 500 644 500 650 m 139 861 b 181 903 139 883 157 903 b 213 888 193 903 204 897 b 319 833 249 843 288 833 b 485 904 378 833 436 856 b 514 917 493 913 503 917 b 556 875 536 917 556 897 b 543 846 556 864 551 854 b 319 750 481 783 400 750 b 149 835 268 750 201 768 b 139 861 143 842 139 851 "},"ŭ":{"ha":778,"x_min":0,"x_max":0,"o":"m 139 708 b 181 750 139 731 157 750 b 213 735 193 750 204 744 b 319 681 249 690 288 681 b 485 751 378 681 436 703 b 514 764 493 760 503 764 b 556 722 536 764 556 744 b 543 693 556 711 551 701 b 319 597 481 631 400 597 b 149 682 268 597 201 615 b 139 708 143 689 139 699 m 682 125 b 722 83 704 125 722 104 b 713 57 722 74 718 64 b 597 0 708 53 668 0 b 453 147 510 0 471 82 b 250 0 417 74 354 0 b 56 208 128 0 56 94 b 72 347 56 297 71 342 b 111 375 79 365 94 375 b 153 333 136 375 153 354 b 139 208 153 311 139 299 b 250 83 139 128 178 83 b 431 381 392 83 429 358 b 472 417 433 399 450 417 b 514 375 494 417 514 397 b 597 83 514 243 539 83 b 682 125 643 83 644 125 "},"Ů":{"ha":667,"x_min":0,"x_max":0,"o":"m 500 653 b 542 694 500 674 517 694 b 582 664 560 694 578 682 b 597 490 594 618 597 543 b 292 0 597 307 546 0 b 56 329 100 0 56 192 b 85 564 56 421 69 510 b 125 594 90 582 107 594 b 167 553 150 594 167 574 b 165 542 167 549 167 546 b 139 329 153 496 139 413 b 292 83 139 192 178 83 b 514 490 454 83 514 299 b 501 642 514 538 508 613 b 500 653 500 644 500 650 m 208 778 b 347 917 208 853 272 917 b 486 792 414 917 486 874 b 347 653 486 717 422 653 b 208 778 281 653 208 696 m 292 778 b 347 736 292 757 311 736 b 403 792 375 736 403 764 b 347 833 403 813 383 833 b 292 778 319 833 292 806 "},"ů":{"ha":778,"x_min":0,"x_max":0,"o":"m 319 764 b 278 681 319 724 278 736 b 333 625 278 647 300 625 b 417 694 386 625 417 653 b 361 750 417 728 394 750 b 319 792 339 750 319 769 b 361 833 319 814 339 833 b 500 694 439 833 500 772 b 333 542 500 597 419 542 b 194 681 256 542 194 603 b 256 799 194 758 251 796 b 278 806 263 803 271 806 b 319 764 299 806 319 788 m 682 125 b 722 83 704 125 722 104 b 713 57 722 74 718 64 b 597 0 708 53 668 0 b 453 147 510 0 471 82 b 250 0 417 74 354 0 b 56 208 128 0 56 94 b 72 347 56 297 71 342 b 111 375 79 365 94 375 b 153 333 136 375 153 354 b 139 208 153 311 139 299 b 250 83 139 128 178 83 b 431 381 392 83 429 358 b 472 417 433 399 450 417 b 514 375 494 417 514 397 b 597 83 514 243 539 83 b 682 125 643 83 644 125 "},"Ű":{"ha":667,"x_min":0,"x_max":0,"o":"m 382 694 b 340 736 357 694 340 715 b 347 763 340 746 344 756 b 254 713 311 742 281 725 b 236 708 249 710 242 708 b 194 750 215 708 194 725 b 203 774 194 758 199 767 b 268 893 231 814 250 854 b 306 917 275 908 290 917 b 347 875 331 917 347 896 b 343 856 347 868 344 858 b 438 911 375 874 407 893 b 458 917 444 915 451 917 b 500 875 482 917 500 897 b 492 849 500 865 497 856 b 421 722 458 807 435 763 b 382 694 415 706 399 694 m 500 653 b 542 694 500 674 517 694 b 582 664 560 694 578 682 b 597 490 594 618 597 543 b 292 0 597 307 546 0 b 56 329 100 0 56 192 b 85 564 56 421 69 510 b 125 594 90 582 107 594 b 167 553 150 594 167 574 b 165 542 167 549 167 546 b 139 329 153 496 139 413 b 292 83 139 192 178 83 b 514 490 454 83 514 299 b 501 642 514 538 508 613 b 500 653 500 644 500 650 "},"ű":{"ha":778,"x_min":0,"x_max":0,"o":"m 333 833 b 375 792 358 833 375 813 b 346 707 375 764 358 733 b 538 815 415 747 486 789 b 556 819 543 818 550 819 b 597 778 576 819 597 803 b 585 749 597 767 593 757 b 469 571 526 690 488 626 b 431 542 464 554 449 542 b 389 583 406 542 389 563 b 413 649 389 607 403 629 b 254 560 356 615 297 581 b 236 556 249 557 243 556 b 194 597 213 556 194 575 b 201 621 194 606 196 614 b 293 804 247 686 278 753 b 333 833 299 822 315 833 m 682 125 b 722 83 704 125 722 104 b 713 57 722 74 718 64 b 597 0 708 53 668 0 b 453 147 510 0 471 82 b 250 0 417 74 354 0 b 56 208 128 0 56 94 b 72 347 56 297 71 342 b 111 375 79 365 94 375 b 153 333 136 375 153 354 b 139 208 153 311 139 299 b 250 83 139 128 178 83 b 431 381 392 83 429 358 b 472 417 433 399 450 417 b 514 375 494 417 514 397 b 597 83 514 243 539 83 b 682 125 643 83 644 125 "},"Ų":{"ha":792,"x_min":0,"x_max":0,"o":"m 181 764 b 222 722 206 764 222 743 b 219 706 222 717 222 711 b 139 278 186 628 139 465 b 250 83 139 168 181 83 b 414 181 301 83 354 114 b 611 681 508 286 611 472 b 653 722 611 703 631 722 b 694 681 675 722 694 703 b 736 158 694 289 732 192 b 736 153 736 157 736 155 b 711 115 736 137 727 121 b 500 -208 618 46 500 -84 b 556 -278 500 -256 521 -278 b 657 -192 594 -278 632 -247 b 694 -167 664 -176 678 -167 b 736 -208 719 -167 736 -187 b 732 -225 736 -214 735 -219 b 556 -361 701 -294 642 -361 b 417 -208 465 -361 417 -286 b 647 169 417 -44 548 92 b 622 353 640 199 630 256 b 475 125 581 261 527 182 b 250 0 410 53 338 0 b 56 278 97 0 56 165 b 142 739 56 479 106 650 b 181 764 149 754 164 764 "},"ų":{"ha":778,"x_min":0,"x_max":0,"o":"m 681 -236 b 722 -278 706 -236 722 -257 b 718 -294 722 -283 721 -289 b 542 -431 688 -364 628 -431 b 403 -278 451 -431 403 -356 b 539 14 403 -163 467 -62 b 453 147 491 41 466 99 b 250 0 417 74 354 0 b 56 208 128 0 56 94 b 72 347 56 297 71 342 b 111 375 79 365 94 375 b 153 333 136 375 153 354 b 139 208 153 311 139 299 b 250 83 139 128 178 83 b 431 381 392 83 429 358 b 472 417 433 399 450 417 b 514 375 494 417 514 397 b 597 83 514 243 539 83 b 618 87 605 83 612 85 b 653 114 630 97 642 106 b 661 120 656 116 658 118 b 681 125 667 123 674 125 b 681 125 681 125 681 125 b 682 125 681 125 682 125 b 714 107 695 125 707 118 b 722 83 719 101 722 92 b 713 57 722 74 718 64 b 658 14 710 54 691 30 b 486 -278 574 -58 486 -170 b 542 -347 486 -325 507 -347 b 643 -261 581 -347 618 -317 b 681 -236 650 -246 664 -236 "},"Ŵ":{"ha":1125,"x_min":0,"x_max":0,"o":"m 1028 694 b 1069 653 1051 694 1069 674 b 1063 631 1069 644 1067 638 b 858 154 968 488 900 279 b 743 38 843 108 818 38 b 635 157 667 38 644 110 b 594 399 618 233 603 322 b 563 461 588 457 571 461 b 504 386 546 461 526 439 b 400 115 483 338 469 303 b 278 0 381 63 350 0 b 144 108 207 0 171 60 b 56 551 83 218 56 372 b 97 593 56 574 75 593 b 139 551 119 593 139 574 b 217 150 139 381 167 240 b 278 83 246 99 265 83 b 322 143 289 83 303 90 b 426 419 392 331 406 368 b 563 544 446 464 479 544 b 678 407 638 544 671 474 b 715 176 686 333 699 250 b 743 121 728 124 736 121 b 781 179 751 121 763 125 b 993 675 822 304 890 518 b 1028 694 1001 688 1014 694 m 542 750 b 500 792 517 750 500 771 b 507 814 500 799 503 807 b 639 917 542 869 578 917 b 761 792 715 917 743 843 b 764 778 763 788 764 782 b 722 736 764 757 747 736 b 683 764 706 736 689 747 b 639 833 663 824 646 833 b 576 769 631 833 611 825 b 542 750 568 757 556 750 "},"ŵ":{"ha":1056,"x_min":0,"x_max":0,"o":"m 903 583 b 861 542 903 561 883 542 b 832 554 850 542 840 546 b 747 690 785 601 772 639 b 722 722 732 721 724 722 b 688 694 722 722 711 721 b 592 563 653 656 611 594 b 556 542 583 550 569 542 b 514 583 531 542 514 563 b 519 604 514 590 515 597 b 626 750 542 642 586 706 b 722 806 653 779 681 806 b 822 726 779 806 807 757 b 890 613 853 667 854 649 b 903 583 899 604 903 594 m 1000 250 b 958 208 1000 229 982 208 b 899 274 924 208 908 249 b 611 69 829 168 717 69 b 475 228 525 69 485 151 b 208 0 407 117 318 0 b 56 208 92 0 56 129 b 71 383 56 251 58 322 b 111 417 75 403 92 417 b 153 375 136 417 153 396 b 151 367 153 372 151 369 b 139 208 142 317 139 249 b 208 83 139 135 172 83 b 476 406 281 83 406 249 b 514 431 483 419 497 431 b 556 389 536 431 556 411 l 556 278 b 611 153 556 182 589 153 b 876 425 692 153 851 303 b 917 458 881 443 897 458 b 958 417 939 458 958 439 b 993 274 958 353 971 306 b 1000 250 997 267 1000 258 "},"Ŷ":{"ha":667,"x_min":0,"x_max":0,"o":"m 264 750 b 222 792 239 750 222 771 b 229 814 222 799 225 807 b 361 917 264 869 300 917 b 483 792 438 917 465 843 b 486 778 485 788 486 782 b 444 736 486 757 469 736 b 406 764 428 736 411 747 b 361 833 385 824 368 833 b 299 769 353 833 333 825 b 264 750 290 757 278 750 m 56 653 b 97 694 56 674 72 694 b 138 663 117 694 133 682 b 319 494 156 583 208 494 b 533 624 396 494 507 575 b 569 644 540 638 554 644 b 611 603 594 644 611 622 b 550 394 611 557 596 476 b 374 32 467 244 390 107 b 333 0 369 13 353 0 b 292 42 308 0 292 21 b 293 51 292 44 293 49 b 478 436 315 151 394 286 b 496 472 485 449 490 460 b 319 411 446 439 382 411 b 57 643 153 411 78 547 b 56 653 57 646 56 650 "},"ŷ":{"ha":847,"x_min":0,"x_max":0,"o":"m 208 569 b 167 611 186 569 167 589 b 179 640 167 622 171 632 b 288 742 204 665 244 711 b 375 778 315 761 340 778 b 538 615 456 778 492 707 b 542 597 540 610 542 603 b 500 556 542 576 525 556 b 463 579 485 556 469 565 b 375 694 411 682 392 694 b 338 675 374 694 358 690 b 238 582 303 650 265 610 b 208 569 229 574 219 569 m 417 -347 b 444 -389 417 -375 435 -389 b 528 -236 476 -389 528 -340 b 519 -103 528 -197 525 -151 b 417 -347 457 -187 417 -275 m 333 -347 b 506 11 333 -221 418 -92 b 468 226 494 83 481 161 b 250 42 426 133 354 42 b 56 250 128 42 56 136 l 56 263 b 111 417 56 313 58 417 b 153 375 136 417 153 396 b 151 367 153 372 151 369 b 139 250 140 313 139 290 b 250 125 139 169 178 125 b 431 418 332 125 425 283 b 472 458 432 439 449 458 b 513 425 492 458 508 444 b 578 89 528 351 556 222 b 726 215 631 140 682 185 b 750 222 733 221 742 222 b 792 181 771 222 792 204 b 774 146 792 167 785 154 b 593 -15 722 110 653 50 b 611 -236 603 -89 611 -171 b 444 -472 611 -354 551 -472 b 333 -347 371 -472 333 -403 "},"Ÿ":{"ha":667,"x_min":0,"x_max":0,"o":"m 472 917 b 514 847 500 917 514 875 b 472 806 514 824 496 806 b 431 875 449 806 431 851 b 472 917 431 899 449 917 m 181 875 b 222 917 181 899 199 917 b 292 875 250 917 292 903 b 250 833 292 851 274 833 b 181 875 222 833 181 847 m 56 722 b 97 764 56 743 72 764 b 138 731 117 764 133 750 b 319 542 156 639 211 542 b 532 685 393 542 504 628 b 569 708 539 699 554 708 b 611 667 594 708 611 683 b 551 440 611 617 596 531 b 374 33 468 274 390 119 b 333 0 369 14 353 0 b 292 42 308 0 292 21 b 293 50 292 44 293 47 b 476 476 315 158 393 310 b 499 528 485 493 492 510 b 319 458 447 490 385 458 b 57 714 150 458 78 611 b 56 722 57 717 56 719 "},"Ź":{"ha":694,"x_min":0,"x_max":0,"o":"m 347 694 b 306 736 325 694 306 713 b 322 769 306 749 311 761 b 451 899 374 808 433 872 b 486 917 460 911 472 917 b 528 875 510 917 528 896 b 521 851 528 867 525 858 b 372 703 494 811 432 747 b 347 694 365 697 356 694 m 97 549 b 56 590 76 549 56 565 b 85 631 56 608 67 625 b 458 694 213 669 354 694 b 625 565 533 694 625 664 b 340 293 625 451 457 364 b 181 142 233 229 181 172 b 389 83 181 115 275 83 b 585 100 479 83 563 93 b 597 101 589 101 593 101 b 639 60 618 101 639 85 b 610 19 639 42 628 25 b 389 0 568 7 485 0 b 97 142 308 0 97 4 b 299 365 97 236 197 304 b 542 565 432 444 542 529 b 458 611 542 592 522 611 b 110 550 368 611 232 586 b 97 549 106 549 101 549 "},"ź":{"ha":681,"x_min":0,"x_max":0,"o":"m 333 -347 b 361 -389 333 -375 351 -389 b 458 -236 397 -389 458 -335 b 442 -151 458 -204 451 -176 b 333 -347 372 -226 333 -292 m 583 83 b 625 42 606 83 625 65 b 611 11 625 31 619 19 b 504 -87 574 -22 538 -56 b 542 -236 525 -128 542 -178 b 361 -472 542 -360 464 -472 b 250 -347 288 -472 250 -403 b 400 -74 250 -247 318 -158 b 333 83 371 -29 333 18 b 375 292 333 154 375 251 b 292 375 375 339 339 375 b 139 319 249 375 139 358 b 153 264 139 310 153 285 b 111 222 153 243 136 222 b 56 319 71 222 56 274 b 292 458 56 419 190 458 b 458 292 383 458 458 383 b 417 83 458 221 417 124 b 461 -15 417 57 433 26 b 556 72 492 14 524 43 b 583 83 564 79 574 83 m 417 875 b 458 833 440 875 458 856 b 324 557 458 735 378 625 b 292 542 315 547 304 542 b 250 583 268 542 250 561 b 260 610 250 593 254 603 b 375 838 314 676 368 769 b 417 875 378 858 396 875 "},"Ż":{"ha":694,"x_min":0,"x_max":0,"o":"m 97 549 b 56 590 76 549 56 565 b 85 631 56 608 67 625 b 458 694 213 669 354 694 b 625 565 533 694 625 664 b 340 293 625 451 457 364 b 181 142 233 229 181 172 b 389 83 181 115 275 83 b 585 100 479 83 563 93 b 597 101 589 101 593 101 b 639 60 618 101 639 85 b 610 19 639 42 628 25 b 389 0 568 7 485 0 b 97 142 308 0 97 4 b 299 365 97 236 197 304 b 542 565 432 444 542 529 b 458 611 542 592 522 611 b 110 550 368 611 232 586 b 97 549 106 549 101 549 m 333 847 b 375 889 333 871 351 889 b 444 847 403 889 444 875 b 403 806 444 824 426 806 b 333 847 375 806 333 819 "},"ż":{"ha":681,"x_min":0,"x_max":0,"o":"m 292 736 b 333 694 315 736 333 718 b 292 625 333 667 319 625 b 250 667 268 625 250 643 b 292 736 250 694 264 736 m 333 -347 b 361 -389 333 -375 351 -389 b 458 -236 397 -389 458 -335 b 442 -151 458 -204 451 -176 b 333 -347 372 -226 333 -292 m 583 83 b 625 42 606 83 625 65 b 611 11 625 31 619 19 b 504 -87 574 -22 538 -56 b 542 -236 525 -128 542 -178 b 361 -472 542 -360 464 -472 b 250 -347 288 -472 250 -403 b 400 -74 250 -247 318 -158 b 333 83 371 -29 333 18 b 375 292 333 154 375 251 b 292 375 375 339 339 375 b 139 319 249 375 139 358 b 153 264 139 310 153 285 b 111 222 153 243 136 222 b 56 319 71 222 56 274 b 292 458 56 419 190 458 b 458 292 383 458 458 383 b 417 83 458 221 417 124 b 461 -15 417 57 433 26 b 556 72 492 14 524 43 b 583 83 564 79 574 83 "},"Ž":{"ha":694,"x_min":0,"x_max":0,"o":"m 222 875 b 264 917 222 896 239 917 b 304 883 283 917 300 903 b 361 792 313 844 328 792 b 499 904 403 792 469 875 b 528 917 507 913 517 917 b 569 875 550 917 569 897 b 557 846 569 864 565 854 b 471 760 538 826 504 786 b 361 708 443 738 408 708 b 224 867 275 708 239 793 b 222 875 224 869 222 872 m 97 549 b 56 590 76 549 56 565 b 85 631 56 608 67 625 b 458 694 213 669 354 694 b 625 565 533 694 625 664 b 340 293 625 451 457 364 b 181 142 233 229 181 172 b 389 83 181 115 275 83 b 585 100 479 83 563 93 b 597 101 589 101 593 101 b 639 60 618 101 639 85 b 610 19 639 42 628 25 b 389 0 568 7 485 0 b 97 142 308 0 97 4 b 299 365 97 236 197 304 b 542 565 432 444 542 529 b 458 611 542 592 522 611 b 110 550 368 611 232 586 b 97 549 106 549 101 549 "},"ž":{"ha":681,"x_min":0,"x_max":0,"o":"m 333 -347 b 361 -389 333 -375 351 -389 b 458 -236 397 -389 458 -335 b 442 -151 458 -204 451 -176 b 333 -347 372 -226 333 -292 m 583 83 b 625 42 606 83 625 65 b 611 11 625 31 619 19 b 504 -87 574 -22 538 -56 b 542 -236 525 -128 542 -178 b 361 -472 542 -360 464 -472 b 250 -347 288 -472 250 -403 b 400 -74 250 -247 318 -158 b 333 83 371 -29 333 18 b 375 292 333 154 375 251 b 292 375 375 339 339 375 b 139 319 249 375 139 358 b 153 264 139 310 153 285 b 111 222 153 243 136 222 b 56 319 71 222 56 274 b 292 458 56 419 190 458 b 458 292 383 458 458 383 b 417 83 458 221 417 124 b 461 -15 417 57 433 26 b 556 72 492 14 524 43 b 583 83 564 79 574 83 m 472 764 b 514 722 494 764 514 744 b 501 693 514 711 510 701 b 331 536 443 635 385 576 b 222 486 299 511 267 486 b 135 529 186 486 154 506 b 69 708 101 569 69 642 b 111 750 69 731 88 750 b 153 714 132 750 150 735 b 199 582 161 656 179 606 b 222 569 207 572 214 569 b 281 603 228 569 246 578 b 443 751 326 638 385 693 b 472 764 451 760 461 764 "},"ſ":{"ha":528,"x_min":0,"x_max":0,"o":"m 194 -431 b 153 -472 194 -451 178 -472 b 113 -439 133 -472 117 -458 b 56 97 83 -289 56 -101 b 333 764 56 274 81 764 b 472 583 440 764 472 657 b 321 304 472 479 393 376 b 292 292 313 296 303 292 b 250 333 269 292 250 311 b 263 363 250 344 254 354 b 389 583 329 429 389 521 b 333 681 389 649 365 681 b 139 97 197 681 139 310 b 193 -422 139 -93 164 -275 b 194 -431 193 -425 194 -428 "}}}
